<?xml version="1.0" encoding="UTF-8" standalone="no"?>
<!DOCTYPE svg PUBLIC "-//W3C//DTD SVG 1.1//EN"
 "http://www.w3.org/Graphics/SVG/1.1/DTD/svg11.dtd">
<!-- Generated by graphviz version 2.40.1 (20161225.0304)
 -->
<!-- Title: snakemake_dag Pages: 1 -->
<svg width="765pt" height="836pt"
 viewBox="0.00 0.00 765.00 836.00" xmlns="http://www.w3.org/2000/svg" xmlns:xlink="http://www.w3.org/1999/xlink">
<g id="graph0" class="graph" transform="scale(1 1) rotate(0) translate(4 832)">
<title>snakemake_dag</title>
<polygon fill="#ffffff" stroke="transparent" points="-4,4 -4,-832 761,-832 761,4 -4,4"/>
<!-- 0 -->
<g id="node1" class="node">
<title>0</title>
<path fill="none" stroke="#88d856" stroke-width="2" d="M311.5,-36C311.5,-36 281.5,-36 281.5,-36 275.5,-36 269.5,-30 269.5,-24 269.5,-24 269.5,-12 269.5,-12 269.5,-6 275.5,0 281.5,0 281.5,0 311.5,0 311.5,0 317.5,0 323.5,-6 323.5,-12 323.5,-12 323.5,-24 323.5,-24 323.5,-30 317.5,-36 311.5,-36"/>
<text text-anchor="middle" x="296.5" y="-15.5" font-family="sans" font-size="10.00" fill="#000000">all</text>
</g>
<!-- 1 -->
<g id="node2" class="node">
<title>1</title>
<path fill="none" stroke="#d86656" stroke-width="2" d="M745,-324C745,-324 706,-324 706,-324 700,-324 694,-318 694,-312 694,-312 694,-300 694,-300 694,-294 700,-288 706,-288 706,-288 745,-288 745,-288 751,-288 757,-294 757,-300 757,-300 757,-312 757,-312 757,-318 751,-324 745,-324"/>
<text text-anchor="middle" x="725.5" y="-303.5" font-family="sans" font-size="10.00" fill="#000000">mvCREST</text>
</g>
<!-- 1&#45;&gt;0 -->
<g id="edge1" class="edge">
<title>1&#45;&gt;0</title>
<path fill="none" stroke="#c0c0c0" stroke-width="2" d="M730.5947,-287.6562C738.2632,-256.1507 749.392,-190.6504 724.5,-144 697.6895,-93.7541 671.3589,-93.1989 618.5,-72 567.2276,-51.4374 407.3663,-30.8828 333.9945,-22.2443"/>
<polygon fill="#c0c0c0" stroke="#c0c0c0" stroke-width="2" points="334.1581,-18.7397 323.8199,-21.0576 333.3471,-25.6926 334.1581,-18.7397"/>
</g>
<!-- 2 -->
<g id="node3" class="node">
<title>2</title>
<path fill="none" stroke="#56d89a" stroke-width="2" d="M499,-108C499,-108 398,-108 398,-108 392,-108 386,-102 386,-96 386,-96 386,-84 386,-84 386,-78 392,-72 398,-72 398,-72 499,-72 499,-72 505,-72 511,-78 511,-84 511,-84 511,-96 511,-96 511,-102 505,-108 499,-108"/>
<text text-anchor="middle" x="448.5" y="-87.5" font-family="sans" font-size="10.00" fill="#000000">gatk_haplotype_caller</text>
</g>
<!-- 2&#45;&gt;0 -->
<g id="edge2" class="edge">
<title>2&#45;&gt;0</title>
<path fill="none" stroke="#c0c0c0" stroke-width="2" d="M410.144,-71.8314C386.4911,-60.6274 356.3302,-46.3406 333.0247,-35.3012"/>
<polygon fill="#c0c0c0" stroke="#c0c0c0" stroke-width="2" points="334.3529,-32.0575 323.8172,-30.9397 331.3562,-38.3837 334.3529,-32.0575"/>
</g>
<!-- 3 -->
<g id="node4" class="node">
<title>3</title>
<path fill="none" stroke="#56d88a" stroke-width="2" d="M597.5,-108C597.5,-108 541.5,-108 541.5,-108 535.5,-108 529.5,-102 529.5,-96 529.5,-96 529.5,-84 529.5,-84 529.5,-78 535.5,-72 541.5,-72 541.5,-72 597.5,-72 597.5,-72 603.5,-72 609.5,-78 609.5,-84 609.5,-84 609.5,-96 609.5,-96 609.5,-102 603.5,-108 597.5,-108"/>
<text text-anchor="middle" x="569.5" y="-87.5" font-family="sans" font-size="10.00" fill="#000000">multiqc_gatk</text>
</g>
<!-- 3&#45;&gt;0 -->
<g id="edge3" class="edge">
<title>3&#45;&gt;0</title>
<path fill="none" stroke="#c0c0c0" stroke-width="2" d="M529.2363,-75.083C525.9564,-73.9969 522.6812,-72.9547 519.5,-72 454.7256,-52.5599 377.7874,-35.1546 333.3078,-25.6352"/>
<polygon fill="#c0c0c0" stroke="#c0c0c0" stroke-width="2" points="334.0346,-22.2116 323.5256,-23.557 332.5799,-29.0588 334.0346,-22.2116"/>
</g>
<!-- 4 -->
<g id="node5" class="node">
<title>4</title>
<path fill="none" stroke="#d8d356" stroke-width="2" d="M147,-468C147,-468 82,-468 82,-468 76,-468 70,-462 70,-456 70,-456 70,-444 70,-444 70,-438 76,-432 82,-432 82,-432 147,-432 147,-432 153,-432 159,-438 159,-444 159,-444 159,-456 159,-456 159,-462 153,-468 147,-468"/>
<text text-anchor="middle" x="114.5" y="-447.5" font-family="sans" font-size="10.00" fill="#000000">multiqc_fastqc</text>
</g>
<!-- 4&#45;&gt;0 -->
<g id="edge4" class="edge">
<title>4&#45;&gt;0</title>
<path fill="none" stroke="#c0c0c0" stroke-width="2" d="M113.8784,-431.8172C112.9997,-404.504 111.5,-351.2598 111.5,-306 111.5,-306 111.5,-306 111.5,-162 111.5,-87.6667 205.6563,-46.1043 259.6249,-28.3868"/>
<polygon fill="#c0c0c0" stroke="#c0c0c0" stroke-width="2" points="260.726,-31.7095 269.2026,-25.3536 258.6125,-25.0362 260.726,-31.7095"/>
</g>
<!-- 5 -->
<g id="node6" class="node">
<title>5</title>
<path fill="none" stroke="#566bd8" stroke-width="2" d="M279.5,-252C279.5,-252 189.5,-252 189.5,-252 183.5,-252 177.5,-246 177.5,-240 177.5,-240 177.5,-228 177.5,-228 177.5,-222 183.5,-216 189.5,-216 189.5,-216 279.5,-216 279.5,-216 285.5,-216 291.5,-222 291.5,-228 291.5,-228 291.5,-240 291.5,-240 291.5,-246 285.5,-252 279.5,-252"/>
<text text-anchor="middle" x="234.5" y="-231.5" font-family="sans" font-size="10.00" fill="#000000">picard_alignmentQC</text>
</g>
<!-- 5&#45;&gt;0 -->
<g id="edge5" class="edge">
<title>5&#45;&gt;0</title>
<path fill="none" stroke="#c0c0c0" stroke-width="2" d="M237.9441,-215.9356C241.5604,-197.6667 247.6639,-168.6806 254.5,-144 263.967,-109.8213 277.2192,-71.2294 286.2909,-45.8652"/>
<polygon fill="#c0c0c0" stroke="#c0c0c0" stroke-width="2" points="289.6833,-46.7751 289.7816,-36.1807 283.098,-44.4014 289.6833,-46.7751"/>
</g>
<!-- 6 -->
<g id="node7" class="node">
<title>6</title>
<path fill="none" stroke="#569ad8" stroke-width="2" d="M219,-324C219,-324 158,-324 158,-324 152,-324 146,-318 146,-312 146,-312 146,-300 146,-300 146,-294 152,-288 158,-288 158,-288 219,-288 219,-288 225,-288 231,-294 231,-300 231,-300 231,-312 231,-312 231,-318 225,-324 219,-324"/>
<text text-anchor="middle" x="188.5" y="-303.5" font-family="sans" font-size="10.00" fill="#000000">CoNVaDING_2</text>
</g>
<!-- 6&#45;&gt;0 -->
<g id="edge6" class="edge">
<title>6&#45;&gt;0</title>
<path fill="none" stroke="#c0c0c0" stroke-width="2" d="M179.1141,-287.8858C170.8764,-269.5783 161.2519,-240.5628 168.5,-216 188.9096,-146.8353 241.8489,-79.0941 272.8788,-43.5736"/>
<polygon fill="#c0c0c0" stroke="#c0c0c0" stroke-width="2" points="275.5064,-45.8858 279.5198,-36.0805 270.2677,-41.2429 275.5064,-45.8858"/>
</g>
<!-- 7 -->
<g id="node8" class="node">
<title>7</title>
<path fill="none" stroke="#56d0d8" stroke-width="2" d="M317,-180C317,-180 276,-180 276,-180 270,-180 264,-174 264,-168 264,-168 264,-156 264,-156 264,-150 270,-144 276,-144 276,-144 317,-144 317,-144 323,-144 329,-150 329,-156 329,-156 329,-168 329,-168 329,-174 323,-180 317,-180"/>
<text text-anchor="middle" x="296.5" y="-159.5" font-family="sans" font-size="10.00" fill="#000000">freebayes</text>
</g>
<!-- 7&#45;&gt;0 -->
<g id="edge7" class="edge">
<title>7&#45;&gt;0</title>
<path fill="none" stroke="#c0c0c0" stroke-width="2" d="M296.5,-143.7623C296.5,-119.201 296.5,-75.2474 296.5,-46.3541"/>
<polygon fill="#c0c0c0" stroke="#c0c0c0" stroke-width="2" points="300.0001,-46.0896 296.5,-36.0896 293.0001,-46.0897 300.0001,-46.0896"/>
</g>
<!-- 8 -->
<g id="node9" class="node">
<title>8</title>
<path fill="none" stroke="#afd856" stroke-width="2" d="M451.5,-396C451.5,-396 359.5,-396 359.5,-396 353.5,-396 347.5,-390 347.5,-384 347.5,-384 347.5,-372 347.5,-372 347.5,-366 353.5,-360 359.5,-360 359.5,-360 451.5,-360 451.5,-360 457.5,-360 463.5,-366 463.5,-372 463.5,-372 463.5,-384 463.5,-384 463.5,-390 457.5,-396 451.5,-396"/>
<text text-anchor="middle" x="405.5" y="-375.5" font-family="sans" font-size="10.00" fill="#000000">freebayes_individual</text>
</g>
<!-- 8&#45;&gt;0 -->
<g id="edge8" class="edge">
<title>8&#45;&gt;0</title>
<path fill="none" stroke="#c0c0c0" stroke-width="2" d="M395.0847,-359.5566C380.9675,-332.7787 357.5,-281.1706 357.5,-234 357.5,-234 357.5,-234 357.5,-162 357.5,-118.1465 333.2171,-72.307 315.2932,-44.4447"/>
<polygon fill="#c0c0c0" stroke="#c0c0c0" stroke-width="2" points="318.1765,-42.4595 309.7361,-36.0555 312.3407,-46.3253 318.1765,-42.4595"/>
</g>
<!-- 9 -->
<g id="node10" class="node">
<title>9</title>
<path fill="none" stroke="#568ad8" stroke-width="2" d="M71,-252C71,-252 12,-252 12,-252 6,-252 0,-246 0,-240 0,-240 0,-228 0,-228 0,-222 6,-216 12,-216 12,-216 71,-216 71,-216 77,-216 83,-222 83,-228 83,-228 83,-240 83,-240 83,-246 77,-252 71,-252"/>
<text text-anchor="middle" x="41.5" y="-231.5" font-family="sans" font-size="10.00" fill="#000000">bam_to_cram</text>
</g>
<!-- 9&#45;&gt;0 -->
<g id="edge9" class="edge">
<title>9&#45;&gt;0</title>
<path fill="none" stroke="#c0c0c0" stroke-width="2" d="M42.4436,-215.7399C45.1817,-182.2558 55.861,-110.9057 97.5,-72 120.8699,-50.1642 208.5703,-32.502 259.409,-23.8256"/>
<polygon fill="#c0c0c0" stroke="#c0c0c0" stroke-width="2" points="260.0727,-27.2634 269.3584,-22.1619 258.9181,-20.3592 260.0727,-27.2634"/>
</g>
<!-- 10 -->
<g id="node11" class="node">
<title>10</title>
<path fill="none" stroke="#bed856" stroke-width="2" d="M678.5,-468C678.5,-468 648.5,-468 648.5,-468 642.5,-468 636.5,-462 636.5,-456 636.5,-456 636.5,-444 636.5,-444 636.5,-438 642.5,-432 648.5,-432 648.5,-432 678.5,-432 678.5,-432 684.5,-432 690.5,-438 690.5,-444 690.5,-444 690.5,-456 690.5,-456 690.5,-462 684.5,-468 678.5,-468"/>
<text text-anchor="middle" x="663.5" y="-447.5" font-family="sans" font-size="10.00" fill="#000000">CREST</text>
</g>
<!-- 10&#45;&gt;1 -->
<g id="edge10" class="edge">
<title>10&#45;&gt;1</title>
<path fill="none" stroke="#c0c0c0" stroke-width="2" d="M671.3523,-431.7623C682.0205,-406.9846 701.1859,-362.4714 713.6193,-333.5939"/>
<polygon fill="#c0c0c0" stroke="#c0c0c0" stroke-width="2" points="716.9715,-334.6586 717.7114,-324.0896 710.5421,-331.8903 716.9715,-334.6586"/>
</g>
<!-- 11 -->
<g id="node12" class="node">
<title>11</title>
<path fill="none" stroke="#56c1d8" stroke-width="2" d="M473.5,-180C473.5,-180 397.5,-180 397.5,-180 391.5,-180 385.5,-174 385.5,-168 385.5,-168 385.5,-156 385.5,-156 385.5,-150 391.5,-144 397.5,-144 397.5,-144 473.5,-144 473.5,-144 479.5,-144 485.5,-150 485.5,-156 485.5,-156 485.5,-168 485.5,-168 485.5,-174 479.5,-180 473.5,-180"/>
<text text-anchor="middle" x="435.5" y="-159.5" font-family="sans" font-size="10.00" fill="#000000">gatk_print_reads</text>
</g>
<!-- 11&#45;&gt;2 -->
<g id="edge11" class="edge">
<title>11&#45;&gt;2</title>
<path fill="none" stroke="#c0c0c0" stroke-width="2" d="M438.7804,-143.8314C440.1708,-136.131 441.8241,-126.9743 443.3692,-118.4166"/>
<polygon fill="#c0c0c0" stroke="#c0c0c0" stroke-width="2" points="446.8428,-118.8761 445.1754,-108.4133 439.9542,-117.6322 446.8428,-118.8761"/>
</g>
<!-- 12 -->
<g id="node13" class="node">
<title>12</title>
<path fill="none" stroke="#56a9d8" stroke-width="2" d="M598.5,-252C598.5,-252 492.5,-252 492.5,-252 486.5,-252 480.5,-246 480.5,-240 480.5,-240 480.5,-228 480.5,-228 480.5,-222 486.5,-216 492.5,-216 492.5,-216 598.5,-216 598.5,-216 604.5,-216 610.5,-222 610.5,-228 610.5,-228 610.5,-240 610.5,-240 610.5,-246 604.5,-252 598.5,-252"/>
<text text-anchor="middle" x="545.5" y="-231.5" font-family="sans" font-size="10.00" fill="#000000">gatk_base_recalibrator</text>
</g>
<!-- 12&#45;&gt;2 -->
<g id="edge12" class="edge">
<title>12&#45;&gt;2</title>
<path fill="none" stroke="#c0c0c0" stroke-width="2" d="M536.4915,-215.8041C526.9752,-197.1798 511.0774,-167.6905 494.5,-144 487.7967,-134.4205 479.7389,-124.5195 472.2531,-115.8529"/>
<polygon fill="#c0c0c0" stroke="#c0c0c0" stroke-width="2" points="474.828,-113.481 465.5945,-108.2855 469.5728,-118.1051 474.828,-113.481"/>
</g>
<!-- 12&#45;&gt;3 -->
<g id="edge13" class="edge">
<title>12&#45;&gt;3</title>
<path fill="none" stroke="#c0c0c0" stroke-width="2" d="M548.5396,-215.7623C552.6512,-191.0928 560.0234,-146.8598 564.8378,-117.9731"/>
<polygon fill="#c0c0c0" stroke="#c0c0c0" stroke-width="2" points="568.2934,-118.529 566.4851,-108.0896 561.3886,-117.3781 568.2934,-118.529"/>
</g>
<!-- 12&#45;&gt;11 -->
<g id="edge23" class="edge">
<title>12&#45;&gt;11</title>
<path fill="none" stroke="#c0c0c0" stroke-width="2" d="M517.7424,-215.8314C503.803,-206.7074 486.7402,-195.539 471.7769,-185.7449"/>
<polygon fill="#c0c0c0" stroke="#c0c0c0" stroke-width="2" points="473.5326,-182.711 463.2488,-180.1628 469.699,-188.5679 473.5326,-182.711"/>
</g>
<!-- 13 -->
<g id="node14" class="node">
<title>13</title>
<path fill="none" stroke="#d85656" stroke-width="2" d="M703.5,-180C703.5,-180 591.5,-180 591.5,-180 585.5,-180 579.5,-174 579.5,-168 579.5,-168 579.5,-156 579.5,-156 579.5,-150 585.5,-144 591.5,-144 591.5,-144 703.5,-144 703.5,-144 709.5,-144 715.5,-150 715.5,-156 715.5,-156 715.5,-168 715.5,-168 715.5,-174 709.5,-180 703.5,-180"/>
<text text-anchor="middle" x="647.5" y="-159.5" font-family="sans" font-size="10.00" fill="#000000">gatk_base_recalibrator2</text>
</g>
<!-- 12&#45;&gt;13 -->
<g id="edge26" class="edge">
<title>12&#45;&gt;13</title>
<path fill="none" stroke="#c0c0c0" stroke-width="2" d="M571.2389,-215.8314C584.0437,-206.7927 599.6909,-195.7476 613.4719,-186.0198"/>
<polygon fill="#c0c0c0" stroke="#c0c0c0" stroke-width="2" points="615.618,-188.7891 621.7693,-180.1628 611.5812,-183.0703 615.618,-188.7891"/>
</g>
<!-- 13&#45;&gt;3 -->
<g id="edge14" class="edge">
<title>13&#45;&gt;3</title>
<path fill="none" stroke="#c0c0c0" stroke-width="2" d="M627.8173,-143.8314C618.3949,-135.1337 606.9599,-124.5783 596.7204,-115.1265"/>
<polygon fill="#c0c0c0" stroke="#c0c0c0" stroke-width="2" points="598.8984,-112.3738 589.1764,-108.1628 594.1505,-117.5175 598.8984,-112.3738"/>
</g>
<!-- 14 -->
<g id="node15" class="node">
<title>14</title>
<path fill="none" stroke="#56d87b" stroke-width="2" d="M129.5,-612C129.5,-612 99.5,-612 99.5,-612 93.5,-612 87.5,-606 87.5,-600 87.5,-600 87.5,-588 87.5,-588 87.5,-582 93.5,-576 99.5,-576 99.5,-576 129.5,-576 129.5,-576 135.5,-576 141.5,-582 141.5,-588 141.5,-588 141.5,-600 141.5,-600 141.5,-606 135.5,-612 129.5,-612"/>
<text text-anchor="middle" x="114.5" y="-591.5" font-family="sans" font-size="10.00" fill="#000000">fastqc</text>
</g>
<!-- 14&#45;&gt;4 -->
<g id="edge15" class="edge">
<title>14&#45;&gt;4</title>
<path fill="none" stroke="#c0c0c0" stroke-width="2" d="M114.5,-575.7623C114.5,-551.201 114.5,-507.2474 114.5,-478.3541"/>
<polygon fill="#c0c0c0" stroke="#c0c0c0" stroke-width="2" points="118.0001,-478.0896 114.5,-468.0896 111.0001,-478.0897 118.0001,-478.0896"/>
</g>
<!-- 15 -->
<g id="node16" class="node">
<title>15</title>
<path fill="none" stroke="#56d8d0" stroke-width="2" d="M403,-468C403,-468 322,-468 322,-468 316,-468 310,-462 310,-456 310,-456 310,-444 310,-444 310,-438 316,-432 322,-432 322,-432 403,-432 403,-432 409,-432 415,-438 415,-444 415,-444 415,-456 415,-456 415,-462 409,-468 403,-468"/>
<text text-anchor="middle" x="362.5" y="-447.5" font-family="sans" font-size="10.00" fill="#000000">picard_mark_dups</text>
</g>
<!-- 15&#45;&gt;5 -->
<g id="edge16" class="edge">
<title>15&#45;&gt;5</title>
<path fill="none" stroke="#c0c0c0" stroke-width="2" d="M339.2968,-431.8023C328.0199,-422.0835 314.9075,-409.3819 305.5,-396 275.4114,-353.1999 253.9246,-295.6149 242.9171,-261.8819"/>
<polygon fill="#c0c0c0" stroke="#c0c0c0" stroke-width="2" points="246.21,-260.6873 239.8396,-252.2216 239.5402,-262.8122 246.21,-260.6873"/>
</g>
<!-- 15&#45;&gt;7 -->
<g id="edge18" class="edge">
<title>15&#45;&gt;7</title>
<path fill="none" stroke="#c0c0c0" stroke-width="2" d="M353.1541,-431.927C348.1675,-421.6317 342.2943,-408.3572 338.5,-396 316.2837,-323.6454 304.3444,-234.8787 299.3585,-190.3397"/>
<polygon fill="#c0c0c0" stroke="#c0c0c0" stroke-width="2" points="302.8231,-189.823 298.2651,-180.2587 295.8639,-190.5778 302.8231,-189.823"/>
</g>
<!-- 15&#45;&gt;8 -->
<g id="edge19" class="edge">
<title>15&#45;&gt;8</title>
<path fill="none" stroke="#c0c0c0" stroke-width="2" d="M373.3507,-431.8314C378.2023,-423.7079 384.0217,-413.9637 389.368,-405.0118"/>
<polygon fill="#c0c0c0" stroke="#c0c0c0" stroke-width="2" points="392.3806,-406.7933 394.5032,-396.4133 386.3708,-403.2041 392.3806,-406.7933"/>
</g>
<!-- 19 -->
<g id="node20" class="node">
<title>19</title>
<path fill="none" stroke="#d89c56" stroke-width="2" d="M591,-324C591,-324 500,-324 500,-324 494,-324 488,-318 488,-312 488,-312 488,-300 488,-300 488,-294 494,-288 500,-288 500,-288 591,-288 591,-288 597,-288 603,-294 603,-300 603,-300 603,-312 603,-312 603,-318 597,-324 591,-324"/>
<text text-anchor="middle" x="545.5" y="-303.5" font-family="sans" font-size="10.00" fill="#000000">gatk_indel_realigner</text>
</g>
<!-- 15&#45;&gt;19 -->
<g id="edge32" class="edge">
<title>15&#45;&gt;19</title>
<path fill="none" stroke="#c0c0c0" stroke-width="2" d="M410.3443,-431.938C430.6904,-422.9324 453.9489,-410.7829 472.5,-396 495.0131,-378.0598 515.1651,-352.0581 528.5622,-332.6109"/>
<polygon fill="#c0c0c0" stroke="#c0c0c0" stroke-width="2" points="531.5496,-334.4406 534.2266,-324.1895 525.7412,-330.5338 531.5496,-334.4406"/>
</g>
<!-- 23 -->
<g id="node24" class="node">
<title>23</title>
<path fill="none" stroke="#ced856" stroke-width="2" d="M631,-396C631,-396 532,-396 532,-396 526,-396 520,-390 520,-384 520,-384 520,-372 520,-372 520,-366 526,-360 532,-360 532,-360 631,-360 631,-360 637,-360 643,-366 643,-372 643,-372 643,-384 643,-384 643,-390 637,-396 631,-396"/>
<text text-anchor="middle" x="581.5" y="-375.5" font-family="sans" font-size="10.00" fill="#000000">gatk_realigner_target</text>
</g>
<!-- 15&#45;&gt;23 -->
<g id="edge37" class="edge">
<title>15&#45;&gt;23</title>
<path fill="none" stroke="#c0c0c0" stroke-width="2" d="M415.2346,-432.6626C445.745,-422.6318 484.3824,-409.9291 516.7305,-399.2941"/>
<polygon fill="#c0c0c0" stroke="#c0c0c0" stroke-width="2" points="518.1451,-402.5134 526.5517,-396.0652 515.9588,-395.8635 518.1451,-402.5134"/>
</g>
<!-- 16 -->
<g id="node17" class="node">
<title>16</title>
<path fill="none" stroke="#d87556" stroke-width="2" d="M233,-612C233,-612 172,-612 172,-612 166,-612 160,-606 160,-600 160,-600 160,-588 160,-588 160,-582 166,-576 172,-576 172,-576 233,-576 233,-576 239,-576 245,-582 245,-588 245,-588 245,-600 245,-600 245,-606 239,-612 233,-612"/>
<text text-anchor="middle" x="202.5" y="-591.5" font-family="sans" font-size="10.00" fill="#000000">CoNVaDING_1</text>
</g>
<!-- 16&#45;&gt;6 -->
<g id="edge17" class="edge">
<title>16&#45;&gt;6</title>
<path fill="none" stroke="#c0c0c0" stroke-width="2" d="M201.6242,-575.9843C199.2573,-527.2939 192.7193,-392.7961 189.8639,-334.0573"/>
<polygon fill="#c0c0c0" stroke="#c0c0c0" stroke-width="2" points="193.3569,-333.8271 189.3754,-324.0089 186.3652,-334.1671 193.3569,-333.8271"/>
</g>
<!-- 17 -->
<g id="node18" class="node">
<title>17</title>
<path fill="none" stroke="#78d856" stroke-width="2" d="M240,-684C240,-684 165,-684 165,-684 159,-684 153,-678 153,-672 153,-672 153,-660 153,-660 153,-654 159,-648 165,-648 165,-648 240,-648 240,-648 246,-648 252,-654 252,-660 252,-660 252,-672 252,-672 252,-678 246,-684 240,-684"/>
<text text-anchor="middle" x="202.5" y="-669" font-family="sans" font-size="10.00" fill="#000000">merge_lane_bam</text>
<text text-anchor="middle" x="202.5" y="-658" font-family="sans" font-size="10.00" fill="#000000">sample: G05050</text>
</g>
<!-- 17&#45;&gt;9 -->
<g id="edge20" class="edge">
<title>17&#45;&gt;9</title>
<path fill="none" stroke="#c0c0c0" stroke-width="2" d="M152.9273,-654.0247C127.8857,-645.7958 98.6277,-632.5481 78.5,-612 48.2365,-581.1044 41.5,-565.2483 41.5,-522 41.5,-522 41.5,-522 41.5,-378 41.5,-337.876 41.5,-291.4631 41.5,-262.4177"/>
<polygon fill="#c0c0c0" stroke="#c0c0c0" stroke-width="2" points="45.0001,-262.1853 41.5,-252.1854 38.0001,-262.1854 45.0001,-262.1853"/>
</g>
<!-- 17&#45;&gt;14 -->
<g id="edge27" class="edge">
<title>17&#45;&gt;14</title>
<path fill="none" stroke="#c0c0c0" stroke-width="2" d="M180.2939,-647.8314C169.455,-638.9632 156.2556,-628.1637 144.5322,-618.5718"/>
<polygon fill="#c0c0c0" stroke="#c0c0c0" stroke-width="2" points="146.655,-615.7864 136.699,-612.1628 142.2223,-621.2041 146.655,-615.7864"/>
</g>
<!-- 17&#45;&gt;16 -->
<g id="edge29" class="edge">
<title>17&#45;&gt;16</title>
<path fill="none" stroke="#c0c0c0" stroke-width="2" d="M202.5,-647.8314C202.5,-640.131 202.5,-630.9743 202.5,-622.4166"/>
<polygon fill="#c0c0c0" stroke="#c0c0c0" stroke-width="2" points="206.0001,-622.4132 202.5,-612.4133 199.0001,-622.4133 206.0001,-622.4132"/>
</g>
<!-- 24 -->
<g id="node25" class="node">
<title>24</title>
<path fill="none" stroke="#d8bc56" stroke-width="2" d="M357.5,-612C357.5,-612 277.5,-612 277.5,-612 271.5,-612 265.5,-606 265.5,-600 265.5,-600 265.5,-588 265.5,-588 265.5,-582 271.5,-576 277.5,-576 277.5,-576 357.5,-576 357.5,-576 363.5,-576 369.5,-582 369.5,-588 369.5,-588 369.5,-600 369.5,-600 369.5,-606 363.5,-612 357.5,-612"/>
<text text-anchor="middle" x="317.5" y="-591.5" font-family="sans" font-size="10.00" fill="#000000">picard_clean_sam</text>
</g>
<!-- 17&#45;&gt;24 -->
<g id="edge38" class="edge">
<title>17&#45;&gt;24</title>
<path fill="none" stroke="#c0c0c0" stroke-width="2" d="M231.5194,-647.8314C246.2286,-638.6221 264.2644,-627.3301 280.0122,-617.4706"/>
<polygon fill="#c0c0c0" stroke="#c0c0c0" stroke-width="2" points="281.8714,-620.436 288.4899,-612.1628 278.1567,-614.5029 281.8714,-620.436"/>
</g>
<!-- 18 -->
<g id="node19" class="node">
<title>18</title>
<path fill="none" stroke="#56d8a9" stroke-width="2" d="M653,-540C653,-540 542,-540 542,-540 536,-540 530,-534 530,-528 530,-528 530,-516 530,-516 530,-510 536,-504 542,-504 542,-504 653,-504 653,-504 659,-504 665,-510 665,-516 665,-516 665,-528 665,-528 665,-534 659,-540 653,-540"/>
<text text-anchor="middle" x="597.5" y="-519.5" font-family="sans" font-size="10.00" fill="#000000">picard_mark_dups_hg19</text>
</g>
<!-- 18&#45;&gt;10 -->
<g id="edge21" class="edge">
<title>18&#45;&gt;10</title>
<path fill="none" stroke="#c0c0c0" stroke-width="2" d="M614.1546,-503.8314C621.9114,-495.3694 631.2802,-485.1489 639.761,-475.8971"/>
<polygon fill="#c0c0c0" stroke="#c0c0c0" stroke-width="2" points="642.4439,-478.1499 646.6212,-468.4133 637.2838,-473.4198 642.4439,-478.1499"/>
</g>
<!-- 19&#45;&gt;11 -->
<g id="edge22" class="edge">
<title>19&#45;&gt;11</title>
<path fill="none" stroke="#c0c0c0" stroke-width="2" d="M512.7205,-287.8041C498.5137,-278.5925 482.6227,-266.3181 471.5,-252 457.2143,-233.6102 447.8541,-208.8055 442.2685,-189.8937"/>
<polygon fill="#c0c0c0" stroke="#c0c0c0" stroke-width="2" points="445.5901,-188.7736 439.5465,-180.0716 438.8444,-190.6431 445.5901,-188.7736"/>
</g>
<!-- 19&#45;&gt;12 -->
<g id="edge24" class="edge">
<title>19&#45;&gt;12</title>
<path fill="none" stroke="#c0c0c0" stroke-width="2" d="M545.5,-287.8314C545.5,-280.131 545.5,-270.9743 545.5,-262.4166"/>
<polygon fill="#c0c0c0" stroke="#c0c0c0" stroke-width="2" points="549.0001,-262.4132 545.5,-252.4133 542.0001,-262.4133 549.0001,-262.4132"/>
</g>
<!-- 19&#45;&gt;13 -->
<g id="edge25" class="edge">
<title>19&#45;&gt;13</title>
<path fill="none" stroke="#c0c0c0" stroke-width="2" d="M579.1856,-287.9576C593.3996,-278.8504 609.0431,-266.6162 619.5,-252 632.6141,-233.6696 639.722,-209.0113 643.4904,-190.1403"/>
<polygon fill="#c0c0c0" stroke="#c0c0c0" stroke-width="2" points="646.978,-190.5209 645.3005,-180.0597 640.0882,-189.2837 646.978,-190.5209"/>
</g>
<!-- 20 -->
<g id="node21" class="node">
<title>20</title>
<path fill="none" stroke="#9fd856" stroke-width="2" d="M405,-540C405,-540 274,-540 274,-540 268,-540 262,-534 262,-528 262,-528 262,-516 262,-516 262,-510 268,-504 274,-504 274,-504 405,-504 405,-504 411,-504 417,-510 417,-516 417,-516 417,-528 417,-528 417,-534 411,-540 405,-540"/>
<text text-anchor="middle" x="339.5" y="-519.5" font-family="sans" font-size="10.00" fill="#000000">picard_fix_mate_information</text>
</g>
<!-- 20&#45;&gt;15 -->
<g id="edge28" class="edge">
<title>20&#45;&gt;15</title>
<path fill="none" stroke="#c0c0c0" stroke-width="2" d="M345.3039,-503.8314C347.7908,-496.0463 350.7531,-486.7729 353.5125,-478.1347"/>
<polygon fill="#c0c0c0" stroke="#c0c0c0" stroke-width="2" points="356.909,-479.0041 356.618,-468.4133 350.2409,-476.874 356.909,-479.0041"/>
</g>
<!-- 21 -->
<g id="node22" class="node">
<title>21</title>
<path fill="none" stroke="#56d8c1" stroke-width="2" d="M243.5,-756C243.5,-756 213.5,-756 213.5,-756 207.5,-756 201.5,-750 201.5,-744 201.5,-744 201.5,-732 201.5,-732 201.5,-726 207.5,-720 213.5,-720 213.5,-720 243.5,-720 243.5,-720 249.5,-720 255.5,-726 255.5,-732 255.5,-732 255.5,-744 255.5,-744 255.5,-750 249.5,-756 243.5,-756"/>
<text text-anchor="middle" x="228.5" y="-735.5" font-family="sans" font-size="10.00" fill="#000000">align</text>
</g>
<!-- 21&#45;&gt;17 -->
<g id="edge30" class="edge">
<title>21&#45;&gt;17</title>
<path fill="none" stroke="#c0c0c0" stroke-width="2" d="M221.9391,-719.8314C219.0973,-711.9617 215.7063,-702.5712 212.5581,-693.8533"/>
<polygon fill="#c0c0c0" stroke="#c0c0c0" stroke-width="2" points="215.8377,-692.63 209.1492,-684.4133 209.2538,-695.0076 215.8377,-692.63"/>
</g>
<!-- 22 -->
<g id="node23" class="node">
<title>22</title>
<path fill="none" stroke="#56d86b" stroke-width="2" d="M417,-684C417,-684 312,-684 312,-684 306,-684 300,-678 300,-672 300,-672 300,-660 300,-660 300,-654 306,-648 312,-648 312,-648 417,-648 417,-648 423,-648 429,-654 429,-660 429,-660 429,-672 429,-672 429,-678 423,-684 417,-684"/>
<text text-anchor="middle" x="364.5" y="-669" font-family="sans" font-size="10.00" fill="#000000">merge_lane_bam_hg19</text>
<text text-anchor="middle" x="364.5" y="-658" font-family="sans" font-size="10.00" fill="#000000">sample: G05050</text>
</g>
<!-- 22&#45;&gt;18 -->
<g id="edge31" class="edge">
<title>22&#45;&gt;18</title>
<path fill="none" stroke="#c0c0c0" stroke-width="2" d="M394.0096,-647.7623C436.1146,-621.7404 513.4406,-573.9508 559.6923,-545.3661"/>
<polygon fill="#c0c0c0" stroke="#c0c0c0" stroke-width="2" points="561.5635,-548.3242 568.23,-540.0896 557.8834,-542.3696 561.5635,-548.3242"/>
</g>
<!-- 23&#45;&gt;19 -->
<g id="edge33" class="edge">
<title>23&#45;&gt;19</title>
<path fill="none" stroke="#c0c0c0" stroke-width="2" d="M572.4157,-359.8314C568.4385,-351.8771 563.6845,-342.369 559.2861,-333.5723"/>
<polygon fill="#c0c0c0" stroke="#c0c0c0" stroke-width="2" points="562.3093,-331.7923 554.7066,-324.4133 556.0483,-334.9228 562.3093,-331.7923"/>
</g>
<!-- 24&#45;&gt;20 -->
<g id="edge34" class="edge">
<title>24&#45;&gt;20</title>
<path fill="none" stroke="#c0c0c0" stroke-width="2" d="M323.0515,-575.8314C325.4303,-568.0463 328.2638,-558.7729 330.9033,-550.1347"/>
<polygon fill="#c0c0c0" stroke="#c0c0c0" stroke-width="2" points="334.2987,-550.9996 333.8737,-540.4133 327.6042,-548.954 334.2987,-550.9996"/>
</g>
<!-- 25 -->
<g id="node26" class="node">
<title>25</title>
<path fill="none" stroke="#68d856" stroke-width="2" d="M321.5,-828C321.5,-828 215.5,-828 215.5,-828 209.5,-828 203.5,-822 203.5,-816 203.5,-816 203.5,-804 203.5,-804 203.5,-798 209.5,-792 215.5,-792 215.5,-792 321.5,-792 321.5,-792 327.5,-792 333.5,-798 333.5,-804 333.5,-804 333.5,-816 333.5,-816 333.5,-822 327.5,-828 321.5,-828"/>
<text text-anchor="middle" x="268.5" y="-813" font-family="sans" font-size="10.00" fill="#000000">trim_adatpor</text>
<text text-anchor="middle" x="268.5" y="-802" font-family="sans" font-size="10.00" fill="#000000">lane: G05050_S9_L001</text>
</g>
<!-- 25&#45;&gt;21 -->
<g id="edge35" class="edge">
<title>25&#45;&gt;21</title>
<path fill="none" stroke="#c0c0c0" stroke-width="2" d="M258.4063,-791.8314C253.9403,-783.7925 248.5925,-774.1666 243.6621,-765.2918"/>
<polygon fill="#c0c0c0" stroke="#c0c0c0" stroke-width="2" points="246.6456,-763.4551 238.7296,-756.4133 240.5265,-766.8546 246.6456,-763.4551"/>
</g>
<!-- 26 -->
<g id="node27" class="node">
<title>26</title>
<path fill="none" stroke="#d8ac56" stroke-width="2" d="M344,-756C344,-756 299,-756 299,-756 293,-756 287,-750 287,-744 287,-744 287,-732 287,-732 287,-726 293,-720 299,-720 299,-720 344,-720 344,-720 350,-720 356,-726 356,-732 356,-732 356,-744 356,-744 356,-750 350,-756 344,-756"/>
<text text-anchor="middle" x="321.5" y="-735.5" font-family="sans" font-size="10.00" fill="#000000">align_hg19</text>
</g>
<!-- 25&#45;&gt;26 -->
<g id="edge39" class="edge">
<title>25&#45;&gt;26</title>
<path fill="none" stroke="#c0c0c0" stroke-width="2" d="M281.8741,-791.8314C287.9162,-783.6232 295.1763,-773.7606 301.8221,-764.7323"/>
<polygon fill="#c0c0c0" stroke="#c0c0c0" stroke-width="2" points="304.8363,-766.5415 307.9458,-756.4133 299.1989,-762.3918 304.8363,-766.5415"/>
</g>
<!-- 26&#45;&gt;22 -->
<g id="edge36" class="edge">
<title>26&#45;&gt;22</title>
<path fill="none" stroke="#c0c0c0" stroke-width="2" d="M332.3507,-719.8314C337.2023,-711.7079 343.0217,-701.9637 348.368,-693.0118"/>
<polygon fill="#c0c0c0" stroke="#c0c0c0" stroke-width="2" points="351.3806,-694.7933 353.5032,-684.4133 345.3708,-691.2041 351.3806,-694.7933"/>
</g>
</g>
</svg>
