<?xml version="1.0" encoding="UTF-8" standalone="no"?>
<!DOCTYPE svg PUBLIC "-//W3C//DTD SVG 1.1//EN"
 "http://www.w3.org/Graphics/SVG/1.1/DTD/svg11.dtd">
<!-- Generated by graphviz version 2.40.1 (20161225.0304)
 -->
<!-- Title: snakemake_dag Pages: 1 -->
<svg width="541pt" height="836pt"
 viewBox="0.00 0.00 540.55 836.00" xmlns="http://www.w3.org/2000/svg" xmlns:xlink="http://www.w3.org/1999/xlink">
<g id="graph0" class="graph" transform="scale(1 1) rotate(0) translate(4 832)">
<title>snakemake_dag</title>
<polygon fill="#ffffff" stroke="transparent" points="-4,4 -4,-832 536.5461,-832 536.5461,4 -4,4"/>
<!-- 0 -->
<g id="node1" class="node">
<title>0</title>
<path fill="none" stroke="#5682d8" stroke-width="2" d="M215.5,-36C215.5,-36 185.5,-36 185.5,-36 179.5,-36 173.5,-30 173.5,-24 173.5,-24 173.5,-12 173.5,-12 173.5,-6 179.5,0 185.5,0 185.5,0 215.5,0 215.5,0 221.5,0 227.5,-6 227.5,-12 227.5,-12 227.5,-24 227.5,-24 227.5,-30 221.5,-36 215.5,-36"/>
<text text-anchor="middle" x="200.5" y="-15.5" font-family="sans" font-size="10.00" fill="#000000">all</text>
</g>
<!-- 1 -->
<g id="node2" class="node">
<title>1</title>
<path fill="none" stroke="#56d863" stroke-width="2" d="M510,-324C510,-324 471,-324 471,-324 465,-324 459,-318 459,-312 459,-312 459,-300 459,-300 459,-294 465,-288 471,-288 471,-288 510,-288 510,-288 516,-288 522,-294 522,-300 522,-300 522,-312 522,-312 522,-318 516,-324 510,-324"/>
<text text-anchor="middle" x="490.5" y="-303.5" font-family="sans" font-size="10.00" fill="#000000">mvCREST</text>
</g>
<!-- 1&#45;&gt;0 -->
<g id="edge1" class="edge">
<title>1&#45;&gt;0</title>
<path fill="none" stroke="#c0c0c0" stroke-width="2" d="M501.4135,-287.8634C518.6433,-256.6706 547.7256,-191.629 522.5,-144 495.8447,-93.6716 468.4826,-95.2651 416.5,-72 356.8897,-45.3211 281.8786,-30.3363 237.7599,-23.2305"/>
<polygon fill="#c0c0c0" stroke="#c0c0c0" stroke-width="2" points="238.1886,-19.7551 227.7685,-21.6714 237.1094,-26.6714 238.1886,-19.7551"/>
</g>
<!-- 2 -->
<g id="node3" class="node">
<title>2</title>
<path fill="none" stroke="#88d856" stroke-width="2" d="M297,-108C297,-108 196,-108 196,-108 190,-108 184,-102 184,-96 184,-96 184,-84 184,-84 184,-78 190,-72 196,-72 196,-72 297,-72 297,-72 303,-72 309,-78 309,-84 309,-84 309,-96 309,-96 309,-102 303,-108 297,-108"/>
<text text-anchor="middle" x="246.5" y="-87.5" font-family="sans" font-size="10.00" fill="#000000">gatk_haplotype_caller</text>
</g>
<!-- 2&#45;&gt;0 -->
<g id="edge2" class="edge">
<title>2&#45;&gt;0</title>
<path fill="none" stroke="#c0c0c0" stroke-width="2" d="M234.8923,-71.8314C229.7022,-63.7079 223.4768,-53.9637 217.7575,-45.0118"/>
<polygon fill="#c0c0c0" stroke="#c0c0c0" stroke-width="2" points="220.5974,-42.9559 212.264,-36.4133 214.6985,-46.7246 220.5974,-42.9559"/>
</g>
<!-- 3 -->
<g id="node4" class="node">
<title>3</title>
<path fill="none" stroke="#d87d56" stroke-width="2" d="M395.5,-108C395.5,-108 339.5,-108 339.5,-108 333.5,-108 327.5,-102 327.5,-96 327.5,-96 327.5,-84 327.5,-84 327.5,-78 333.5,-72 339.5,-72 339.5,-72 395.5,-72 395.5,-72 401.5,-72 407.5,-78 407.5,-84 407.5,-84 407.5,-96 407.5,-96 407.5,-102 401.5,-108 395.5,-108"/>
<text text-anchor="middle" x="367.5" y="-87.5" font-family="sans" font-size="10.00" fill="#000000">multiqc_gatk</text>
</g>
<!-- 3&#45;&gt;0 -->
<g id="edge3" class="edge">
<title>3&#45;&gt;0</title>
<path fill="none" stroke="#c0c0c0" stroke-width="2" d="M327.4993,-72.7542C299.9982,-60.8974 263.763,-45.2751 237.0384,-33.7531"/>
<polygon fill="#c0c0c0" stroke="#c0c0c0" stroke-width="2" points="238.2252,-30.4533 227.6566,-29.7082 235.4538,-36.8814 238.2252,-30.4533"/>
</g>
<!-- 4 -->
<g id="node5" class="node">
<title>4</title>
<path fill="none" stroke="#56d8b1" stroke-width="2" d="M77,-252C77,-252 12,-252 12,-252 6,-252 0,-246 0,-240 0,-240 0,-228 0,-228 0,-222 6,-216 12,-216 12,-216 77,-216 77,-216 83,-216 89,-222 89,-228 89,-228 89,-240 89,-240 89,-246 83,-252 77,-252"/>
<text text-anchor="middle" x="44.5" y="-231.5" font-family="sans" font-size="10.00" fill="#000000">multiqc_fastqc</text>
</g>
<!-- 4&#45;&gt;0 -->
<g id="edge4" class="edge">
<title>4&#45;&gt;0</title>
<path fill="none" stroke="#c0c0c0" stroke-width="2" d="M46.8848,-215.8782C51.9739,-183.5502 66.6003,-115.2752 103.5,-72 119.4777,-53.2616 143.6683,-39.7767 163.894,-30.9689"/>
<polygon fill="#c0c0c0" stroke="#c0c0c0" stroke-width="2" points="165.2563,-34.193 173.1568,-27.1338 162.5785,-27.7254 165.2563,-34.193"/>
</g>
<!-- 5 -->
<g id="node6" class="node">
<title>5</title>
<path fill="none" stroke="#d8bc56" stroke-width="2" d="M151,-468C151,-468 90,-468 90,-468 84,-468 78,-462 78,-456 78,-456 78,-444 78,-444 78,-438 84,-432 90,-432 90,-432 151,-432 151,-432 157,-432 163,-438 163,-444 163,-444 163,-456 163,-456 163,-462 157,-468 151,-468"/>
<text text-anchor="middle" x="120.5" y="-447.5" font-family="sans" font-size="10.00" fill="#000000">CoNVaDING_2</text>
</g>
<!-- 5&#45;&gt;0 -->
<g id="edge5" class="edge">
<title>5&#45;&gt;0</title>
<path fill="none" stroke="#c0c0c0" stroke-width="2" d="M119.8784,-431.8172C118.9997,-404.504 117.5,-351.2598 117.5,-306 117.5,-306 117.5,-306 117.5,-162 117.5,-115.5145 150.3683,-70.51 174.7376,-43.5311"/>
<polygon fill="#c0c0c0" stroke="#c0c0c0" stroke-width="2" points="177.4167,-45.7898 181.666,-36.0844 172.2918,-41.0215 177.4167,-45.7898"/>
</g>
<!-- 6 -->
<g id="node7" class="node">
<title>6</title>
<path fill="none" stroke="#56d0d8" stroke-width="2" d="M200,-396C200,-396 159,-396 159,-396 153,-396 147,-390 147,-384 147,-384 147,-372 147,-372 147,-366 153,-360 159,-360 159,-360 200,-360 200,-360 206,-360 212,-366 212,-372 212,-372 212,-384 212,-384 212,-390 206,-396 200,-396"/>
<text text-anchor="middle" x="179.5" y="-375.5" font-family="sans" font-size="10.00" fill="#000000">freebayes</text>
</g>
<!-- 6&#45;&gt;0 -->
<g id="edge6" class="edge">
<title>6&#45;&gt;0</title>
<path fill="none" stroke="#c0c0c0" stroke-width="2" d="M174.5272,-359.9753C167.4974,-332.864 155.5,-279.8742 155.5,-234 155.5,-234 155.5,-234 155.5,-162 155.5,-121.1184 161.3149,-110.697 174.5,-72 177.5722,-62.9835 181.772,-53.5101 185.9001,-45.0596"/>
<polygon fill="#c0c0c0" stroke="#c0c0c0" stroke-width="2" points="189.0758,-46.5354 190.4665,-36.0323 182.8295,-43.3758 189.0758,-46.5354"/>
</g>
<!-- 7 -->
<g id="node8" class="node">
<title>7</title>
<path fill="none" stroke="#d8d356" stroke-width="2" d="M457.5,-468C457.5,-468 427.5,-468 427.5,-468 421.5,-468 415.5,-462 415.5,-456 415.5,-456 415.5,-444 415.5,-444 415.5,-438 421.5,-432 427.5,-432 427.5,-432 457.5,-432 457.5,-432 463.5,-432 469.5,-438 469.5,-444 469.5,-444 469.5,-456 469.5,-456 469.5,-462 463.5,-468 457.5,-468"/>
<text text-anchor="middle" x="442.5" y="-447.5" font-family="sans" font-size="10.00" fill="#000000">CREST</text>
</g>
<!-- 7&#45;&gt;1 -->
<g id="edge7" class="edge">
<title>7&#45;&gt;1</title>
<path fill="none" stroke="#c0c0c0" stroke-width="2" d="M448.5792,-431.7623C456.8385,-406.9846 471.6762,-362.4714 481.302,-333.5939"/>
<polygon fill="#c0c0c0" stroke="#c0c0c0" stroke-width="2" points="484.6282,-334.6833 484.4701,-324.0896 477.9874,-332.4696 484.6282,-334.6833"/>
</g>
<!-- 8 -->
<g id="node9" class="node">
<title>8</title>
<path fill="none" stroke="#56d873" stroke-width="2" d="M271.5,-180C271.5,-180 195.5,-180 195.5,-180 189.5,-180 183.5,-174 183.5,-168 183.5,-168 183.5,-156 183.5,-156 183.5,-150 189.5,-144 195.5,-144 195.5,-144 271.5,-144 271.5,-144 277.5,-144 283.5,-150 283.5,-156 283.5,-156 283.5,-168 283.5,-168 283.5,-174 277.5,-180 271.5,-180"/>
<text text-anchor="middle" x="233.5" y="-159.5" font-family="sans" font-size="10.00" fill="#000000">gatk_print_reads</text>
</g>
<!-- 8&#45;&gt;2 -->
<g id="edge8" class="edge">
<title>8&#45;&gt;2</title>
<path fill="none" stroke="#c0c0c0" stroke-width="2" d="M236.7804,-143.8314C238.1708,-136.131 239.8241,-126.9743 241.3692,-118.4166"/>
<polygon fill="#c0c0c0" stroke="#c0c0c0" stroke-width="2" points="244.8428,-118.8761 243.1754,-108.4133 237.9542,-117.6322 244.8428,-118.8761"/>
</g>
<!-- 9 -->
<g id="node10" class="node">
<title>9</title>
<path fill="none" stroke="#566bd8" stroke-width="2" d="M382.5,-252C382.5,-252 276.5,-252 276.5,-252 270.5,-252 264.5,-246 264.5,-240 264.5,-240 264.5,-228 264.5,-228 264.5,-222 270.5,-216 276.5,-216 276.5,-216 382.5,-216 382.5,-216 388.5,-216 394.5,-222 394.5,-228 394.5,-228 394.5,-240 394.5,-240 394.5,-246 388.5,-252 382.5,-252"/>
<text text-anchor="middle" x="329.5" y="-231.5" font-family="sans" font-size="10.00" fill="#000000">gatk_base_recalibrator</text>
</g>
<!-- 9&#45;&gt;2 -->
<g id="edge9" class="edge">
<title>9&#45;&gt;2</title>
<path fill="none" stroke="#c0c0c0" stroke-width="2" d="M323.9631,-215.958C317.7843,-197.1981 306.7538,-167.3633 292.5,-144 286.57,-134.2802 278.9236,-124.5379 271.574,-116.0571"/>
<polygon fill="#c0c0c0" stroke="#c0c0c0" stroke-width="2" points="273.9597,-113.4744 264.684,-108.3544 268.7423,-118.1412 273.9597,-113.4744"/>
</g>
<!-- 9&#45;&gt;3 -->
<g id="edge10" class="edge">
<title>9&#45;&gt;3</title>
<path fill="none" stroke="#c0c0c0" stroke-width="2" d="M334.3127,-215.7623C340.8227,-191.0928 352.4953,-146.8598 360.1182,-117.9731"/>
<polygon fill="#c0c0c0" stroke="#c0c0c0" stroke-width="2" points="363.5589,-118.6517 362.7264,-108.0896 356.7906,-116.8656 363.5589,-118.6517"/>
</g>
<!-- 9&#45;&gt;8 -->
<g id="edge17" class="edge">
<title>9&#45;&gt;8</title>
<path fill="none" stroke="#c0c0c0" stroke-width="2" d="M305.2751,-215.8314C293.3372,-206.8779 278.7744,-195.9558 265.894,-186.2955"/>
<polygon fill="#c0c0c0" stroke="#c0c0c0" stroke-width="2" points="267.8171,-183.3629 257.7171,-180.1628 263.6171,-188.9629 267.8171,-183.3629"/>
</g>
<!-- 10 -->
<g id="node11" class="node">
<title>10</title>
<path fill="none" stroke="#5692d8" stroke-width="2" d="M501.5,-180C501.5,-180 389.5,-180 389.5,-180 383.5,-180 377.5,-174 377.5,-168 377.5,-168 377.5,-156 377.5,-156 377.5,-150 383.5,-144 389.5,-144 389.5,-144 501.5,-144 501.5,-144 507.5,-144 513.5,-150 513.5,-156 513.5,-156 513.5,-168 513.5,-168 513.5,-174 507.5,-180 501.5,-180"/>
<text text-anchor="middle" x="445.5" y="-159.5" font-family="sans" font-size="10.00" fill="#000000">gatk_base_recalibrator2</text>
</g>
<!-- 9&#45;&gt;10 -->
<g id="edge20" class="edge">
<title>9&#45;&gt;10</title>
<path fill="none" stroke="#c0c0c0" stroke-width="2" d="M358.7717,-215.8314C373.6088,-206.6221 391.8015,-195.3301 407.6862,-185.4706"/>
<polygon fill="#c0c0c0" stroke="#c0c0c0" stroke-width="2" points="409.587,-188.4102 416.2377,-180.1628 405.8955,-182.4628 409.587,-188.4102"/>
</g>
<!-- 10&#45;&gt;3 -->
<g id="edge11" class="edge">
<title>10&#45;&gt;3</title>
<path fill="none" stroke="#c0c0c0" stroke-width="2" d="M425.8173,-143.8314C416.3949,-135.1337 404.9599,-124.5783 394.7204,-115.1265"/>
<polygon fill="#c0c0c0" stroke="#c0c0c0" stroke-width="2" points="396.8984,-112.3738 387.1764,-108.1628 392.1505,-117.5175 396.8984,-112.3738"/>
</g>
<!-- 11 -->
<g id="node12" class="node">
<title>11</title>
<path fill="none" stroke="#d89556" stroke-width="2" d="M55.5,-612C55.5,-612 25.5,-612 25.5,-612 19.5,-612 13.5,-606 13.5,-600 13.5,-600 13.5,-588 13.5,-588 13.5,-582 19.5,-576 25.5,-576 25.5,-576 55.5,-576 55.5,-576 61.5,-576 67.5,-582 67.5,-588 67.5,-588 67.5,-600 67.5,-600 67.5,-606 61.5,-612 55.5,-612"/>
<text text-anchor="middle" x="40.5" y="-591.5" font-family="sans" font-size="10.00" fill="#000000">fastqc</text>
</g>
<!-- 11&#45;&gt;4 -->
<g id="edge12" class="edge">
<title>11&#45;&gt;4</title>
<path fill="none" stroke="#c0c0c0" stroke-width="2" d="M40.7072,-575.8149C41.0001,-548.4989 41.5,-495.2511 41.5,-450 41.5,-450 41.5,-450 41.5,-378 41.5,-337.8673 42.6792,-291.4566 43.5589,-262.414"/>
<polygon fill="#c0c0c0" stroke="#c0c0c0" stroke-width="2" points="47.0645,-262.2872 43.8784,-252.1828 40.0679,-262.0687 47.0645,-262.2872"/>
</g>
<!-- 12 -->
<g id="node13" class="node">
<title>12</title>
<path fill="none" stroke="#b6d856" stroke-width="2" d="M159,-612C159,-612 98,-612 98,-612 92,-612 86,-606 86,-600 86,-600 86,-588 86,-588 86,-582 92,-576 98,-576 98,-576 159,-576 159,-576 165,-576 171,-582 171,-588 171,-588 171,-600 171,-600 171,-606 165,-612 159,-612"/>
<text text-anchor="middle" x="128.5" y="-591.5" font-family="sans" font-size="10.00" fill="#000000">CoNVaDING_1</text>
</g>
<!-- 12&#45;&gt;5 -->
<g id="edge13" class="edge">
<title>12&#45;&gt;5</title>
<path fill="none" stroke="#c0c0c0" stroke-width="2" d="M127.4868,-575.7623C126.1223,-551.201 123.6804,-507.2474 122.0752,-478.3541"/>
<polygon fill="#c0c0c0" stroke="#c0c0c0" stroke-width="2" points="125.5544,-477.88 121.505,-468.0896 118.5652,-478.2684 125.5544,-477.88"/>
</g>
<!-- 13 -->
<g id="node14" class="node">
<title>13</title>
<path fill="none" stroke="#56d8a2" stroke-width="2" d="M282,-468C282,-468 201,-468 201,-468 195,-468 189,-462 189,-456 189,-456 189,-444 189,-444 189,-438 195,-432 201,-432 201,-432 282,-432 282,-432 288,-432 294,-438 294,-444 294,-444 294,-456 294,-456 294,-462 288,-468 282,-468"/>
<text text-anchor="middle" x="241.5" y="-447.5" font-family="sans" font-size="10.00" fill="#000000">picard_mark_dups</text>
</g>
<!-- 13&#45;&gt;6 -->
<g id="edge14" class="edge">
<title>13&#45;&gt;6</title>
<path fill="none" stroke="#c0c0c0" stroke-width="2" d="M225.8548,-431.8314C218.6409,-423.454 209.943,-413.3531 202.0395,-404.1749"/>
<polygon fill="#c0c0c0" stroke="#c0c0c0" stroke-width="2" points="204.5333,-401.7071 195.3559,-396.4133 199.2289,-406.2748 204.5333,-401.7071"/>
</g>
<!-- 15 -->
<g id="node16" class="node">
<title>15</title>
<path fill="none" stroke="#56d88a" stroke-width="2" d="M375,-324C375,-324 284,-324 284,-324 278,-324 272,-318 272,-312 272,-312 272,-300 272,-300 272,-294 278,-288 284,-288 284,-288 375,-288 375,-288 381,-288 387,-294 387,-300 387,-300 387,-312 387,-312 387,-318 381,-324 375,-324"/>
<text text-anchor="middle" x="329.5" y="-303.5" font-family="sans" font-size="10.00" fill="#000000">gatk_indel_realigner</text>
</g>
<!-- 13&#45;&gt;15 -->
<g id="edge25" class="edge">
<title>13&#45;&gt;15</title>
<path fill="none" stroke="#c0c0c0" stroke-width="2" d="M241.477,-431.7338C242.2496,-412.52 245.8013,-382.0669 259.5,-360 266.7249,-348.3615 277.4203,-338.2748 288.2881,-330.0723"/>
<polygon fill="#c0c0c0" stroke="#c0c0c0" stroke-width="2" points="290.4599,-332.8226 296.5778,-324.1727 286.401,-327.1195 290.4599,-332.8226"/>
</g>
<!-- 19 -->
<g id="node20" class="node">
<title>19</title>
<path fill="none" stroke="#78d856" stroke-width="2" d="M380,-396C380,-396 281,-396 281,-396 275,-396 269,-390 269,-384 269,-384 269,-372 269,-372 269,-366 275,-360 281,-360 281,-360 380,-360 380,-360 386,-360 392,-366 392,-372 392,-372 392,-384 392,-384 392,-390 386,-396 380,-396"/>
<text text-anchor="middle" x="330.5" y="-375.5" font-family="sans" font-size="10.00" fill="#000000">gatk_realigner_target</text>
</g>
<!-- 13&#45;&gt;19 -->
<g id="edge30" class="edge">
<title>13&#45;&gt;19</title>
<path fill="none" stroke="#c0c0c0" stroke-width="2" d="M263.9585,-431.8314C274.9205,-422.9632 288.2699,-412.1637 300.1265,-402.5718"/>
<polygon fill="#c0c0c0" stroke="#c0c0c0" stroke-width="2" points="302.4755,-405.1734 308.0487,-396.1628 298.0729,-399.7313 302.4755,-405.1734"/>
</g>
<!-- 14 -->
<g id="node15" class="node">
<title>14</title>
<path fill="none" stroke="#d8ac56" stroke-width="2" d="M480,-540C480,-540 369,-540 369,-540 363,-540 357,-534 357,-528 357,-528 357,-516 357,-516 357,-510 363,-504 369,-504 369,-504 480,-504 480,-504 486,-504 492,-510 492,-516 492,-516 492,-528 492,-528 492,-534 486,-540 480,-540"/>
<text text-anchor="middle" x="424.5" y="-519.5" font-family="sans" font-size="10.00" fill="#000000">picard_mark_dups_hg19</text>
</g>
<!-- 14&#45;&gt;7 -->
<g id="edge15" class="edge">
<title>14&#45;&gt;7</title>
<path fill="none" stroke="#c0c0c0" stroke-width="2" d="M429.0422,-503.8314C430.9884,-496.0463 433.3068,-486.7729 435.4663,-478.1347"/>
<polygon fill="#c0c0c0" stroke="#c0c0c0" stroke-width="2" points="438.8668,-478.9636 437.8967,-468.4133 432.0758,-477.2658 438.8668,-478.9636"/>
</g>
<!-- 15&#45;&gt;8 -->
<g id="edge16" class="edge">
<title>15&#45;&gt;8</title>
<path fill="none" stroke="#c0c0c0" stroke-width="2" d="M294.6262,-287.7703C280.5396,-278.7688 265.3228,-266.6684 255.5,-252 243.1728,-233.5917 237.7419,-208.9392 235.3549,-190.0904"/>
<polygon fill="#c0c0c0" stroke="#c0c0c0" stroke-width="2" points="238.8229,-189.6021 234.2947,-180.0237 231.8614,-190.3354 238.8229,-189.6021"/>
</g>
<!-- 15&#45;&gt;9 -->
<g id="edge18" class="edge">
<title>15&#45;&gt;9</title>
<path fill="none" stroke="#c0c0c0" stroke-width="2" d="M329.5,-287.8314C329.5,-280.131 329.5,-270.9743 329.5,-262.4166"/>
<polygon fill="#c0c0c0" stroke="#c0c0c0" stroke-width="2" points="333.0001,-262.4132 329.5,-252.4133 326.0001,-262.4133 333.0001,-262.4132"/>
</g>
<!-- 15&#45;&gt;10 -->
<g id="edge19" class="edge">
<title>15&#45;&gt;10</title>
<path fill="none" stroke="#c0c0c0" stroke-width="2" d="M361.1706,-287.996C375.485,-278.669 391.7778,-266.246 403.5,-252 418.7302,-233.4906 429.8045,-208.5441 436.7454,-189.6098"/>
<polygon fill="#c0c0c0" stroke="#c0c0c0" stroke-width="2" points="440.0892,-190.6506 440.0873,-180.0558 433.4818,-188.3394 440.0892,-190.6506"/>
</g>
<!-- 16 -->
<g id="node17" class="node">
<title>16</title>
<path fill="none" stroke="#9fd856" stroke-width="2" d="M196,-684C196,-684 121,-684 121,-684 115,-684 109,-678 109,-672 109,-672 109,-660 109,-660 109,-654 115,-648 121,-648 121,-648 196,-648 196,-648 202,-648 208,-654 208,-660 208,-660 208,-672 208,-672 208,-678 202,-684 196,-684"/>
<text text-anchor="middle" x="158.5" y="-669" font-family="sans" font-size="10.00" fill="#000000">merge_lane_bam</text>
<text text-anchor="middle" x="158.5" y="-658" font-family="sans" font-size="10.00" fill="#000000">sample: G05050</text>
</g>
<!-- 16&#45;&gt;11 -->
<g id="edge21" class="edge">
<title>16&#45;&gt;11</title>
<path fill="none" stroke="#c0c0c0" stroke-width="2" d="M128.7236,-647.8314C112.9394,-638.2003 93.4219,-626.2913 76.7608,-616.1252"/>
<polygon fill="#c0c0c0" stroke="#c0c0c0" stroke-width="2" points="78.1998,-612.9032 67.8403,-610.6822 74.5537,-618.8787 78.1998,-612.9032"/>
</g>
<!-- 16&#45;&gt;12 -->
<g id="edge22" class="edge">
<title>16&#45;&gt;12</title>
<path fill="none" stroke="#c0c0c0" stroke-width="2" d="M150.9297,-647.8314C147.6507,-639.9617 143.738,-630.5712 140.1055,-621.8533"/>
<polygon fill="#c0c0c0" stroke="#c0c0c0" stroke-width="2" points="143.2492,-620.2979 136.1722,-612.4133 136.7876,-622.9902 143.2492,-620.2979"/>
</g>
<!-- 21 -->
<g id="node22" class="node">
<title>21</title>
<path fill="none" stroke="#56d8c9" stroke-width="2" d="M281.5,-612C281.5,-612 201.5,-612 201.5,-612 195.5,-612 189.5,-606 189.5,-600 189.5,-600 189.5,-588 189.5,-588 189.5,-582 195.5,-576 201.5,-576 201.5,-576 281.5,-576 281.5,-576 287.5,-576 293.5,-582 293.5,-588 293.5,-588 293.5,-600 293.5,-600 293.5,-606 287.5,-612 281.5,-612"/>
<text text-anchor="middle" x="241.5" y="-591.5" font-family="sans" font-size="10.00" fill="#000000">picard_clean_sam</text>
</g>
<!-- 16&#45;&gt;21 -->
<g id="edge32" class="edge">
<title>16&#45;&gt;21</title>
<path fill="none" stroke="#c0c0c0" stroke-width="2" d="M179.4444,-647.8314C189.5691,-639.0485 201.8777,-628.3712 212.8548,-618.8489"/>
<polygon fill="#c0c0c0" stroke="#c0c0c0" stroke-width="2" points="215.3019,-621.3595 220.5623,-612.1628 210.7149,-616.0718 215.3019,-621.3595"/>
</g>
<!-- 17 -->
<g id="node18" class="node">
<title>17</title>
<path fill="none" stroke="#d86e56" stroke-width="2" d="M307,-540C307,-540 176,-540 176,-540 170,-540 164,-534 164,-528 164,-528 164,-516 164,-516 164,-510 170,-504 176,-504 176,-504 307,-504 307,-504 313,-504 319,-510 319,-516 319,-516 319,-528 319,-528 319,-534 313,-540 307,-540"/>
<text text-anchor="middle" x="241.5" y="-519.5" font-family="sans" font-size="10.00" fill="#000000">picard_fix_mate_information</text>
</g>
<!-- 17&#45;&gt;13 -->
<g id="edge23" class="edge">
<title>17&#45;&gt;13</title>
<path fill="none" stroke="#c0c0c0" stroke-width="2" d="M241.5,-503.8314C241.5,-496.131 241.5,-486.9743 241.5,-478.4166"/>
<polygon fill="#c0c0c0" stroke="#c0c0c0" stroke-width="2" points="245.0001,-478.4132 241.5,-468.4133 238.0001,-478.4133 245.0001,-478.4132"/>
</g>
<!-- 18 -->
<g id="node19" class="node">
<title>18</title>
<path fill="none" stroke="#61d856" stroke-width="2" d="M358,-684C358,-684 253,-684 253,-684 247,-684 241,-678 241,-672 241,-672 241,-660 241,-660 241,-654 247,-648 253,-648 253,-648 358,-648 358,-648 364,-648 370,-654 370,-660 370,-660 370,-672 370,-672 370,-678 364,-684 358,-684"/>
<text text-anchor="middle" x="305.5" y="-669" font-family="sans" font-size="10.00" fill="#000000">merge_lane_bam_hg19</text>
<text text-anchor="middle" x="305.5" y="-658" font-family="sans" font-size="10.00" fill="#000000">sample: G05050</text>
</g>
<!-- 18&#45;&gt;14 -->
<g id="edge24" class="edge">
<title>18&#45;&gt;14</title>
<path fill="none" stroke="#c0c0c0" stroke-width="2" d="M320.5714,-647.7623C341.4051,-622.5518 379.1227,-576.9103 402.9353,-548.0952"/>
<polygon fill="#c0c0c0" stroke="#c0c0c0" stroke-width="2" points="405.8787,-550.0277 409.5509,-540.0896 400.4827,-545.5685 405.8787,-550.0277"/>
</g>
<!-- 19&#45;&gt;15 -->
<g id="edge26" class="edge">
<title>19&#45;&gt;15</title>
<path fill="none" stroke="#c0c0c0" stroke-width="2" d="M330.2477,-359.8314C330.1407,-352.131 330.0135,-342.9743 329.8947,-334.4166"/>
<polygon fill="#c0c0c0" stroke="#c0c0c0" stroke-width="2" points="333.3944,-334.3637 329.7557,-324.4133 326.3951,-334.4609 333.3944,-334.3637"/>
</g>
<!-- 20 -->
<g id="node21" class="node">
<title>20</title>
<path fill="none" stroke="#56a9d8" stroke-width="2" d="M199.5,-756C199.5,-756 169.5,-756 169.5,-756 163.5,-756 157.5,-750 157.5,-744 157.5,-744 157.5,-732 157.5,-732 157.5,-726 163.5,-720 169.5,-720 169.5,-720 199.5,-720 199.5,-720 205.5,-720 211.5,-726 211.5,-732 211.5,-732 211.5,-744 211.5,-744 211.5,-750 205.5,-756 199.5,-756"/>
<text text-anchor="middle" x="184.5" y="-735.5" font-family="sans" font-size="10.00" fill="#000000">align</text>
</g>
<!-- 20&#45;&gt;16 -->
<g id="edge27" class="edge">
<title>20&#45;&gt;16</title>
<path fill="none" stroke="#c0c0c0" stroke-width="2" d="M177.9391,-719.8314C175.0973,-711.9617 171.7063,-702.5712 168.5581,-693.8533"/>
<polygon fill="#c0c0c0" stroke="#c0c0c0" stroke-width="2" points="171.8377,-692.63 165.1492,-684.4133 165.2538,-695.0076 171.8377,-692.63"/>
</g>
<!-- 21&#45;&gt;17 -->
<g id="edge28" class="edge">
<title>21&#45;&gt;17</title>
<path fill="none" stroke="#c0c0c0" stroke-width="2" d="M241.5,-575.8314C241.5,-568.131 241.5,-558.9743 241.5,-550.4166"/>
<polygon fill="#c0c0c0" stroke="#c0c0c0" stroke-width="2" points="245.0001,-550.4132 241.5,-540.4133 238.0001,-550.4133 245.0001,-550.4132"/>
</g>
<!-- 22 -->
<g id="node23" class="node">
<title>22</title>
<path fill="none" stroke="#c6d856" stroke-width="2" d="M300,-756C300,-756 255,-756 255,-756 249,-756 243,-750 243,-744 243,-744 243,-732 243,-732 243,-726 249,-720 255,-720 255,-720 300,-720 300,-720 306,-720 312,-726 312,-732 312,-732 312,-744 312,-744 312,-750 306,-756 300,-756"/>
<text text-anchor="middle" x="277.5" y="-735.5" font-family="sans" font-size="10.00" fill="#000000">align_hg19</text>
</g>
<!-- 22&#45;&gt;18 -->
<g id="edge29" class="edge">
<title>22&#45;&gt;18</title>
<path fill="none" stroke="#c0c0c0" stroke-width="2" d="M284.5656,-719.8314C287.626,-711.9617 291.2779,-702.5712 294.6682,-693.8533"/>
<polygon fill="#c0c0c0" stroke="#c0c0c0" stroke-width="2" points="297.9768,-695.0019 298.3393,-684.4133 291.4527,-692.4647 297.9768,-695.0019"/>
</g>
<!-- 23 -->
<g id="node24" class="node">
<title>23</title>
<path fill="none" stroke="#d85656" stroke-width="2" d="M277.5,-828C277.5,-828 171.5,-828 171.5,-828 165.5,-828 159.5,-822 159.5,-816 159.5,-816 159.5,-804 159.5,-804 159.5,-798 165.5,-792 171.5,-792 171.5,-792 277.5,-792 277.5,-792 283.5,-792 289.5,-798 289.5,-804 289.5,-804 289.5,-816 289.5,-816 289.5,-822 283.5,-828 277.5,-828"/>
<text text-anchor="middle" x="224.5" y="-813" font-family="sans" font-size="10.00" fill="#000000">trim_adatpor</text>
<text text-anchor="middle" x="224.5" y="-802" font-family="sans" font-size="10.00" fill="#000000">lane: G05050_S9_L001</text>
</g>
<!-- 23&#45;&gt;20 -->
<g id="edge31" class="edge">
<title>23&#45;&gt;20</title>
<path fill="none" stroke="#c0c0c0" stroke-width="2" d="M214.4063,-791.8314C209.9403,-783.7925 204.5925,-774.1666 199.6621,-765.2918"/>
<polygon fill="#c0c0c0" stroke="#c0c0c0" stroke-width="2" points="202.6456,-763.4551 194.7296,-756.4133 196.5265,-766.8546 202.6456,-763.4551"/>
</g>
<!-- 23&#45;&gt;22 -->
<g id="edge33" class="edge">
<title>23&#45;&gt;22</title>
<path fill="none" stroke="#c0c0c0" stroke-width="2" d="M237.8741,-791.8314C243.9162,-783.6232 251.1763,-773.7606 257.8221,-764.7323"/>
<polygon fill="#c0c0c0" stroke="#c0c0c0" stroke-width="2" points="260.8363,-766.5415 263.9458,-756.4133 255.1989,-762.3918 260.8363,-766.5415"/>
</g>
</g>
</svg>
