<?xml version="1.0" encoding="UTF-8" standalone="no"?>
<!DOCTYPE svg PUBLIC "-//W3C//DTD SVG 1.1//EN"
 "http://www.w3.org/Graphics/SVG/1.1/DTD/svg11.dtd">
<!-- Generated by graphviz version 2.38.0 (20140413.2041)
 -->
<!-- Title: snakemake_dag Pages: 1 -->
<svg width="744pt" height="625pt"
 viewBox="0.00 0.00 743.50 625.00" xmlns="http://www.w3.org/2000/svg" xmlns:xlink="http://www.w3.org/1999/xlink">
<g id="graph0" class="graph" transform="scale(1 1) rotate(0) translate(4 621)">
<title>snakemake_dag</title>
<polygon fill="white" stroke="none" points="-4,4 -4,-621 739.5,-621 739.5,4 -4,4"/>
<!-- 0 -->
<g id="node1" class="node"><title>0</title>
<path fill="none" stroke="#afd856" stroke-width="2" d="M602,-252C602,-252 534,-252 534,-252 528,-252 522,-246 522,-240 522,-240 522,-228 522,-228 522,-222 528,-216 534,-216 534,-216 602,-216 602,-216 608,-216 614,-222 614,-228 614,-228 614,-240 614,-240 614,-246 608,-252 602,-252"/>
<text text-anchor="middle" x="568" y="-231.5" font-family="sans" font-size="10.00">CombineVariants</text>
</g>
<!-- 19 -->
<g id="node20" class="node"><title>19</title>
<path fill="none" stroke="#56d873" stroke-width="2" d="M436,-180C436,-180 338,-180 338,-180 332,-180 326,-174 326,-168 326,-168 326,-156 326,-156 326,-150 332,-144 338,-144 338,-144 436,-144 436,-144 442,-144 448,-150 448,-156 448,-156 448,-168 448,-168 448,-174 442,-180 436,-180"/>
<text text-anchor="middle" x="387" y="-159.5" font-family="sans" font-size="10.00">merge_chr_vcf_together</text>
</g>
<!-- 0&#45;&gt;19 -->
<g id="edge24" class="edge"><title>0&#45;&gt;19</title>
<path fill="none" stroke="grey" stroke-width="2" d="M523.722,-215.876C498.649,-206.179 467.104,-193.98 440.635,-183.743"/>
<polygon fill="grey" stroke="grey" stroke-width="2" points="441.723,-180.411 431.134,-180.068 439.198,-186.94 441.723,-180.411"/>
</g>
<!-- 1 -->
<g id="node2" class="node"><title>1</title>
<path fill="none" stroke="#d85656" stroke-width="2" d="M153.5,-540C153.5,-540 62.5,-540 62.5,-540 56.5,-540 50.5,-534 50.5,-528 50.5,-528 50.5,-516 50.5,-516 50.5,-510 56.5,-504 62.5,-504 62.5,-504 153.5,-504 153.5,-504 159.5,-504 165.5,-510 165.5,-516 165.5,-516 165.5,-528 165.5,-528 165.5,-534 159.5,-540 153.5,-540"/>
<text text-anchor="middle" x="108" y="-519.5" font-family="sans" font-size="10.00">PhaseByTransmission</text>
</g>
<!-- 13 -->
<g id="node14" class="node"><title>13</title>
<path fill="none" stroke="#d8cb56" stroke-width="2" d="M136,-468C136,-468 80,-468 80,-468 74,-468 68,-462 68,-456 68,-456 68,-444 68,-444 68,-438 74,-432 80,-432 80,-432 136,-432 136,-432 142,-432 148,-438 148,-444 148,-444 148,-456 148,-456 148,-462 142,-468 136,-468"/>
<text text-anchor="middle" x="108" y="-447.5" font-family="sans" font-size="10.00">vt_decompose</text>
</g>
<!-- 1&#45;&gt;13 -->
<g id="edge17" class="edge"><title>1&#45;&gt;13</title>
<path fill="none" stroke="grey" stroke-width="2" d="M108,-503.697C108,-495.983 108,-486.712 108,-478.112"/>
<polygon fill="grey" stroke="grey" stroke-width="2" points="111.5,-478.104 108,-468.104 104.5,-478.104 111.5,-478.104"/>
</g>
<!-- 2 -->
<g id="node3" class="node"><title>2</title>
<path fill="none" stroke="#70d856" stroke-width="2" d="M133,-396C133,-396 51,-396 51,-396 45,-396 39,-390 39,-384 39,-384 39,-372 39,-372 39,-366 45,-360 51,-360 51,-360 133,-360 133,-360 139,-360 145,-366 145,-372 145,-372 145,-384 145,-384 145,-390 139,-396 133,-396"/>
<text text-anchor="middle" x="92" y="-381" font-family="sans" font-size="10.00">SelectVariants</text>
<text text-anchor="middle" x="92" y="-370" font-family="sans" font-size="10.00">variant_type: INDEL</text>
</g>
<!-- 9 -->
<g id="node10" class="node"><title>9</title>
<path fill="none" stroke="#d88d56" stroke-width="2" d="M130.5,-324C130.5,-324 69.5,-324 69.5,-324 63.5,-324 57.5,-318 57.5,-312 57.5,-312 57.5,-300 57.5,-300 57.5,-294 63.5,-288 69.5,-288 69.5,-288 130.5,-288 130.5,-288 136.5,-288 142.5,-294 142.5,-300 142.5,-300 142.5,-312 142.5,-312 142.5,-318 136.5,-324 130.5,-324"/>
<text text-anchor="middle" x="100" y="-303.5" font-family="sans" font-size="10.00">VariantFiltration</text>
</g>
<!-- 2&#45;&gt;9 -->
<g id="edge13" class="edge"><title>2&#45;&gt;9</title>
<path fill="none" stroke="grey" stroke-width="2" d="M93.9775,-359.697C94.8591,-351.983 95.9186,-342.712 96.9014,-334.112"/>
<polygon fill="grey" stroke="grey" stroke-width="2" points="100.387,-334.437 98.0452,-324.104 93.4323,-333.642 100.387,-334.437"/>
</g>
<!-- 3 -->
<g id="node4" class="node"><title>3</title>
<path fill="none" stroke="#56c9d8" stroke-width="2" d="M366,-108C366,-108 260,-108 260,-108 254,-108 248,-102 248,-96 248,-96 248,-84 248,-84 248,-78 254,-72 260,-72 260,-72 366,-72 366,-72 372,-72 378,-78 378,-84 378,-84 378,-96 378,-96 378,-102 372,-108 366,-108"/>
<text text-anchor="middle" x="313" y="-93" font-family="sans" font-size="10.00">create_single_sample_vcf</text>
<text text-anchor="middle" x="313" y="-82" font-family="sans" font-size="10.00">sample: 1501</text>
</g>
<!-- 20 -->
<g id="node21" class="node"><title>20</title>
<path fill="none" stroke="#56d8a9" stroke-width="2" d="M402,-36C402,-36 372,-36 372,-36 366,-36 360,-30 360,-24 360,-24 360,-12 360,-12 360,-6 366,-0 372,-0 372,-0 402,-0 402,-0 408,-0 414,-6 414,-12 414,-12 414,-24 414,-24 414,-30 408,-36 402,-36"/>
<text text-anchor="middle" x="387" y="-15.5" font-family="sans" font-size="10.00">all</text>
</g>
<!-- 3&#45;&gt;20 -->
<g id="edge26" class="edge"><title>3&#45;&gt;20</title>
<path fill="none" stroke="grey" stroke-width="2" d="M331.292,-71.6966C340.433,-63.0503 351.64,-52.4486 361.6,-43.027"/>
<polygon fill="grey" stroke="grey" stroke-width="2" points="364.059,-45.519 368.918,-36.1043 359.248,-40.4337 364.059,-45.519"/>
</g>
<!-- 4 -->
<g id="node5" class="node"><title>4</title>
<path fill="none" stroke="#d88d56" stroke-width="2" d="M364.5,-324C364.5,-324 303.5,-324 303.5,-324 297.5,-324 291.5,-318 291.5,-312 291.5,-312 291.5,-300 291.5,-300 291.5,-294 297.5,-288 303.5,-288 303.5,-288 364.5,-288 364.5,-288 370.5,-288 376.5,-294 376.5,-300 376.5,-300 376.5,-312 376.5,-312 376.5,-318 370.5,-324 364.5,-324"/>
<text text-anchor="middle" x="334" y="-303.5" font-family="sans" font-size="10.00">VariantFiltration</text>
</g>
<!-- 8 -->
<g id="node9" class="node"><title>8</title>
<path fill="none" stroke="#afd856" stroke-width="2" d="M421,-252C421,-252 353,-252 353,-252 347,-252 341,-246 341,-240 341,-240 341,-228 341,-228 341,-222 347,-216 353,-216 353,-216 421,-216 421,-216 427,-216 433,-222 433,-228 433,-228 433,-240 433,-240 433,-246 427,-252 421,-252"/>
<text text-anchor="middle" x="387" y="-231.5" font-family="sans" font-size="10.00">CombineVariants</text>
</g>
<!-- 4&#45;&gt;8 -->
<g id="edge11" class="edge"><title>4&#45;&gt;8</title>
<path fill="none" stroke="grey" stroke-width="2" d="M347.101,-287.697C353.391,-279.389 361.047,-269.277 367.965,-260.141"/>
<polygon fill="grey" stroke="grey" stroke-width="2" points="370.804,-262.19 374.05,-252.104 365.223,-257.964 370.804,-262.19"/>
</g>
<!-- 5 -->
<g id="node6" class="node"><title>5</title>
<path fill="none" stroke="#70d856" stroke-width="2" d="M609,-396C609,-396 527,-396 527,-396 521,-396 515,-390 515,-384 515,-384 515,-372 515,-372 515,-366 521,-360 527,-360 527,-360 609,-360 609,-360 615,-360 621,-366 621,-372 621,-372 621,-384 621,-384 621,-390 615,-396 609,-396"/>
<text text-anchor="middle" x="568" y="-381" font-family="sans" font-size="10.00">SelectVariants</text>
<text text-anchor="middle" x="568" y="-370" font-family="sans" font-size="10.00">variant_type: INDEL</text>
</g>
<!-- 10 -->
<g id="node11" class="node"><title>10</title>
<path fill="none" stroke="#d88d56" stroke-width="2" d="M598.5,-324C598.5,-324 537.5,-324 537.5,-324 531.5,-324 525.5,-318 525.5,-312 525.5,-312 525.5,-300 525.5,-300 525.5,-294 531.5,-288 537.5,-288 537.5,-288 598.5,-288 598.5,-288 604.5,-288 610.5,-294 610.5,-300 610.5,-300 610.5,-312 610.5,-312 610.5,-318 604.5,-324 598.5,-324"/>
<text text-anchor="middle" x="568" y="-303.5" font-family="sans" font-size="10.00">VariantFiltration</text>
</g>
<!-- 5&#45;&gt;10 -->
<g id="edge14" class="edge"><title>5&#45;&gt;10</title>
<path fill="none" stroke="grey" stroke-width="2" d="M568,-359.697C568,-351.983 568,-342.712 568,-334.112"/>
<polygon fill="grey" stroke="grey" stroke-width="2" points="571.5,-334.104 568,-324.104 564.5,-334.104 571.5,-334.104"/>
</g>
<!-- 6 -->
<g id="node7" class="node"><title>6</title>
<path fill="none" stroke="#d85656" stroke-width="2" d="M668.5,-540C668.5,-540 577.5,-540 577.5,-540 571.5,-540 565.5,-534 565.5,-528 565.5,-528 565.5,-516 565.5,-516 565.5,-510 571.5,-504 577.5,-504 577.5,-504 668.5,-504 668.5,-504 674.5,-504 680.5,-510 680.5,-516 680.5,-516 680.5,-528 680.5,-528 680.5,-534 674.5,-540 668.5,-540"/>
<text text-anchor="middle" x="623" y="-519.5" font-family="sans" font-size="10.00">PhaseByTransmission</text>
</g>
<!-- 18 -->
<g id="node19" class="node"><title>18</title>
<path fill="none" stroke="#d8cb56" stroke-width="2" d="M651,-468C651,-468 595,-468 595,-468 589,-468 583,-462 583,-456 583,-456 583,-444 583,-444 583,-438 589,-432 595,-432 595,-432 651,-432 651,-432 657,-432 663,-438 663,-444 663,-444 663,-456 663,-456 663,-462 657,-468 651,-468"/>
<text text-anchor="middle" x="623" y="-447.5" font-family="sans" font-size="10.00">vt_decompose</text>
</g>
<!-- 6&#45;&gt;18 -->
<g id="edge21" class="edge"><title>6&#45;&gt;18</title>
<path fill="none" stroke="grey" stroke-width="2" d="M623,-503.697C623,-495.983 623,-486.712 623,-478.112"/>
<polygon fill="grey" stroke="grey" stroke-width="2" points="626.5,-478.104 623,-468.104 619.5,-478.104 626.5,-478.104"/>
</g>
<!-- 7 -->
<g id="node8" class="node"><title>7</title>
<path fill="none" stroke="#afd856" stroke-width="2" d="M245,-252C245,-252 177,-252 177,-252 171,-252 165,-246 165,-240 165,-240 165,-228 165,-228 165,-222 171,-216 177,-216 177,-216 245,-216 245,-216 251,-216 257,-222 257,-228 257,-228 257,-240 257,-240 257,-246 251,-252 245,-252"/>
<text text-anchor="middle" x="211" y="-231.5" font-family="sans" font-size="10.00">CombineVariants</text>
</g>
<!-- 7&#45;&gt;19 -->
<g id="edge23" class="edge"><title>7&#45;&gt;19</title>
<path fill="none" stroke="grey" stroke-width="2" d="M254.054,-215.876C278.329,-206.222 308.84,-194.087 334.508,-183.878"/>
<polygon fill="grey" stroke="grey" stroke-width="2" points="336.087,-187.016 344.085,-180.068 333.5,-180.512 336.087,-187.016"/>
</g>
<!-- 8&#45;&gt;19 -->
<g id="edge22" class="edge"><title>8&#45;&gt;19</title>
<path fill="none" stroke="grey" stroke-width="2" d="M387,-215.697C387,-207.983 387,-198.712 387,-190.112"/>
<polygon fill="grey" stroke="grey" stroke-width="2" points="390.5,-190.104 387,-180.104 383.5,-190.104 390.5,-190.104"/>
</g>
<!-- 9&#45;&gt;7 -->
<g id="edge10" class="edge"><title>9&#45;&gt;7</title>
<path fill="none" stroke="grey" stroke-width="2" d="M127.154,-287.876C141.533,-278.808 159.381,-267.552 174.91,-257.759"/>
<polygon fill="grey" stroke="grey" stroke-width="2" points="177.15,-260.484 183.742,-252.19 173.416,-254.564 177.15,-260.484"/>
</g>
<!-- 10&#45;&gt;0 -->
<g id="edge1" class="edge"><title>10&#45;&gt;0</title>
<path fill="none" stroke="grey" stroke-width="2" d="M568,-287.697C568,-279.983 568,-270.712 568,-262.112"/>
<polygon fill="grey" stroke="grey" stroke-width="2" points="571.5,-262.104 568,-252.104 564.5,-262.104 571.5,-262.104"/>
</g>
<!-- 11 -->
<g id="node12" class="node"><title>11</title>
<path fill="none" stroke="#70d856" stroke-width="2" d="M371,-396C371,-396 289,-396 289,-396 283,-396 277,-390 277,-384 277,-384 277,-372 277,-372 277,-366 283,-360 289,-360 289,-360 371,-360 371,-360 377,-360 383,-366 383,-372 383,-372 383,-384 383,-384 383,-390 377,-396 371,-396"/>
<text text-anchor="middle" x="330" y="-381" font-family="sans" font-size="10.00">SelectVariants</text>
<text text-anchor="middle" x="330" y="-370" font-family="sans" font-size="10.00">variant_type: INDEL</text>
</g>
<!-- 11&#45;&gt;4 -->
<g id="edge6" class="edge"><title>11&#45;&gt;4</title>
<path fill="none" stroke="grey" stroke-width="2" d="M330.989,-359.697C331.43,-351.983 331.959,-342.712 332.451,-334.112"/>
<polygon fill="grey" stroke="grey" stroke-width="2" points="335.946,-334.288 333.023,-324.104 328.958,-333.888 335.946,-334.288"/>
</g>
<!-- 12 -->
<g id="node13" class="node"><title>12</title>
<path fill="none" stroke="#d85656" stroke-width="2" d="M418.5,-540C418.5,-540 327.5,-540 327.5,-540 321.5,-540 315.5,-534 315.5,-528 315.5,-528 315.5,-516 315.5,-516 315.5,-510 321.5,-504 327.5,-504 327.5,-504 418.5,-504 418.5,-504 424.5,-504 430.5,-510 430.5,-516 430.5,-516 430.5,-528 430.5,-528 430.5,-534 424.5,-540 418.5,-540"/>
<text text-anchor="middle" x="373" y="-519.5" font-family="sans" font-size="10.00">PhaseByTransmission</text>
</g>
<!-- 27 -->
<g id="node28" class="node"><title>27</title>
<path fill="none" stroke="#d8cb56" stroke-width="2" d="M401,-468C401,-468 345,-468 345,-468 339,-468 333,-462 333,-456 333,-456 333,-444 333,-444 333,-438 339,-432 345,-432 345,-432 401,-432 401,-432 407,-432 413,-438 413,-444 413,-444 413,-456 413,-456 413,-462 407,-468 401,-468"/>
<text text-anchor="middle" x="373" y="-447.5" font-family="sans" font-size="10.00">vt_decompose</text>
</g>
<!-- 12&#45;&gt;27 -->
<g id="edge31" class="edge"><title>12&#45;&gt;27</title>
<path fill="none" stroke="grey" stroke-width="2" d="M373,-503.697C373,-495.983 373,-486.712 373,-478.112"/>
<polygon fill="grey" stroke="grey" stroke-width="2" points="376.5,-478.104 373,-468.104 369.5,-478.104 376.5,-478.104"/>
</g>
<!-- 13&#45;&gt;2 -->
<g id="edge4" class="edge"><title>13&#45;&gt;2</title>
<path fill="none" stroke="grey" stroke-width="2" d="M104.045,-431.697C102.282,-423.983 100.163,-414.712 98.1971,-406.112"/>
<polygon fill="grey" stroke="grey" stroke-width="2" points="101.55,-405.073 95.9096,-396.104 94.7259,-406.633 101.55,-405.073"/>
</g>
<!-- 24 -->
<g id="node25" class="node"><title>24</title>
<path fill="none" stroke="#70d856" stroke-width="2" d="M247.5,-396C247.5,-396 174.5,-396 174.5,-396 168.5,-396 162.5,-390 162.5,-384 162.5,-384 162.5,-372 162.5,-372 162.5,-366 168.5,-360 174.5,-360 174.5,-360 247.5,-360 247.5,-360 253.5,-360 259.5,-366 259.5,-372 259.5,-372 259.5,-384 259.5,-384 259.5,-390 253.5,-396 247.5,-396"/>
<text text-anchor="middle" x="211" y="-381" font-family="sans" font-size="10.00">SelectVariants</text>
<text text-anchor="middle" x="211" y="-370" font-family="sans" font-size="10.00">variant_type: SNP</text>
</g>
<!-- 13&#45;&gt;24 -->
<g id="edge29" class="edge"><title>13&#45;&gt;24</title>
<path fill="none" stroke="grey" stroke-width="2" d="M133.197,-431.876C146.414,-422.893 162.792,-411.763 177.107,-402.034"/>
<polygon fill="grey" stroke="grey" stroke-width="2" points="179.403,-404.705 185.707,-396.19 175.468,-398.916 179.403,-404.705"/>
</g>
<!-- 14 -->
<g id="node15" class="node"><title>14</title>
<path fill="none" stroke="#d88d56" stroke-width="2" d="M709.5,-324C709.5,-324 648.5,-324 648.5,-324 642.5,-324 636.5,-318 636.5,-312 636.5,-312 636.5,-300 636.5,-300 636.5,-294 642.5,-288 648.5,-288 648.5,-288 709.5,-288 709.5,-288 715.5,-288 721.5,-294 721.5,-300 721.5,-300 721.5,-312 721.5,-312 721.5,-318 715.5,-324 709.5,-324"/>
<text text-anchor="middle" x="679" y="-303.5" font-family="sans" font-size="10.00">VariantFiltration</text>
</g>
<!-- 14&#45;&gt;0 -->
<g id="edge2" class="edge"><title>14&#45;&gt;0</title>
<path fill="none" stroke="grey" stroke-width="2" d="M651.846,-287.876C637.467,-278.808 619.619,-267.552 604.09,-257.759"/>
<polygon fill="grey" stroke="grey" stroke-width="2" points="605.584,-254.564 595.258,-252.19 601.85,-260.484 605.584,-254.564"/>
</g>
<!-- 15 -->
<g id="node16" class="node"><title>15</title>
<path fill="none" stroke="#70d856" stroke-width="2" d="M485.5,-396C485.5,-396 412.5,-396 412.5,-396 406.5,-396 400.5,-390 400.5,-384 400.5,-384 400.5,-372 400.5,-372 400.5,-366 406.5,-360 412.5,-360 412.5,-360 485.5,-360 485.5,-360 491.5,-360 497.5,-366 497.5,-372 497.5,-372 497.5,-384 497.5,-384 497.5,-390 491.5,-396 485.5,-396"/>
<text text-anchor="middle" x="449" y="-381" font-family="sans" font-size="10.00">SelectVariants</text>
<text text-anchor="middle" x="449" y="-370" font-family="sans" font-size="10.00">variant_type: SNP</text>
</g>
<!-- 22 -->
<g id="node23" class="node"><title>22</title>
<path fill="none" stroke="#d88d56" stroke-width="2" d="M471.5,-324C471.5,-324 410.5,-324 410.5,-324 404.5,-324 398.5,-318 398.5,-312 398.5,-312 398.5,-300 398.5,-300 398.5,-294 404.5,-288 410.5,-288 410.5,-288 471.5,-288 471.5,-288 477.5,-288 483.5,-294 483.5,-300 483.5,-300 483.5,-312 483.5,-312 483.5,-318 477.5,-324 471.5,-324"/>
<text text-anchor="middle" x="441" y="-303.5" font-family="sans" font-size="10.00">VariantFiltration</text>
</g>
<!-- 15&#45;&gt;22 -->
<g id="edge27" class="edge"><title>15&#45;&gt;22</title>
<path fill="none" stroke="grey" stroke-width="2" d="M447.022,-359.697C446.141,-351.983 445.081,-342.712 444.099,-334.112"/>
<polygon fill="grey" stroke="grey" stroke-width="2" points="447.568,-333.642 442.955,-324.104 440.613,-334.437 447.568,-333.642"/>
</g>
<!-- 16 -->
<g id="node17" class="node"><title>16</title>
<path fill="none" stroke="#d88d56" stroke-width="2" d="M241.5,-324C241.5,-324 180.5,-324 180.5,-324 174.5,-324 168.5,-318 168.5,-312 168.5,-312 168.5,-300 168.5,-300 168.5,-294 174.5,-288 180.5,-288 180.5,-288 241.5,-288 241.5,-288 247.5,-288 253.5,-294 253.5,-300 253.5,-300 253.5,-312 253.5,-312 253.5,-318 247.5,-324 241.5,-324"/>
<text text-anchor="middle" x="211" y="-303.5" font-family="sans" font-size="10.00">VariantFiltration</text>
</g>
<!-- 16&#45;&gt;7 -->
<g id="edge9" class="edge"><title>16&#45;&gt;7</title>
<path fill="none" stroke="grey" stroke-width="2" d="M211,-287.697C211,-279.983 211,-270.712 211,-262.112"/>
<polygon fill="grey" stroke="grey" stroke-width="2" points="214.5,-262.104 211,-252.104 207.5,-262.104 214.5,-262.104"/>
</g>
<!-- 17 -->
<g id="node18" class="node"><title>17</title>
<path fill="none" stroke="#5692d8" stroke-width="2" d="M469,-617C469,-617 277,-617 277,-617 271,-617 265,-611 265,-605 265,-605 265,-588 265,-588 265,-582 271,-576 277,-576 277,-576 469,-576 469,-576 475,-576 481,-582 481,-588 481,-588 481,-605 481,-605 481,-611 475,-617 469,-617"/>
<text text-anchor="middle" x="373" y="-605" font-family="sans" font-size="10.00">GenotypeGVCFs</text>
<text text-anchor="middle" x="373" y="-594" font-family="sans" font-size="10.00">chr: 3</text>
<text text-anchor="middle" x="373" y="-583" font-family="sans" font-size="10.00">output_name: 2018_09_27__OGVFB_exomes</text>
</g>
<!-- 17&#45;&gt;12 -->
<g id="edge16" class="edge"><title>17&#45;&gt;12</title>
<path fill="none" stroke="grey" stroke-width="2" d="M373,-575.689C373,-567.907 373,-558.842 373,-550.447"/>
<polygon fill="grey" stroke="grey" stroke-width="2" points="376.5,-550.319 373,-540.319 369.5,-550.32 376.5,-550.319"/>
</g>
<!-- 18&#45;&gt;5 -->
<g id="edge7" class="edge"><title>18&#45;&gt;5</title>
<path fill="none" stroke="grey" stroke-width="2" d="M609.404,-431.697C602.877,-423.389 594.932,-413.277 587.753,-404.141"/>
<polygon fill="grey" stroke="grey" stroke-width="2" points="590.369,-401.805 581.439,-396.104 584.865,-406.13 590.369,-401.805"/>
</g>
<!-- 23 -->
<g id="node24" class="node"><title>23</title>
<path fill="none" stroke="#70d856" stroke-width="2" d="M723.5,-396C723.5,-396 650.5,-396 650.5,-396 644.5,-396 638.5,-390 638.5,-384 638.5,-384 638.5,-372 638.5,-372 638.5,-366 644.5,-360 650.5,-360 650.5,-360 723.5,-360 723.5,-360 729.5,-360 735.5,-366 735.5,-372 735.5,-372 735.5,-384 735.5,-384 735.5,-390 729.5,-396 723.5,-396"/>
<text text-anchor="middle" x="687" y="-381" font-family="sans" font-size="10.00">SelectVariants</text>
<text text-anchor="middle" x="687" y="-370" font-family="sans" font-size="10.00">variant_type: SNP</text>
</g>
<!-- 18&#45;&gt;23 -->
<g id="edge28" class="edge"><title>18&#45;&gt;23</title>
<path fill="none" stroke="grey" stroke-width="2" d="M638.82,-431.697C646.57,-423.22 656.039,-412.864 664.524,-403.583"/>
<polygon fill="grey" stroke="grey" stroke-width="2" points="667.197,-405.846 671.362,-396.104 662.031,-401.123 667.197,-405.846"/>
</g>
<!-- 19&#45;&gt;3 -->
<g id="edge5" class="edge"><title>19&#45;&gt;3</title>
<path fill="none" stroke="grey" stroke-width="2" d="M368.708,-143.697C359.567,-135.05 348.36,-124.449 338.4,-115.027"/>
<polygon fill="grey" stroke="grey" stroke-width="2" points="340.752,-112.434 331.082,-108.104 335.941,-117.519 340.752,-112.434"/>
</g>
<!-- 25 -->
<g id="node26" class="node"><title>25</title>
<path fill="none" stroke="#56c9d8" stroke-width="2" d="M514,-108C514,-108 408,-108 408,-108 402,-108 396,-102 396,-96 396,-96 396,-84 396,-84 396,-78 402,-72 408,-72 408,-72 514,-72 514,-72 520,-72 526,-78 526,-84 526,-84 526,-96 526,-96 526,-102 520,-108 514,-108"/>
<text text-anchor="middle" x="461" y="-93" font-family="sans" font-size="10.00">create_single_sample_vcf</text>
<text text-anchor="middle" x="461" y="-82" font-family="sans" font-size="10.00">sample: CCGO_800298</text>
</g>
<!-- 19&#45;&gt;25 -->
<g id="edge30" class="edge"><title>19&#45;&gt;25</title>
<path fill="none" stroke="grey" stroke-width="2" d="M405.292,-143.697C414.433,-135.05 425.64,-124.449 435.6,-115.027"/>
<polygon fill="grey" stroke="grey" stroke-width="2" points="438.059,-117.519 442.918,-108.104 433.248,-112.434 438.059,-117.519"/>
</g>
<!-- 21 -->
<g id="node22" class="node"><title>21</title>
<path fill="none" stroke="#5692d8" stroke-width="2" d="M204,-617C204,-617 12,-617 12,-617 6,-617 0,-611 0,-605 0,-605 0,-588 0,-588 0,-582 6,-576 12,-576 12,-576 204,-576 204,-576 210,-576 216,-582 216,-588 216,-588 216,-605 216,-605 216,-611 210,-617 204,-617"/>
<text text-anchor="middle" x="108" y="-605" font-family="sans" font-size="10.00">GenotypeGVCFs</text>
<text text-anchor="middle" x="108" y="-594" font-family="sans" font-size="10.00">chr: 1</text>
<text text-anchor="middle" x="108" y="-583" font-family="sans" font-size="10.00">output_name: 2018_09_27__OGVFB_exomes</text>
</g>
<!-- 21&#45;&gt;1 -->
<g id="edge3" class="edge"><title>21&#45;&gt;1</title>
<path fill="none" stroke="grey" stroke-width="2" d="M108,-575.689C108,-567.907 108,-558.842 108,-550.447"/>
<polygon fill="grey" stroke="grey" stroke-width="2" points="111.5,-550.319 108,-540.319 104.5,-550.32 111.5,-550.319"/>
</g>
<!-- 22&#45;&gt;8 -->
<g id="edge12" class="edge"><title>22&#45;&gt;8</title>
<path fill="none" stroke="grey" stroke-width="2" d="M427.652,-287.697C421.243,-279.389 413.442,-269.277 406.394,-260.141"/>
<polygon fill="grey" stroke="grey" stroke-width="2" points="409.074,-257.884 400.195,-252.104 403.532,-262.16 409.074,-257.884"/>
</g>
<!-- 23&#45;&gt;14 -->
<g id="edge18" class="edge"><title>23&#45;&gt;14</title>
<path fill="none" stroke="grey" stroke-width="2" d="M685.022,-359.697C684.141,-351.983 683.081,-342.712 682.099,-334.112"/>
<polygon fill="grey" stroke="grey" stroke-width="2" points="685.568,-333.642 680.955,-324.104 678.613,-334.437 685.568,-333.642"/>
</g>
<!-- 24&#45;&gt;16 -->
<g id="edge20" class="edge"><title>24&#45;&gt;16</title>
<path fill="none" stroke="grey" stroke-width="2" d="M211,-359.697C211,-351.983 211,-342.712 211,-334.112"/>
<polygon fill="grey" stroke="grey" stroke-width="2" points="214.5,-334.104 211,-324.104 207.5,-334.104 214.5,-334.104"/>
</g>
<!-- 25&#45;&gt;20 -->
<g id="edge25" class="edge"><title>25&#45;&gt;20</title>
<path fill="none" stroke="grey" stroke-width="2" d="M442.708,-71.6966C433.567,-63.0503 422.36,-52.4486 412.4,-43.027"/>
<polygon fill="grey" stroke="grey" stroke-width="2" points="414.752,-40.4337 405.082,-36.1043 409.941,-45.519 414.752,-40.4337"/>
</g>
<!-- 26 -->
<g id="node27" class="node"><title>26</title>
<path fill="none" stroke="#5692d8" stroke-width="2" d="M719,-617C719,-617 527,-617 527,-617 521,-617 515,-611 515,-605 515,-605 515,-588 515,-588 515,-582 521,-576 527,-576 527,-576 719,-576 719,-576 725,-576 731,-582 731,-588 731,-588 731,-605 731,-605 731,-611 725,-617 719,-617"/>
<text text-anchor="middle" x="623" y="-605" font-family="sans" font-size="10.00">GenotypeGVCFs</text>
<text text-anchor="middle" x="623" y="-594" font-family="sans" font-size="10.00">chr: 2</text>
<text text-anchor="middle" x="623" y="-583" font-family="sans" font-size="10.00">output_name: 2018_09_27__OGVFB_exomes</text>
</g>
<!-- 26&#45;&gt;6 -->
<g id="edge8" class="edge"><title>26&#45;&gt;6</title>
<path fill="none" stroke="grey" stroke-width="2" d="M623,-575.689C623,-567.907 623,-558.842 623,-550.447"/>
<polygon fill="grey" stroke="grey" stroke-width="2" points="626.5,-550.319 623,-540.319 619.5,-550.32 626.5,-550.319"/>
</g>
<!-- 27&#45;&gt;11 -->
<g id="edge15" class="edge"><title>27&#45;&gt;11</title>
<path fill="none" stroke="grey" stroke-width="2" d="M362.371,-431.697C357.372,-423.559 351.309,-413.689 345.788,-404.701"/>
<polygon fill="grey" stroke="grey" stroke-width="2" points="348.723,-402.793 340.507,-396.104 342.759,-406.457 348.723,-402.793"/>
</g>
<!-- 27&#45;&gt;15 -->
<g id="edge19" class="edge"><title>27&#45;&gt;15</title>
<path fill="none" stroke="grey" stroke-width="2" d="M391.787,-431.697C401.174,-423.05 412.684,-412.449 422.913,-403.027"/>
<polygon fill="grey" stroke="grey" stroke-width="2" points="425.445,-405.454 430.43,-396.104 420.703,-400.305 425.445,-405.454"/>
</g>
</g>
</svg>
