<?xml version="1.0" encoding="UTF-8" standalone="no"?>
<!DOCTYPE svg PUBLIC "-//W3C//DTD SVG 1.1//EN"
 "http://www.w3.org/Graphics/SVG/1.1/DTD/svg11.dtd">
<!-- Generated by graphviz version 2.40.1 (20161225.0304)
 -->
<!-- Title: snakemake_dag Pages: 1 -->
<svg width="1556pt" height="1124pt"
 viewBox="0.00 0.00 1555.50 1124.00" xmlns="http://www.w3.org/2000/svg" xmlns:xlink="http://www.w3.org/1999/xlink">
<g id="graph0" class="graph" transform="scale(1 1) rotate(0) translate(4 1120)">
<title>snakemake_dag</title>
<polygon fill="#ffffff" stroke="transparent" points="-4,4 -4,-1120 1551.5,-1120 1551.5,4 -4,4"/>
<!-- 0 -->
<g id="node1" class="node">
<title>0</title>
<path fill="none" stroke="#59d856" stroke-width="2" d="M275.5,-180C275.5,-180 174.5,-180 174.5,-180 168.5,-180 162.5,-174 162.5,-168 162.5,-168 162.5,-156 162.5,-156 162.5,-150 168.5,-144 174.5,-144 174.5,-144 275.5,-144 275.5,-144 281.5,-144 287.5,-150 287.5,-156 287.5,-156 287.5,-168 287.5,-168 287.5,-174 281.5,-180 275.5,-180"/>
<text text-anchor="middle" x="225" y="-159.5" font-family="sans" font-size="10.00" fill="#000000">gatk_haplotype_caller</text>
</g>
<!-- 18 -->
<g id="node19" class="node">
<title>18</title>
<path fill="none" stroke="#d86e56" stroke-width="2" d="M486,-108C486,-108 394,-108 394,-108 388,-108 382,-102 382,-96 382,-96 382,-84 382,-84 382,-78 388,-72 394,-72 394,-72 486,-72 486,-72 492,-72 498,-78 498,-84 498,-84 498,-96 498,-96 498,-102 492,-108 486,-108"/>
<text text-anchor="middle" x="440" y="-87.5" font-family="sans" font-size="10.00" fill="#000000">picard_merge_gvcfs</text>
</g>
<!-- 0&#45;&gt;18 -->
<g id="edge30" class="edge">
<title>0&#45;&gt;18</title>
<path fill="none" stroke="#c0c0c0" stroke-width="2" d="M278.9761,-143.9243C308.4956,-134.0387 345.2444,-121.7321 376.1789,-111.3726"/>
<polygon fill="#c0c0c0" stroke="#c0c0c0" stroke-width="2" points="377.6308,-114.5776 386.0017,-108.0831 375.4079,-107.9399 377.6308,-114.5776"/>
</g>
<!-- 1 -->
<g id="node2" class="node">
<title>1</title>
<path fill="none" stroke="#56d89a" stroke-width="2" d="M1270,-540C1270,-540 1190,-540 1190,-540 1184,-540 1178,-534 1178,-528 1178,-528 1178,-516 1178,-516 1178,-510 1184,-504 1190,-504 1190,-504 1270,-504 1270,-504 1276,-504 1282,-510 1282,-516 1282,-516 1282,-528 1282,-528 1282,-534 1276,-540 1270,-540"/>
<text text-anchor="middle" x="1230" y="-519.5" font-family="sans" font-size="10.00" fill="#000000">picard_bam_index</text>
</g>
<!-- 35 -->
<g id="node36" class="node">
<title>35</title>
<path fill="none" stroke="#d85656" stroke-width="2" d="M1248.5,-396C1248.5,-396 1157.5,-396 1157.5,-396 1151.5,-396 1145.5,-390 1145.5,-384 1145.5,-384 1145.5,-372 1145.5,-372 1145.5,-366 1151.5,-360 1157.5,-360 1157.5,-360 1248.5,-360 1248.5,-360 1254.5,-360 1260.5,-366 1260.5,-372 1260.5,-372 1260.5,-384 1260.5,-384 1260.5,-390 1254.5,-396 1248.5,-396"/>
<text text-anchor="middle" x="1203" y="-375.5" font-family="sans" font-size="10.00" fill="#000000">gatk_indel_realigner</text>
</g>
<!-- 1&#45;&gt;35 -->
<g id="edge56" class="edge">
<title>1&#45;&gt;35</title>
<path fill="none" stroke="#c0c0c0" stroke-width="2" d="M1249.4956,-503.9663C1258.5103,-494.2894 1268.2551,-481.5757 1273,-468 1278.279,-452.896 1280.0581,-446.3591 1273,-432 1267.1766,-420.1528 1257.3649,-410.171 1246.9022,-402.1383"/>
<polygon fill="#c0c0c0" stroke="#c0c0c0" stroke-width="2" points="1248.6129,-399.0601 1238.4354,-396.1158 1244.5555,-404.7642 1248.6129,-399.0601"/>
</g>
<!-- 48 -->
<g id="node49" class="node">
<title>48</title>
<path fill="none" stroke="#ced856" stroke-width="2" d="M1251.5,-468C1251.5,-468 1152.5,-468 1152.5,-468 1146.5,-468 1140.5,-462 1140.5,-456 1140.5,-456 1140.5,-444 1140.5,-444 1140.5,-438 1146.5,-432 1152.5,-432 1152.5,-432 1251.5,-432 1251.5,-432 1257.5,-432 1263.5,-438 1263.5,-444 1263.5,-444 1263.5,-456 1263.5,-456 1263.5,-462 1257.5,-468 1251.5,-468"/>
<text text-anchor="middle" x="1202" y="-447.5" font-family="sans" font-size="10.00" fill="#000000">gatk_realigner_target</text>
</g>
<!-- 1&#45;&gt;48 -->
<g id="edge84" class="edge">
<title>1&#45;&gt;48</title>
<path fill="none" stroke="#c0c0c0" stroke-width="2" d="M1222.9344,-503.8314C1219.874,-495.9617 1216.2221,-486.5712 1212.8318,-477.8533"/>
<polygon fill="#c0c0c0" stroke="#c0c0c0" stroke-width="2" points="1216.0473,-476.4647 1209.1607,-468.4133 1209.5232,-479.0019 1216.0473,-476.4647"/>
</g>
<!-- 2 -->
<g id="node3" class="node">
<title>2</title>
<path fill="none" stroke="#d89c56" stroke-width="2" d="M132,-180C132,-180 42,-180 42,-180 36,-180 30,-174 30,-168 30,-168 30,-156 30,-156 30,-150 36,-144 42,-144 42,-144 132,-144 132,-144 138,-144 144,-150 144,-156 144,-156 144,-168 144,-168 144,-174 138,-180 132,-180"/>
<text text-anchor="middle" x="87" y="-159.5" font-family="sans" font-size="10.00" fill="#000000">picard_merge_bams</text>
</g>
<!-- 45 -->
<g id="node46" class="node">
<title>45</title>
<path fill="none" stroke="#56c9d8" stroke-width="2" d="M938,-36C938,-36 908,-36 908,-36 902,-36 896,-30 896,-24 896,-24 896,-12 896,-12 896,-6 902,0 908,0 908,0 938,0 938,0 944,0 950,-6 950,-12 950,-12 950,-24 950,-24 950,-30 944,-36 938,-36"/>
<text text-anchor="middle" x="923" y="-15.5" font-family="sans" font-size="10.00" fill="#000000">all</text>
</g>
<!-- 2&#45;&gt;45 -->
<g id="edge77" class="edge">
<title>2&#45;&gt;45</title>
<path fill="none" stroke="#c0c0c0" stroke-width="2" d="M133.7787,-143.978C189.7755,-123.1818 286.8076,-89.5951 373,-72 563.1538,-33.1824 796.1909,-21.9941 885.6244,-19.0077"/>
<polygon fill="#c0c0c0" stroke="#c0c0c0" stroke-width="2" points="885.9232,-22.5001 895.8064,-18.6829 885.6999,-15.5036 885.9232,-22.5001"/>
</g>
<!-- 3 -->
<g id="node4" class="node">
<title>3</title>
<path fill="none" stroke="#b6d856" stroke-width="2" d="M820,-252C820,-252 708,-252 708,-252 702,-252 696,-246 696,-240 696,-240 696,-228 696,-228 696,-222 702,-216 708,-216 708,-216 820,-216 820,-216 826,-216 832,-222 832,-228 832,-228 832,-240 832,-240 832,-246 826,-252 820,-252"/>
<text text-anchor="middle" x="764" y="-231.5" font-family="sans" font-size="10.00" fill="#000000">gatk_base_recalibrator2</text>
</g>
<!-- 42 -->
<g id="node43" class="node">
<title>42</title>
<path fill="none" stroke="#56d8c9" stroke-width="2" d="M792,-180C792,-180 736,-180 736,-180 730,-180 724,-174 724,-168 724,-168 724,-156 724,-156 724,-150 730,-144 736,-144 736,-144 792,-144 792,-144 798,-144 804,-150 804,-156 804,-156 804,-168 804,-168 804,-174 798,-180 792,-180"/>
<text text-anchor="middle" x="764" y="-159.5" font-family="sans" font-size="10.00" fill="#000000">multiqc_gatk</text>
</g>
<!-- 3&#45;&gt;42 -->
<g id="edge68" class="edge">
<title>3&#45;&gt;42</title>
<path fill="none" stroke="#c0c0c0" stroke-width="2" d="M764,-215.8314C764,-208.131 764,-198.9743 764,-190.4166"/>
<polygon fill="#c0c0c0" stroke="#c0c0c0" stroke-width="2" points="767.5001,-190.4132 764,-180.4133 760.5001,-190.4133 767.5001,-190.4132"/>
</g>
<!-- 4 -->
<g id="node5" class="node">
<title>4</title>
<path fill="none" stroke="#56d882" stroke-width="2" d="M88,-252C88,-252 12,-252 12,-252 6,-252 0,-246 0,-240 0,-240 0,-228 0,-228 0,-222 6,-216 12,-216 12,-216 88,-216 88,-216 94,-216 100,-222 100,-228 100,-228 100,-240 100,-240 100,-246 94,-252 88,-252"/>
<text text-anchor="middle" x="50" y="-231.5" font-family="sans" font-size="10.00" fill="#000000">gatk_print_reads</text>
</g>
<!-- 4&#45;&gt;0 -->
<g id="edge2" class="edge">
<title>4&#45;&gt;0</title>
<path fill="none" stroke="#c0c0c0" stroke-width="2" d="M94.1599,-215.8314C117.7732,-206.1162 147.0202,-194.0831 171.87,-183.8592"/>
<polygon fill="#c0c0c0" stroke="#c0c0c0" stroke-width="2" points="173.2415,-187.0797 181.1577,-180.038 170.5781,-180.6061 173.2415,-187.0797"/>
</g>
<!-- 4&#45;&gt;2 -->
<g id="edge4" class="edge">
<title>4&#45;&gt;2</title>
<path fill="none" stroke="#c0c0c0" stroke-width="2" d="M59.3367,-215.8314C63.4243,-207.8771 68.3104,-198.369 72.8309,-189.5723"/>
<polygon fill="#c0c0c0" stroke="#c0c0c0" stroke-width="2" points="76.0799,-190.9074 77.5376,-180.4133 69.8539,-187.7078 76.0799,-190.9074"/>
</g>
<!-- 5 -->
<g id="node6" class="node">
<title>5</title>
<path fill="none" stroke="#d8cb56" stroke-width="2" d="M276.5,-1116C276.5,-1116 147.5,-1116 147.5,-1116 141.5,-1116 135.5,-1110 135.5,-1104 135.5,-1104 135.5,-1092 135.5,-1092 135.5,-1086 141.5,-1080 147.5,-1080 147.5,-1080 276.5,-1080 276.5,-1080 282.5,-1080 288.5,-1086 288.5,-1092 288.5,-1092 288.5,-1104 288.5,-1104 288.5,-1110 282.5,-1116 276.5,-1116"/>
<text text-anchor="middle" x="212" y="-1101" font-family="sans" font-size="10.00" fill="#000000">align</text>
<text text-anchor="middle" x="212" y="-1090" font-family="sans" font-size="10.00" fill="#000000">lane: MG0402&#45;In2_S3_L002</text>
</g>
<!-- 28 -->
<g id="node29" class="node">
<title>28</title>
<path fill="none" stroke="#70d856" stroke-width="2" d="M575,-1044C575,-1044 495,-1044 495,-1044 489,-1044 483,-1038 483,-1032 483,-1032 483,-1020 483,-1020 483,-1014 489,-1008 495,-1008 495,-1008 575,-1008 575,-1008 581,-1008 587,-1014 587,-1020 587,-1020 587,-1032 587,-1032 587,-1038 581,-1044 575,-1044"/>
<text text-anchor="middle" x="535" y="-1029" font-family="sans" font-size="10.00" fill="#000000">merge_lane_bam</text>
<text text-anchor="middle" x="535" y="-1018" font-family="sans" font-size="10.00" fill="#000000">sample: IG130&#45;P1</text>
</g>
<!-- 5&#45;&gt;28 -->
<g id="edge42" class="edge">
<title>5&#45;&gt;28</title>
<path fill="none" stroke="#c0c0c0" stroke-width="2" d="M288.5465,-1080.937C344.8044,-1068.3965 420.2892,-1051.5702 472.8352,-1039.8572"/>
<polygon fill="#c0c0c0" stroke="#c0c0c0" stroke-width="2" points="473.6988,-1043.2506 482.6977,-1037.6587 472.1758,-1036.4183 473.6988,-1043.2506"/>
</g>
<!-- 6 -->
<g id="node7" class="node">
<title>6</title>
<path fill="none" stroke="#56d86b" stroke-width="2" d="M1135.5,-828C1135.5,-828 1056.5,-828 1056.5,-828 1050.5,-828 1044.5,-822 1044.5,-816 1044.5,-816 1044.5,-804 1044.5,-804 1044.5,-798 1050.5,-792 1056.5,-792 1056.5,-792 1135.5,-792 1135.5,-792 1141.5,-792 1147.5,-798 1147.5,-804 1147.5,-804 1147.5,-816 1147.5,-816 1147.5,-822 1141.5,-828 1135.5,-828"/>
<text text-anchor="middle" x="1096" y="-813" font-family="sans" font-size="10.00" fill="#000000">split_bam_by_chr</text>
<text text-anchor="middle" x="1096" y="-802" font-family="sans" font-size="10.00" fill="#000000">chr: 1</text>
</g>
<!-- 25 -->
<g id="node26" class="node">
<title>25</title>
<path fill="none" stroke="#56b1d8" stroke-width="2" d="M1147,-756C1147,-756 1067,-756 1067,-756 1061,-756 1055,-750 1055,-744 1055,-744 1055,-732 1055,-732 1055,-726 1061,-720 1067,-720 1067,-720 1147,-720 1147,-720 1153,-720 1159,-726 1159,-732 1159,-732 1159,-744 1159,-744 1159,-750 1153,-756 1147,-756"/>
<text text-anchor="middle" x="1107" y="-735.5" font-family="sans" font-size="10.00" fill="#000000">picard_clean_sam</text>
</g>
<!-- 6&#45;&gt;25 -->
<g id="edge40" class="edge">
<title>6&#45;&gt;25</title>
<path fill="none" stroke="#c0c0c0" stroke-width="2" d="M1098.7758,-791.8314C1099.9522,-784.131 1101.3511,-774.9743 1102.6586,-766.4166"/>
<polygon fill="#c0c0c0" stroke="#c0c0c0" stroke-width="2" points="1106.1364,-766.8272 1104.1869,-756.4133 1099.2167,-765.7699 1106.1364,-766.8272"/>
</g>
<!-- 7 -->
<g id="node8" class="node">
<title>7</title>
<path fill="none" stroke="#56d882" stroke-width="2" d="M1362,-252C1362,-252 1286,-252 1286,-252 1280,-252 1274,-246 1274,-240 1274,-240 1274,-228 1274,-228 1274,-222 1280,-216 1286,-216 1286,-216 1362,-216 1362,-216 1368,-216 1374,-222 1374,-228 1374,-228 1374,-240 1374,-240 1374,-246 1368,-252 1362,-252"/>
<text text-anchor="middle" x="1324" y="-231.5" font-family="sans" font-size="10.00" fill="#000000">gatk_print_reads</text>
</g>
<!-- 9 -->
<g id="node10" class="node">
<title>9</title>
<path fill="none" stroke="#d89c56" stroke-width="2" d="M1332,-180C1332,-180 1242,-180 1242,-180 1236,-180 1230,-174 1230,-168 1230,-168 1230,-156 1230,-156 1230,-150 1236,-144 1242,-144 1242,-144 1332,-144 1332,-144 1338,-144 1344,-150 1344,-156 1344,-156 1344,-168 1344,-168 1344,-174 1338,-180 1332,-180"/>
<text text-anchor="middle" x="1287" y="-159.5" font-family="sans" font-size="10.00" fill="#000000">picard_merge_bams</text>
</g>
<!-- 7&#45;&gt;9 -->
<g id="edge16" class="edge">
<title>7&#45;&gt;9</title>
<path fill="none" stroke="#c0c0c0" stroke-width="2" d="M1314.6633,-215.8314C1310.5757,-207.8771 1305.6896,-198.369 1301.1691,-189.5723"/>
<polygon fill="#c0c0c0" stroke="#c0c0c0" stroke-width="2" points="1304.1461,-187.7078 1296.4624,-180.4133 1297.9201,-190.9074 1304.1461,-187.7078"/>
</g>
<!-- 11 -->
<g id="node12" class="node">
<title>11</title>
<path fill="none" stroke="#59d856" stroke-width="2" d="M1199.5,-180C1199.5,-180 1098.5,-180 1098.5,-180 1092.5,-180 1086.5,-174 1086.5,-168 1086.5,-168 1086.5,-156 1086.5,-156 1086.5,-150 1092.5,-144 1098.5,-144 1098.5,-144 1199.5,-144 1199.5,-144 1205.5,-144 1211.5,-150 1211.5,-156 1211.5,-156 1211.5,-168 1211.5,-168 1211.5,-174 1205.5,-180 1199.5,-180"/>
<text text-anchor="middle" x="1149" y="-159.5" font-family="sans" font-size="10.00" fill="#000000">gatk_haplotype_caller</text>
</g>
<!-- 7&#45;&gt;11 -->
<g id="edge19" class="edge">
<title>7&#45;&gt;11</title>
<path fill="none" stroke="#c0c0c0" stroke-width="2" d="M1279.8401,-215.8314C1256.2268,-206.1162 1226.9798,-194.0831 1202.13,-183.8592"/>
<polygon fill="#c0c0c0" stroke="#c0c0c0" stroke-width="2" points="1203.4219,-180.6061 1192.8423,-180.038 1200.7585,-187.0797 1203.4219,-180.6061"/>
</g>
<!-- 8 -->
<g id="node9" class="node">
<title>8</title>
<path fill="none" stroke="#b6d856" stroke-width="2" d="M666,-252C666,-252 554,-252 554,-252 548,-252 542,-246 542,-240 542,-240 542,-228 542,-228 542,-222 548,-216 554,-216 554,-216 666,-216 666,-216 672,-216 678,-222 678,-228 678,-228 678,-240 678,-240 678,-246 672,-252 666,-252"/>
<text text-anchor="middle" x="610" y="-231.5" font-family="sans" font-size="10.00" fill="#000000">gatk_base_recalibrator2</text>
</g>
<!-- 8&#45;&gt;42 -->
<g id="edge71" class="edge">
<title>8&#45;&gt;42</title>
<path fill="none" stroke="#c0c0c0" stroke-width="2" d="M648.8607,-215.8314C669.2742,-206.2874 694.4723,-194.5065 716.086,-184.4013"/>
<polygon fill="#c0c0c0" stroke="#c0c0c0" stroke-width="2" points="717.8423,-187.4439 725.4187,-180.038 714.8775,-181.1027 717.8423,-187.4439"/>
</g>
<!-- 9&#45;&gt;45 -->
<g id="edge81" class="edge">
<title>9&#45;&gt;45</title>
<path fill="none" stroke="#c0c0c0" stroke-width="2" d="M1241.2677,-143.9081C1168.2566,-115.0246 1026.7876,-59.0588 959.833,-32.5713"/>
<polygon fill="#c0c0c0" stroke="#c0c0c0" stroke-width="2" points="960.7165,-29.1569 950.1302,-28.7328 958.1414,-35.6661 960.7165,-29.1569"/>
</g>
<!-- 10 -->
<g id="node11" class="node">
<title>10</title>
<path fill="none" stroke="#56d89a" stroke-width="2" d="M255,-540C255,-540 175,-540 175,-540 169,-540 163,-534 163,-528 163,-528 163,-516 163,-516 163,-510 169,-504 175,-504 175,-504 255,-504 255,-504 261,-504 267,-510 267,-516 267,-516 267,-528 267,-528 267,-534 261,-540 255,-540"/>
<text text-anchor="middle" x="215" y="-519.5" font-family="sans" font-size="10.00" fill="#000000">picard_bam_index</text>
</g>
<!-- 36 -->
<g id="node37" class="node">
<title>36</title>
<path fill="none" stroke="#d85656" stroke-width="2" d="M214.5,-396C214.5,-396 123.5,-396 123.5,-396 117.5,-396 111.5,-390 111.5,-384 111.5,-384 111.5,-372 111.5,-372 111.5,-366 117.5,-360 123.5,-360 123.5,-360 214.5,-360 214.5,-360 220.5,-360 226.5,-366 226.5,-372 226.5,-372 226.5,-384 226.5,-384 226.5,-390 220.5,-396 214.5,-396"/>
<text text-anchor="middle" x="169" y="-375.5" font-family="sans" font-size="10.00" fill="#000000">gatk_indel_realigner</text>
</g>
<!-- 10&#45;&gt;36 -->
<g id="edge61" class="edge">
<title>10&#45;&gt;36</title>
<path fill="none" stroke="#c0c0c0" stroke-width="2" d="M206.4155,-503.7755C201.7531,-493.4328 196.1171,-480.1613 192,-468 185.0833,-447.569 179.1158,-423.9199 174.9937,-405.9923"/>
<polygon fill="#c0c0c0" stroke="#c0c0c0" stroke-width="2" points="178.393,-405.1555 172.7867,-396.1656 171.5632,-406.6895 178.393,-405.1555"/>
</g>
<!-- 60 -->
<g id="node61" class="node">
<title>60</title>
<path fill="none" stroke="#ced856" stroke-width="2" d="M312.5,-468C312.5,-468 213.5,-468 213.5,-468 207.5,-468 201.5,-462 201.5,-456 201.5,-456 201.5,-444 201.5,-444 201.5,-438 207.5,-432 213.5,-432 213.5,-432 312.5,-432 312.5,-432 318.5,-432 324.5,-438 324.5,-444 324.5,-444 324.5,-456 324.5,-456 324.5,-462 318.5,-468 312.5,-468"/>
<text text-anchor="middle" x="263" y="-447.5" font-family="sans" font-size="10.00" fill="#000000">gatk_realigner_target</text>
</g>
<!-- 10&#45;&gt;60 -->
<g id="edge103" class="edge">
<title>10&#45;&gt;60</title>
<path fill="none" stroke="#c0c0c0" stroke-width="2" d="M227.1124,-503.8314C232.5281,-495.7079 239.0242,-485.9637 244.9921,-477.0118"/>
<polygon fill="#c0c0c0" stroke="#c0c0c0" stroke-width="2" points="248.0896,-478.6753 250.7245,-468.4133 242.2653,-474.7923 248.0896,-478.6753"/>
</g>
<!-- 15 -->
<g id="node16" class="node">
<title>15</title>
<path fill="none" stroke="#d86e56" stroke-width="2" d="M996,-108C996,-108 904,-108 904,-108 898,-108 892,-102 892,-96 892,-96 892,-84 892,-84 892,-78 898,-72 904,-72 904,-72 996,-72 996,-72 1002,-72 1008,-78 1008,-84 1008,-84 1008,-96 1008,-96 1008,-102 1002,-108 996,-108"/>
<text text-anchor="middle" x="950" y="-87.5" font-family="sans" font-size="10.00" fill="#000000">picard_merge_gvcfs</text>
</g>
<!-- 11&#45;&gt;15 -->
<g id="edge26" class="edge">
<title>11&#45;&gt;15</title>
<path fill="none" stroke="#c0c0c0" stroke-width="2" d="M1099.0408,-143.9243C1071.8363,-134.0815 1037.9983,-121.8386 1009.4438,-111.5073"/>
<polygon fill="#c0c0c0" stroke="#c0c0c0" stroke-width="2" points="1010.5741,-108.1943 999.9798,-108.0831 1008.1924,-114.7767 1010.5741,-108.1943"/>
</g>
<!-- 12 -->
<g id="node13" class="node">
<title>12</title>
<path fill="none" stroke="#56d8b1" stroke-width="2" d="M219,-324C219,-324 113,-324 113,-324 107,-324 101,-318 101,-312 101,-312 101,-300 101,-300 101,-294 107,-288 113,-288 113,-288 219,-288 219,-288 225,-288 231,-294 231,-300 231,-300 231,-312 231,-312 231,-318 225,-324 219,-324"/>
<text text-anchor="middle" x="166" y="-303.5" font-family="sans" font-size="10.00" fill="#000000">gatk_base_recalibrator</text>
</g>
<!-- 12&#45;&gt;0 -->
<g id="edge1" class="edge">
<title>12&#45;&gt;0</title>
<path fill="none" stroke="#c0c0c0" stroke-width="2" d="M157.0591,-287.7603C149.1376,-268.8391 140.4681,-238.8745 152,-216 156.0716,-207.9236 171.1603,-196.2378 186.5714,-185.8011"/>
<polygon fill="#c0c0c0" stroke="#c0c0c0" stroke-width="2" points="188.6878,-188.5977 195.0984,-180.1623 184.8266,-182.7589 188.6878,-188.5977"/>
</g>
<!-- 12&#45;&gt;4 -->
<g id="edge8" class="edge">
<title>12&#45;&gt;4</title>
<path fill="none" stroke="#c0c0c0" stroke-width="2" d="M136.7283,-287.8314C121.8912,-278.6221 103.6985,-267.3301 87.8138,-257.4706"/>
<polygon fill="#c0c0c0" stroke="#c0c0c0" stroke-width="2" points="89.6045,-254.4628 79.2623,-252.1628 85.913,-260.4102 89.6045,-254.4628"/>
</g>
<!-- 34 -->
<g id="node35" class="node">
<title>34</title>
<path fill="none" stroke="#b6d856" stroke-width="2" d="M318,-252C318,-252 206,-252 206,-252 200,-252 194,-246 194,-240 194,-240 194,-228 194,-228 194,-222 200,-216 206,-216 206,-216 318,-216 318,-216 324,-216 330,-222 330,-228 330,-228 330,-240 330,-240 330,-246 324,-252 318,-252"/>
<text text-anchor="middle" x="262" y="-231.5" font-family="sans" font-size="10.00" fill="#000000">gatk_base_recalibrator2</text>
</g>
<!-- 12&#45;&gt;34 -->
<g id="edge54" class="edge">
<title>12&#45;&gt;34</title>
<path fill="none" stroke="#c0c0c0" stroke-width="2" d="M190.2249,-287.8314C202.1628,-278.8779 216.7256,-267.9558 229.606,-258.2955"/>
<polygon fill="#c0c0c0" stroke="#c0c0c0" stroke-width="2" points="231.8829,-260.9629 237.7829,-252.1628 227.6829,-255.3629 231.8829,-260.9629"/>
</g>
<!-- 12&#45;&gt;42 -->
<g id="edge66" class="edge">
<title>12&#45;&gt;42</title>
<path fill="none" stroke="#c0c0c0" stroke-width="2" d="M164.0913,-287.7343C163.0467,-267.0306 164.9699,-233.8485 185,-216 194.8466,-207.2258 574.5999,-176.7809 713.6517,-165.902"/>
<polygon fill="#c0c0c0" stroke="#c0c0c0" stroke-width="2" points="713.9322,-169.3908 723.6292,-165.1226 713.387,-162.4121 713.9322,-169.3908"/>
</g>
<!-- 13 -->
<g id="node14" class="node">
<title>13</title>
<path fill="none" stroke="#ced856" stroke-width="2" d="M466.5,-468C466.5,-468 367.5,-468 367.5,-468 361.5,-468 355.5,-462 355.5,-456 355.5,-456 355.5,-444 355.5,-444 355.5,-438 361.5,-432 367.5,-432 367.5,-432 466.5,-432 466.5,-432 472.5,-432 478.5,-438 478.5,-444 478.5,-444 478.5,-456 478.5,-456 478.5,-462 472.5,-468 466.5,-468"/>
<text text-anchor="middle" x="417" y="-447.5" font-family="sans" font-size="10.00" fill="#000000">gatk_realigner_target</text>
</g>
<!-- 31 -->
<g id="node32" class="node">
<title>31</title>
<path fill="none" stroke="#d85656" stroke-width="2" d="M552.5,-396C552.5,-396 461.5,-396 461.5,-396 455.5,-396 449.5,-390 449.5,-384 449.5,-384 449.5,-372 449.5,-372 449.5,-366 455.5,-360 461.5,-360 461.5,-360 552.5,-360 552.5,-360 558.5,-360 564.5,-366 564.5,-372 564.5,-372 564.5,-384 564.5,-384 564.5,-390 558.5,-396 552.5,-396"/>
<text text-anchor="middle" x="507" y="-375.5" font-family="sans" font-size="10.00" fill="#000000">gatk_indel_realigner</text>
</g>
<!-- 13&#45;&gt;31 -->
<g id="edge50" class="edge">
<title>13&#45;&gt;31</title>
<path fill="none" stroke="#c0c0c0" stroke-width="2" d="M439.7108,-431.8314C450.796,-422.9632 464.2954,-412.1637 476.2852,-402.5718"/>
<polygon fill="#c0c0c0" stroke="#c0c0c0" stroke-width="2" points="478.6742,-405.1429 484.2965,-396.1628 474.3013,-399.6768 478.6742,-405.1429"/>
</g>
<!-- 14 -->
<g id="node15" class="node">
<title>14</title>
<path fill="none" stroke="#d8b456" stroke-width="2" d="M521.5,-612C521.5,-612 440.5,-612 440.5,-612 434.5,-612 428.5,-606 428.5,-600 428.5,-600 428.5,-588 428.5,-588 428.5,-582 434.5,-576 440.5,-576 440.5,-576 521.5,-576 521.5,-576 527.5,-576 533.5,-582 533.5,-588 533.5,-588 533.5,-600 533.5,-600 533.5,-606 527.5,-612 521.5,-612"/>
<text text-anchor="middle" x="481" y="-591.5" font-family="sans" font-size="10.00" fill="#000000">picard_mark_dups</text>
</g>
<!-- 14&#45;&gt;13 -->
<g id="edge22" class="edge">
<title>14&#45;&gt;13</title>
<path fill="none" stroke="#c0c0c0" stroke-width="2" d="M451.5323,-575.813C439.4866,-566.6778 426.804,-554.4618 420,-540 410.9869,-520.8429 410.67,-496.7688 412.3711,-478.3406"/>
<polygon fill="#c0c0c0" stroke="#c0c0c0" stroke-width="2" points="415.869,-478.5617 413.5553,-468.2226 408.9164,-477.7479 415.869,-478.5617"/>
</g>
<!-- 14&#45;&gt;31 -->
<g id="edge51" class="edge">
<title>14&#45;&gt;31</title>
<path fill="none" stroke="#c0c0c0" stroke-width="2" d="M510.6941,-575.9172C522.7836,-566.8022 535.4379,-554.5731 542,-540 562.1076,-495.3454 540.008,-438.461 522.9356,-405.3465"/>
<polygon fill="#c0c0c0" stroke="#c0c0c0" stroke-width="2" points="525.8801,-403.4311 518.0722,-396.2696 519.7099,-406.7371 525.8801,-403.4311"/>
</g>
<!-- 58 -->
<g id="node59" class="node">
<title>58</title>
<path fill="none" stroke="#56d89a" stroke-width="2" d="M521,-540C521,-540 441,-540 441,-540 435,-540 429,-534 429,-528 429,-528 429,-516 429,-516 429,-510 435,-504 441,-504 441,-504 521,-504 521,-504 527,-504 533,-510 533,-516 533,-516 533,-528 533,-528 533,-534 527,-540 521,-540"/>
<text text-anchor="middle" x="481" y="-519.5" font-family="sans" font-size="10.00" fill="#000000">picard_bam_index</text>
</g>
<!-- 14&#45;&gt;58 -->
<g id="edge99" class="edge">
<title>14&#45;&gt;58</title>
<path fill="none" stroke="#c0c0c0" stroke-width="2" d="M481,-575.8314C481,-568.131 481,-558.9743 481,-550.4166"/>
<polygon fill="#c0c0c0" stroke="#c0c0c0" stroke-width="2" points="484.5001,-550.4132 481,-540.4133 477.5001,-550.4133 484.5001,-550.4132"/>
</g>
<!-- 15&#45;&gt;45 -->
<g id="edge78" class="edge">
<title>15&#45;&gt;45</title>
<path fill="none" stroke="#c0c0c0" stroke-width="2" d="M943.1868,-71.8314C940.2356,-63.9617 936.7142,-54.5712 933.445,-45.8533"/>
<polygon fill="#c0c0c0" stroke="#c0c0c0" stroke-width="2" points="936.6934,-44.5476 929.905,-36.4133 930.1391,-47.0055 936.6934,-44.5476"/>
</g>
<!-- 16 -->
<g id="node17" class="node">
<title>16</title>
<path fill="none" stroke="#d88556" stroke-width="2" d="M1191,-972C1191,-972 1161,-972 1161,-972 1155,-972 1149,-966 1149,-960 1149,-960 1149,-948 1149,-948 1149,-942 1155,-936 1161,-936 1161,-936 1191,-936 1191,-936 1197,-936 1203,-942 1203,-948 1203,-948 1203,-960 1203,-960 1203,-966 1197,-972 1191,-972"/>
<text text-anchor="middle" x="1176" y="-951.5" font-family="sans" font-size="10.00" fill="#000000">fastqc</text>
</g>
<!-- 57 -->
<g id="node58" class="node">
<title>57</title>
<path fill="none" stroke="#5682d8" stroke-width="2" d="M1208.5,-900C1208.5,-900 1143.5,-900 1143.5,-900 1137.5,-900 1131.5,-894 1131.5,-888 1131.5,-888 1131.5,-876 1131.5,-876 1131.5,-870 1137.5,-864 1143.5,-864 1143.5,-864 1208.5,-864 1208.5,-864 1214.5,-864 1220.5,-870 1220.5,-876 1220.5,-876 1220.5,-888 1220.5,-888 1220.5,-894 1214.5,-900 1208.5,-900"/>
<text text-anchor="middle" x="1176" y="-879.5" font-family="sans" font-size="10.00" fill="#000000">multiqc_fastqc</text>
</g>
<!-- 16&#45;&gt;57 -->
<g id="edge98" class="edge">
<title>16&#45;&gt;57</title>
<path fill="none" stroke="#c0c0c0" stroke-width="2" d="M1176,-935.8314C1176,-928.131 1176,-918.9743 1176,-910.4166"/>
<polygon fill="#c0c0c0" stroke="#c0c0c0" stroke-width="2" points="1179.5001,-910.4132 1176,-900.4133 1172.5001,-910.4133 1179.5001,-910.4132"/>
</g>
<!-- 17 -->
<g id="node18" class="node">
<title>17</title>
<path fill="none" stroke="#d88556" stroke-width="2" d="M1119,-972C1119,-972 1089,-972 1089,-972 1083,-972 1077,-966 1077,-960 1077,-960 1077,-948 1077,-948 1077,-942 1083,-936 1089,-936 1089,-936 1119,-936 1119,-936 1125,-936 1131,-942 1131,-948 1131,-948 1131,-960 1131,-960 1131,-966 1125,-972 1119,-972"/>
<text text-anchor="middle" x="1104" y="-951.5" font-family="sans" font-size="10.00" fill="#000000">fastqc</text>
</g>
<!-- 17&#45;&gt;57 -->
<g id="edge97" class="edge">
<title>17&#45;&gt;57</title>
<path fill="none" stroke="#c0c0c0" stroke-width="2" d="M1122.1686,-935.8314C1130.7152,-927.2848 1141.0557,-916.9443 1150.3802,-907.6198"/>
<polygon fill="#c0c0c0" stroke="#c0c0c0" stroke-width="2" points="1152.9905,-909.9592 1157.5867,-900.4133 1148.0408,-905.0095 1152.9905,-909.9592"/>
</g>
<!-- 18&#45;&gt;45 -->
<g id="edge79" class="edge">
<title>18&#45;&gt;45</title>
<path fill="none" stroke="#c0c0c0" stroke-width="2" d="M498.2611,-81.3151C598.8377,-66.3223 802.2773,-35.9959 885.8629,-23.536"/>
<polygon fill="#c0c0c0" stroke="#c0c0c0" stroke-width="2" points="886.5379,-26.9741 895.9125,-22.0379 885.5058,-20.0506 886.5379,-26.9741"/>
</g>
<!-- 19 -->
<g id="node20" class="node">
<title>19</title>
<path fill="none" stroke="#d8b456" stroke-width="2" d="M992.5,-612C992.5,-612 911.5,-612 911.5,-612 905.5,-612 899.5,-606 899.5,-600 899.5,-600 899.5,-588 899.5,-588 899.5,-582 905.5,-576 911.5,-576 911.5,-576 992.5,-576 992.5,-576 998.5,-576 1004.5,-582 1004.5,-588 1004.5,-588 1004.5,-600 1004.5,-600 1004.5,-606 998.5,-612 992.5,-612"/>
<text text-anchor="middle" x="952" y="-591.5" font-family="sans" font-size="10.00" fill="#000000">picard_mark_dups</text>
</g>
<!-- 20 -->
<g id="node21" class="node">
<title>20</title>
<path fill="none" stroke="#ced856" stroke-width="2" d="M944.5,-468C944.5,-468 845.5,-468 845.5,-468 839.5,-468 833.5,-462 833.5,-456 833.5,-456 833.5,-444 833.5,-444 833.5,-438 839.5,-432 845.5,-432 845.5,-432 944.5,-432 944.5,-432 950.5,-432 956.5,-438 956.5,-444 956.5,-444 956.5,-456 956.5,-456 956.5,-462 950.5,-468 944.5,-468"/>
<text text-anchor="middle" x="895" y="-447.5" font-family="sans" font-size="10.00" fill="#000000">gatk_realigner_target</text>
</g>
<!-- 19&#45;&gt;20 -->
<g id="edge33" class="edge">
<title>19&#45;&gt;20</title>
<path fill="none" stroke="#c0c0c0" stroke-width="2" d="M948.7717,-575.9045C945.0987,-557.3602 938.2483,-527.9335 928,-504 924.0617,-494.8027 918.7497,-485.3159 913.5396,-476.9093"/>
<polygon fill="#c0c0c0" stroke="#c0c0c0" stroke-width="2" points="916.3442,-474.7994 907.9958,-468.276 910.454,-478.5817 916.3442,-474.7994"/>
</g>
<!-- 54 -->
<g id="node55" class="node">
<title>54</title>
<path fill="none" stroke="#d85656" stroke-width="2" d="M930.5,-396C930.5,-396 839.5,-396 839.5,-396 833.5,-396 827.5,-390 827.5,-384 827.5,-384 827.5,-372 827.5,-372 827.5,-366 833.5,-360 839.5,-360 839.5,-360 930.5,-360 930.5,-360 936.5,-360 942.5,-366 942.5,-372 942.5,-372 942.5,-384 942.5,-384 942.5,-390 936.5,-396 930.5,-396"/>
<text text-anchor="middle" x="885" y="-375.5" font-family="sans" font-size="10.00" fill="#000000">gatk_indel_realigner</text>
</g>
<!-- 19&#45;&gt;54 -->
<g id="edge91" class="edge">
<title>19&#45;&gt;54</title>
<path fill="none" stroke="#c0c0c0" stroke-width="2" d="M959.7394,-575.6863C971.7535,-544.2261 991.0425,-478.7923 966,-432 959.326,-419.5296 948.3594,-409.4416 936.6199,-401.5111"/>
<polygon fill="#c0c0c0" stroke="#c0c0c0" stroke-width="2" points="938.3204,-398.4466 927.9854,-396.1146 934.6104,-404.3826 938.3204,-398.4466"/>
</g>
<!-- 62 -->
<g id="node63" class="node">
<title>62</title>
<path fill="none" stroke="#56d89a" stroke-width="2" d="M907,-540C907,-540 827,-540 827,-540 821,-540 815,-534 815,-528 815,-528 815,-516 815,-516 815,-510 821,-504 827,-504 827,-504 907,-504 907,-504 913,-504 919,-510 919,-516 919,-516 919,-528 919,-528 919,-534 913,-540 907,-540"/>
<text text-anchor="middle" x="867" y="-519.5" font-family="sans" font-size="10.00" fill="#000000">picard_bam_index</text>
</g>
<!-- 19&#45;&gt;62 -->
<g id="edge106" class="edge">
<title>19&#45;&gt;62</title>
<path fill="none" stroke="#c0c0c0" stroke-width="2" d="M930.5509,-575.8314C920.1822,-567.0485 907.5771,-556.3712 896.3354,-546.8489"/>
<polygon fill="#c0c0c0" stroke="#c0c0c0" stroke-width="2" points="898.3349,-543.9556 888.4422,-540.1628 893.8105,-549.297 898.3349,-543.9556"/>
</g>
<!-- 20&#45;&gt;54 -->
<g id="edge92" class="edge">
<title>20&#45;&gt;54</title>
<path fill="none" stroke="#c0c0c0" stroke-width="2" d="M892.4766,-431.8314C891.4071,-424.131 890.1353,-414.9743 888.9468,-406.4166"/>
<polygon fill="#c0c0c0" stroke="#c0c0c0" stroke-width="2" points="892.3999,-405.8367 887.5574,-396.4133 885.4664,-406.7997 892.3999,-405.8367"/>
</g>
<!-- 21 -->
<g id="node22" class="node">
<title>21</title>
<path fill="none" stroke="#56d8b1" stroke-width="2" d="M1261,-324C1261,-324 1155,-324 1155,-324 1149,-324 1143,-318 1143,-312 1143,-312 1143,-300 1143,-300 1143,-294 1149,-288 1155,-288 1155,-288 1261,-288 1261,-288 1267,-288 1273,-294 1273,-300 1273,-300 1273,-312 1273,-312 1273,-318 1267,-324 1261,-324"/>
<text text-anchor="middle" x="1208" y="-303.5" font-family="sans" font-size="10.00" fill="#000000">gatk_base_recalibrator</text>
</g>
<!-- 21&#45;&gt;7 -->
<g id="edge13" class="edge">
<title>21&#45;&gt;7</title>
<path fill="none" stroke="#c0c0c0" stroke-width="2" d="M1237.2717,-287.8314C1252.1088,-278.6221 1270.3015,-267.3301 1286.1862,-257.4706"/>
<polygon fill="#c0c0c0" stroke="#c0c0c0" stroke-width="2" points="1288.087,-260.4102 1294.7377,-252.1628 1284.3955,-254.4628 1288.087,-260.4102"/>
</g>
<!-- 21&#45;&gt;11 -->
<g id="edge20" class="edge">
<title>21&#45;&gt;11</title>
<path fill="none" stroke="#c0c0c0" stroke-width="2" d="M1216.9409,-287.7603C1224.8624,-268.8391 1233.5319,-238.8745 1222,-216 1217.9284,-207.9236 1202.8397,-196.2378 1187.4286,-185.8011"/>
<polygon fill="#c0c0c0" stroke="#c0c0c0" stroke-width="2" points="1189.1734,-182.7589 1178.9016,-180.1623 1185.3122,-188.5977 1189.1734,-182.7589"/>
</g>
<!-- 29 -->
<g id="node30" class="node">
<title>29</title>
<path fill="none" stroke="#b6d856" stroke-width="2" d="M1168,-252C1168,-252 1056,-252 1056,-252 1050,-252 1044,-246 1044,-240 1044,-240 1044,-228 1044,-228 1044,-222 1050,-216 1056,-216 1056,-216 1168,-216 1168,-216 1174,-216 1180,-222 1180,-228 1180,-228 1180,-240 1180,-240 1180,-246 1174,-252 1168,-252"/>
<text text-anchor="middle" x="1112" y="-231.5" font-family="sans" font-size="10.00" fill="#000000">gatk_base_recalibrator2</text>
</g>
<!-- 21&#45;&gt;29 -->
<g id="edge47" class="edge">
<title>21&#45;&gt;29</title>
<path fill="none" stroke="#c0c0c0" stroke-width="2" d="M1183.7751,-287.8314C1171.8372,-278.8779 1157.2744,-267.9558 1144.394,-258.2955"/>
<polygon fill="#c0c0c0" stroke="#c0c0c0" stroke-width="2" points="1146.3171,-255.3629 1136.2171,-252.1628 1142.1171,-260.9629 1146.3171,-255.3629"/>
</g>
<!-- 21&#45;&gt;42 -->
<g id="edge73" class="edge">
<title>21&#45;&gt;42</title>
<path fill="none" stroke="#c0c0c0" stroke-width="2" d="M1209.8367,-287.8141C1210.8137,-267.1855 1208.827,-234.0738 1189,-216 1137.7473,-169.2791 947.7168,-189.3641 879,-180 857.674,-177.0939 834.1878,-173.4903 814.03,-170.2726"/>
<polygon fill="#c0c0c0" stroke="#c0c0c0" stroke-width="2" points="814.5534,-166.8119 804.1246,-168.68 813.4422,-173.7231 814.5534,-166.8119"/>
</g>
<!-- 22 -->
<g id="node23" class="node">
<title>22</title>
<path fill="none" stroke="#70d856" stroke-width="2" d="M1206,-1044C1206,-1044 1126,-1044 1126,-1044 1120,-1044 1114,-1038 1114,-1032 1114,-1032 1114,-1020 1114,-1020 1114,-1014 1120,-1008 1126,-1008 1126,-1008 1206,-1008 1206,-1008 1212,-1008 1218,-1014 1218,-1020 1218,-1020 1218,-1032 1218,-1032 1218,-1038 1212,-1044 1206,-1044"/>
<text text-anchor="middle" x="1166" y="-1029" font-family="sans" font-size="10.00" fill="#000000">merge_lane_bam</text>
<text text-anchor="middle" x="1166" y="-1018" font-family="sans" font-size="10.00" fill="#000000">sample: IG100&#45;P1</text>
</g>
<!-- 22&#45;&gt;16 -->
<g id="edge27" class="edge">
<title>22&#45;&gt;16</title>
<path fill="none" stroke="#c0c0c0" stroke-width="2" d="M1168.5234,-1007.8314C1169.5929,-1000.131 1170.8647,-990.9743 1172.0532,-982.4166"/>
<polygon fill="#c0c0c0" stroke="#c0c0c0" stroke-width="2" points="1175.5336,-982.7997 1173.4426,-972.4133 1168.6001,-981.8367 1175.5336,-982.7997"/>
</g>
<!-- 23 -->
<g id="node24" class="node">
<title>23</title>
<path fill="none" stroke="#88d856" stroke-width="2" d="M1047,-972C1047,-972 1017,-972 1017,-972 1011,-972 1005,-966 1005,-960 1005,-960 1005,-948 1005,-948 1005,-942 1011,-936 1017,-936 1017,-936 1047,-936 1047,-936 1053,-936 1059,-942 1059,-948 1059,-948 1059,-960 1059,-960 1059,-966 1053,-972 1047,-972"/>
<text text-anchor="middle" x="1032" y="-951.5" font-family="sans" font-size="10.00" fill="#000000">sort</text>
</g>
<!-- 22&#45;&gt;23 -->
<g id="edge39" class="edge">
<title>22&#45;&gt;23</title>
<path fill="none" stroke="#c0c0c0" stroke-width="2" d="M1132.1861,-1007.8314C1112.642,-997.33 1088.0576,-984.1205 1068.1335,-973.415"/>
<polygon fill="#c0c0c0" stroke="#c0c0c0" stroke-width="2" points="1069.522,-970.1879 1059.0564,-968.5378 1066.2087,-976.3541 1069.522,-970.1879"/>
</g>
<!-- 23&#45;&gt;6 -->
<g id="edge10" class="edge">
<title>23&#45;&gt;6</title>
<path fill="none" stroke="#c0c0c0" stroke-width="2" d="M1051.1979,-935.6291C1060.3249,-925.8663 1070.6119,-913.1774 1077,-900 1086.4338,-880.54 1091.2036,-856.4835 1093.604,-838.139"/>
<polygon fill="#c0c0c0" stroke="#c0c0c0" stroke-width="2" points="1097.0957,-838.4104 1094.7608,-828.076 1090.1415,-837.6108 1097.0957,-838.4104"/>
</g>
<!-- 47 -->
<g id="node48" class="node">
<title>47</title>
<path fill="none" stroke="#566bd8" stroke-width="2" d="M1055.5,-900C1055.5,-900 1008.5,-900 1008.5,-900 1002.5,-900 996.5,-894 996.5,-888 996.5,-888 996.5,-876 996.5,-876 996.5,-870 1002.5,-864 1008.5,-864 1008.5,-864 1055.5,-864 1055.5,-864 1061.5,-864 1067.5,-870 1067.5,-876 1067.5,-876 1067.5,-888 1067.5,-888 1067.5,-894 1061.5,-900 1055.5,-900"/>
<text text-anchor="middle" x="1032" y="-879.5" font-family="sans" font-size="10.00" fill="#000000">build_index</text>
</g>
<!-- 23&#45;&gt;47 -->
<g id="edge83" class="edge">
<title>23&#45;&gt;47</title>
<path fill="none" stroke="#c0c0c0" stroke-width="2" d="M1032,-935.8314C1032,-928.131 1032,-918.9743 1032,-910.4166"/>
<polygon fill="#c0c0c0" stroke="#c0c0c0" stroke-width="2" points="1035.5001,-910.4132 1032,-900.4133 1028.5001,-910.4133 1035.5001,-910.4132"/>
</g>
<!-- 55 -->
<g id="node56" class="node">
<title>55</title>
<path fill="none" stroke="#56d86b" stroke-width="2" d="M1007.5,-828C1007.5,-828 928.5,-828 928.5,-828 922.5,-828 916.5,-822 916.5,-816 916.5,-816 916.5,-804 916.5,-804 916.5,-798 922.5,-792 928.5,-792 928.5,-792 1007.5,-792 1007.5,-792 1013.5,-792 1019.5,-798 1019.5,-804 1019.5,-804 1019.5,-816 1019.5,-816 1019.5,-822 1013.5,-828 1007.5,-828"/>
<text text-anchor="middle" x="968" y="-813" font-family="sans" font-size="10.00" fill="#000000">split_bam_by_chr</text>
<text text-anchor="middle" x="968" y="-802" font-family="sans" font-size="10.00" fill="#000000">chr: 2</text>
</g>
<!-- 23&#45;&gt;55 -->
<g id="edge93" class="edge">
<title>23&#45;&gt;55</title>
<path fill="none" stroke="#c0c0c0" stroke-width="2" d="M1013.2977,-935.5293C1004.3911,-925.741 994.3276,-913.0595 988,-900 978.5486,-880.4933 973.4999,-856.4395 970.8408,-838.1079"/>
<polygon fill="#c0c0c0" stroke="#c0c0c0" stroke-width="2" points="974.294,-837.5198 969.5361,-828.0534 967.3522,-838.4207 974.294,-837.5198"/>
</g>
<!-- 24 -->
<g id="node25" class="node">
<title>24</title>
<path fill="none" stroke="#d8cb56" stroke-width="2" d="M1004.5,-1116C1004.5,-1116 869.5,-1116 869.5,-1116 863.5,-1116 857.5,-1110 857.5,-1104 857.5,-1104 857.5,-1092 857.5,-1092 857.5,-1086 863.5,-1080 869.5,-1080 869.5,-1080 1004.5,-1080 1004.5,-1080 1010.5,-1080 1016.5,-1086 1016.5,-1092 1016.5,-1092 1016.5,-1104 1016.5,-1104 1016.5,-1110 1010.5,-1116 1004.5,-1116"/>
<text text-anchor="middle" x="937" y="-1101" font-family="sans" font-size="10.00" fill="#000000">align</text>
<text text-anchor="middle" x="937" y="-1090" font-family="sans" font-size="10.00" fill="#000000">lane: MG0318&#45;In3_S15_L004</text>
</g>
<!-- 24&#45;&gt;22 -->
<g id="edge38" class="edge">
<title>24&#45;&gt;22</title>
<path fill="none" stroke="#c0c0c0" stroke-width="2" d="M994.4908,-1079.9243C1027.8929,-1069.4223 1069.9853,-1056.188 1104.1107,-1045.4587"/>
<polygon fill="#c0c0c0" stroke="#c0c0c0" stroke-width="2" points="1105.4778,-1048.6978 1113.9676,-1042.3595 1103.3782,-1042.0201 1105.4778,-1048.6978"/>
</g>
<!-- 33 -->
<g id="node34" class="node">
<title>33</title>
<path fill="none" stroke="#9fd856" stroke-width="2" d="M1195.5,-684C1195.5,-684 1064.5,-684 1064.5,-684 1058.5,-684 1052.5,-678 1052.5,-672 1052.5,-672 1052.5,-660 1052.5,-660 1052.5,-654 1058.5,-648 1064.5,-648 1064.5,-648 1195.5,-648 1195.5,-648 1201.5,-648 1207.5,-654 1207.5,-660 1207.5,-660 1207.5,-672 1207.5,-672 1207.5,-678 1201.5,-684 1195.5,-684"/>
<text text-anchor="middle" x="1130" y="-663.5" font-family="sans" font-size="10.00" fill="#000000">picard_fix_mate_information</text>
</g>
<!-- 25&#45;&gt;33 -->
<g id="edge53" class="edge">
<title>25&#45;&gt;33</title>
<path fill="none" stroke="#c0c0c0" stroke-width="2" d="M1112.8039,-719.8314C1115.2908,-712.0463 1118.2531,-702.7729 1121.0125,-694.1347"/>
<polygon fill="#c0c0c0" stroke="#c0c0c0" stroke-width="2" points="1124.409,-695.0041 1124.118,-684.4133 1117.7409,-692.874 1124.409,-695.0041"/>
</g>
<!-- 26 -->
<g id="node27" class="node">
<title>26</title>
<path fill="none" stroke="#d8cb56" stroke-width="2" d="M1181.5,-1116C1181.5,-1116 1046.5,-1116 1046.5,-1116 1040.5,-1116 1034.5,-1110 1034.5,-1104 1034.5,-1104 1034.5,-1092 1034.5,-1092 1034.5,-1086 1040.5,-1080 1046.5,-1080 1046.5,-1080 1181.5,-1080 1181.5,-1080 1187.5,-1080 1193.5,-1086 1193.5,-1092 1193.5,-1092 1193.5,-1104 1193.5,-1104 1193.5,-1110 1187.5,-1116 1181.5,-1116"/>
<text text-anchor="middle" x="1114" y="-1101" font-family="sans" font-size="10.00" fill="#000000">align</text>
<text text-anchor="middle" x="1114" y="-1090" font-family="sans" font-size="10.00" fill="#000000">lane: MG0318&#45;In3_S15_L001</text>
</g>
<!-- 26&#45;&gt;22 -->
<g id="edge37" class="edge">
<title>26&#45;&gt;22</title>
<path fill="none" stroke="#c0c0c0" stroke-width="2" d="M1127.1218,-1079.8314C1133.0499,-1071.6232 1140.1729,-1061.7606 1146.6933,-1052.7323"/>
<polygon fill="#c0c0c0" stroke="#c0c0c0" stroke-width="2" points="1149.684,-1054.5693 1152.7015,-1044.4133 1144.0092,-1050.4708 1149.684,-1054.5693"/>
</g>
<!-- 27 -->
<g id="node28" class="node">
<title>27</title>
<path fill="none" stroke="#88d856" stroke-width="2" d="M468,-972C468,-972 438,-972 438,-972 432,-972 426,-966 426,-960 426,-960 426,-948 426,-948 426,-942 432,-936 438,-936 438,-936 468,-936 468,-936 474,-936 480,-942 480,-948 480,-948 480,-960 480,-960 480,-966 474,-972 468,-972"/>
<text text-anchor="middle" x="453" y="-951.5" font-family="sans" font-size="10.00" fill="#000000">sort</text>
</g>
<!-- 30 -->
<g id="node31" class="node">
<title>30</title>
<path fill="none" stroke="#56d86b" stroke-width="2" d="M396.5,-828C396.5,-828 317.5,-828 317.5,-828 311.5,-828 305.5,-822 305.5,-816 305.5,-816 305.5,-804 305.5,-804 305.5,-798 311.5,-792 317.5,-792 317.5,-792 396.5,-792 396.5,-792 402.5,-792 408.5,-798 408.5,-804 408.5,-804 408.5,-816 408.5,-816 408.5,-822 402.5,-828 396.5,-828"/>
<text text-anchor="middle" x="357" y="-813" font-family="sans" font-size="10.00" fill="#000000">split_bam_by_chr</text>
<text text-anchor="middle" x="357" y="-802" font-family="sans" font-size="10.00" fill="#000000">chr: 1</text>
</g>
<!-- 27&#45;&gt;30 -->
<g id="edge49" class="edge">
<title>27&#45;&gt;30</title>
<path fill="none" stroke="#c0c0c0" stroke-width="2" d="M425.7959,-941.5403C408.8954,-932.4048 388.1466,-918.3938 376,-900 363.8794,-881.6456 359.3012,-856.989 357.658,-838.1249"/>
<polygon fill="#c0c0c0" stroke="#c0c0c0" stroke-width="2" points="361.1445,-837.8018 357.0062,-828.0486 354.1591,-838.2537 361.1445,-837.8018"/>
</g>
<!-- 37 -->
<g id="node38" class="node">
<title>37</title>
<path fill="none" stroke="#566bd8" stroke-width="2" d="M444.5,-900C444.5,-900 397.5,-900 397.5,-900 391.5,-900 385.5,-894 385.5,-888 385.5,-888 385.5,-876 385.5,-876 385.5,-870 391.5,-864 397.5,-864 397.5,-864 444.5,-864 444.5,-864 450.5,-864 456.5,-870 456.5,-876 456.5,-876 456.5,-888 456.5,-888 456.5,-894 450.5,-900 444.5,-900"/>
<text text-anchor="middle" x="421" y="-879.5" font-family="sans" font-size="10.00" fill="#000000">build_index</text>
</g>
<!-- 27&#45;&gt;37 -->
<g id="edge62" class="edge">
<title>27&#45;&gt;37</title>
<path fill="none" stroke="#c0c0c0" stroke-width="2" d="M444.925,-935.8314C441.3898,-927.8771 437.164,-918.369 433.2544,-909.5723"/>
<polygon fill="#c0c0c0" stroke="#c0c0c0" stroke-width="2" points="436.4435,-908.1299 429.1837,-900.4133 430.0468,-910.9729 436.4435,-908.1299"/>
</g>
<!-- 66 -->
<g id="node67" class="node">
<title>66</title>
<path fill="none" stroke="#56d86b" stroke-width="2" d="M520.5,-828C520.5,-828 441.5,-828 441.5,-828 435.5,-828 429.5,-822 429.5,-816 429.5,-816 429.5,-804 429.5,-804 429.5,-798 435.5,-792 441.5,-792 441.5,-792 520.5,-792 520.5,-792 526.5,-792 532.5,-798 532.5,-804 532.5,-804 532.5,-816 532.5,-816 532.5,-822 526.5,-828 520.5,-828"/>
<text text-anchor="middle" x="481" y="-813" font-family="sans" font-size="10.00" fill="#000000">split_bam_by_chr</text>
<text text-anchor="middle" x="481" y="-802" font-family="sans" font-size="10.00" fill="#000000">chr: 2</text>
</g>
<!-- 27&#45;&gt;66 -->
<g id="edge110" class="edge">
<title>27&#45;&gt;66</title>
<path fill="none" stroke="#c0c0c0" stroke-width="2" d="M457.7785,-935.578C460.3908,-925.1736 463.5779,-911.9061 466,-900 470.1776,-879.4647 474.0433,-856.1189 476.8037,-838.3513"/>
<polygon fill="#c0c0c0" stroke="#c0c0c0" stroke-width="2" points="480.2825,-838.7558 478.3339,-828.3417 473.3629,-837.6979 480.2825,-838.7558"/>
</g>
<!-- 28&#45;&gt;17 -->
<g id="edge28" class="edge">
<title>28&#45;&gt;17</title>
<path fill="none" stroke="#c0c0c0" stroke-width="2" d="M587.0985,-1023.1235C699.295,-1016.5524 961.4898,-999.0806 1067.1717,-971.5237"/>
<polygon fill="#c0c0c0" stroke="#c0c0c0" stroke-width="2" points="1068.1993,-974.8709 1076.9,-968.8254 1066.3284,-968.1255 1068.1993,-974.8709"/>
</g>
<!-- 28&#45;&gt;27 -->
<g id="edge41" class="edge">
<title>28&#45;&gt;27</title>
<path fill="none" stroke="#c0c0c0" stroke-width="2" d="M514.3079,-1007.8314C504.3052,-999.0485 492.145,-988.3712 481.3001,-978.8489"/>
<polygon fill="#c0c0c0" stroke="#c0c0c0" stroke-width="2" points="483.5092,-976.1308 473.6854,-972.1628 478.8906,-981.3909 483.5092,-976.1308"/>
</g>
<!-- 29&#45;&gt;42 -->
<g id="edge72" class="edge">
<title>29&#45;&gt;42</title>
<path fill="none" stroke="#c0c0c0" stroke-width="2" d="M1043.5926,-217.8853C1040.6913,-217.2409 1037.8177,-216.6099 1035,-216 958.1348,-199.3623 868.584,-181.8892 814.115,-171.4733"/>
<polygon fill="#c0c0c0" stroke="#c0c0c0" stroke-width="2" points="814.5123,-167.9861 804.0335,-169.5495 813.2002,-174.862 814.5123,-167.9861"/>
</g>
<!-- 40 -->
<g id="node41" class="node">
<title>40</title>
<path fill="none" stroke="#56b1d8" stroke-width="2" d="M357,-756C357,-756 277,-756 277,-756 271,-756 265,-750 265,-744 265,-744 265,-732 265,-732 265,-726 271,-720 277,-720 277,-720 357,-720 357,-720 363,-720 369,-726 369,-732 369,-732 369,-744 369,-744 369,-750 363,-756 357,-756"/>
<text text-anchor="middle" x="317" y="-735.5" font-family="sans" font-size="10.00" fill="#000000">picard_clean_sam</text>
</g>
<!-- 30&#45;&gt;40 -->
<g id="edge65" class="edge">
<title>30&#45;&gt;40</title>
<path fill="none" stroke="#c0c0c0" stroke-width="2" d="M346.9063,-791.8314C342.4403,-783.7925 337.0925,-774.1666 332.1621,-765.2918"/>
<polygon fill="#c0c0c0" stroke="#c0c0c0" stroke-width="2" points="335.1456,-763.4551 327.2296,-756.4133 329.0265,-766.8546 335.1456,-763.4551"/>
</g>
<!-- 31&#45;&gt;8 -->
<g id="edge15" class="edge">
<title>31&#45;&gt;8</title>
<path fill="none" stroke="#c0c0c0" stroke-width="2" d="M540.6167,-359.908C554.8173,-350.7912 570.4694,-338.5633 581,-324 594.2488,-305.6776 601.6359,-281.0186 605.6336,-262.1454"/>
<polygon fill="#c0c0c0" stroke="#c0c0c0" stroke-width="2" points="609.1209,-262.5438 607.5681,-252.0634 602.2463,-261.2247 609.1209,-262.5438"/>
</g>
<!-- 50 -->
<g id="node51" class="node">
<title>50</title>
<path fill="none" stroke="#56d8b1" stroke-width="2" d="M560,-324C560,-324 454,-324 454,-324 448,-324 442,-318 442,-312 442,-312 442,-300 442,-300 442,-294 448,-288 454,-288 454,-288 560,-288 560,-288 566,-288 572,-294 572,-300 572,-300 572,-312 572,-312 572,-318 566,-324 560,-324"/>
<text text-anchor="middle" x="507" y="-303.5" font-family="sans" font-size="10.00" fill="#000000">gatk_base_recalibrator</text>
</g>
<!-- 31&#45;&gt;50 -->
<g id="edge87" class="edge">
<title>31&#45;&gt;50</title>
<path fill="none" stroke="#c0c0c0" stroke-width="2" d="M507,-359.8314C507,-352.131 507,-342.9743 507,-334.4166"/>
<polygon fill="#c0c0c0" stroke="#c0c0c0" stroke-width="2" points="510.5001,-334.4132 507,-324.4133 503.5001,-334.4133 510.5001,-334.4132"/>
</g>
<!-- 65 -->
<g id="node66" class="node">
<title>65</title>
<path fill="none" stroke="#56d882" stroke-width="2" d="M436,-252C436,-252 360,-252 360,-252 354,-252 348,-246 348,-240 348,-240 348,-228 348,-228 348,-222 354,-216 360,-216 360,-216 436,-216 436,-216 442,-216 448,-222 448,-228 448,-228 448,-240 448,-240 448,-246 442,-252 436,-252"/>
<text text-anchor="middle" x="398" y="-231.5" font-family="sans" font-size="10.00" fill="#000000">gatk_print_reads</text>
</g>
<!-- 31&#45;&gt;65 -->
<g id="edge108" class="edge">
<title>31&#45;&gt;65</title>
<path fill="none" stroke="#c0c0c0" stroke-width="2" d="M474.1569,-359.8533C459.9372,-350.6517 444.0537,-338.3714 433,-324 418.8566,-305.6116 409.777,-280.8068 404.4193,-261.8946"/>
<polygon fill="#c0c0c0" stroke="#c0c0c0" stroke-width="2" points="407.7614,-260.8424 401.8172,-252.0722 400.9948,-262.6351 407.7614,-260.8424"/>
</g>
<!-- 32 -->
<g id="node33" class="node">
<title>32</title>
<path fill="none" stroke="#d8cb56" stroke-width="2" d="M447.5,-1116C447.5,-1116 318.5,-1116 318.5,-1116 312.5,-1116 306.5,-1110 306.5,-1104 306.5,-1104 306.5,-1092 306.5,-1092 306.5,-1086 312.5,-1080 318.5,-1080 318.5,-1080 447.5,-1080 447.5,-1080 453.5,-1080 459.5,-1086 459.5,-1092 459.5,-1092 459.5,-1104 459.5,-1104 459.5,-1110 453.5,-1116 447.5,-1116"/>
<text text-anchor="middle" x="383" y="-1101" font-family="sans" font-size="10.00" fill="#000000">align</text>
<text text-anchor="middle" x="383" y="-1090" font-family="sans" font-size="10.00" fill="#000000">lane: MG0402&#45;In2_S3_L004</text>
</g>
<!-- 32&#45;&gt;28 -->
<g id="edge43" class="edge">
<title>32&#45;&gt;28</title>
<path fill="none" stroke="#c0c0c0" stroke-width="2" d="M421.356,-1079.8314C441.5044,-1070.2874 466.3752,-1058.5065 487.7083,-1048.4013"/>
<polygon fill="#c0c0c0" stroke="#c0c0c0" stroke-width="2" points="489.3807,-1051.482 496.9198,-1044.038 486.3841,-1045.1558 489.3807,-1051.482"/>
</g>
<!-- 46 -->
<g id="node47" class="node">
<title>46</title>
<path fill="none" stroke="#d8b456" stroke-width="2" d="M1171.5,-612C1171.5,-612 1090.5,-612 1090.5,-612 1084.5,-612 1078.5,-606 1078.5,-600 1078.5,-600 1078.5,-588 1078.5,-588 1078.5,-582 1084.5,-576 1090.5,-576 1090.5,-576 1171.5,-576 1171.5,-576 1177.5,-576 1183.5,-582 1183.5,-588 1183.5,-588 1183.5,-600 1183.5,-600 1183.5,-606 1177.5,-612 1171.5,-612"/>
<text text-anchor="middle" x="1131" y="-591.5" font-family="sans" font-size="10.00" fill="#000000">picard_mark_dups</text>
</g>
<!-- 33&#45;&gt;46 -->
<g id="edge82" class="edge">
<title>33&#45;&gt;46</title>
<path fill="none" stroke="#c0c0c0" stroke-width="2" d="M1130.2523,-647.8314C1130.3593,-640.131 1130.4865,-630.9743 1130.6053,-622.4166"/>
<polygon fill="#c0c0c0" stroke="#c0c0c0" stroke-width="2" points="1134.1049,-622.4609 1130.7443,-612.4133 1127.1056,-622.3637 1134.1049,-622.4609"/>
</g>
<!-- 34&#45;&gt;42 -->
<g id="edge67" class="edge">
<title>34&#45;&gt;42</title>
<path fill="none" stroke="#c0c0c0" stroke-width="2" d="M330.3576,-217.634C333.2725,-217.0584 336.1626,-216.5105 339,-216 473.5097,-191.7995 633.8839,-174.5192 713.6936,-166.6929"/>
<polygon fill="#c0c0c0" stroke="#c0c0c0" stroke-width="2" points="714.3323,-170.1474 723.9467,-165.6962 713.6549,-163.1803 714.3323,-170.1474"/>
</g>
<!-- 35&#45;&gt;7 -->
<g id="edge12" class="edge">
<title>35&#45;&gt;7</title>
<path fill="none" stroke="#c0c0c0" stroke-width="2" d="M1237.6405,-359.9143C1252.7359,-350.725 1269.7425,-338.4376 1282,-324 1297.5135,-305.7273 1308.5634,-280.7605 1315.4229,-261.7581"/>
<polygon fill="#c0c0c0" stroke="#c0c0c0" stroke-width="2" points="1318.7798,-262.7587 1318.7168,-252.164 1312.1592,-260.4856 1318.7798,-262.7587"/>
</g>
<!-- 35&#45;&gt;21 -->
<g id="edge34" class="edge">
<title>35&#45;&gt;21</title>
<path fill="none" stroke="#c0c0c0" stroke-width="2" d="M1204.2617,-359.8314C1204.7965,-352.131 1205.4323,-342.9743 1206.0266,-334.4166"/>
<polygon fill="#c0c0c0" stroke="#c0c0c0" stroke-width="2" points="1209.52,-334.6317 1206.7213,-324.4133 1202.5368,-334.1467 1209.52,-334.6317"/>
</g>
<!-- 35&#45;&gt;29 -->
<g id="edge46" class="edge">
<title>35&#45;&gt;29</title>
<path fill="none" stroke="#c0c0c0" stroke-width="2" d="M1171.1901,-359.7938C1157.8591,-350.655 1143.3227,-338.4413 1134,-324 1122.0574,-305.5004 1116.5964,-281.0503 1114.0999,-262.3036"/>
<polygon fill="#c0c0c0" stroke="#c0c0c0" stroke-width="2" points="1117.5685,-261.8271 1112.9707,-252.2819 1110.6125,-262.6109 1117.5685,-261.8271"/>
</g>
<!-- 36&#45;&gt;4 -->
<g id="edge9" class="edge">
<title>36&#45;&gt;4</title>
<path fill="none" stroke="#c0c0c0" stroke-width="2" d="M135.6363,-359.9938C120.8303,-350.7448 104.0664,-338.3866 92,-324 76.5964,-305.6346 65.537,-280.6758 58.646,-261.7"/>
<polygon fill="#c0c0c0" stroke="#c0c0c0" stroke-width="2" points="61.9097,-260.4285 55.3335,-252.1216 55.2942,-262.7164 61.9097,-260.4285"/>
</g>
<!-- 36&#45;&gt;12 -->
<g id="edge21" class="edge">
<title>36&#45;&gt;12</title>
<path fill="none" stroke="#c0c0c0" stroke-width="2" d="M168.243,-359.8314C167.9221,-352.131 167.5406,-342.9743 167.184,-334.4166"/>
<polygon fill="#c0c0c0" stroke="#c0c0c0" stroke-width="2" points="170.6806,-334.2589 166.7672,-324.4133 163.6867,-334.5503 170.6806,-334.2589"/>
</g>
<!-- 36&#45;&gt;34 -->
<g id="edge55" class="edge">
<title>36&#45;&gt;34</title>
<path fill="none" stroke="#c0c0c0" stroke-width="2" d="M201.7323,-359.9764C215.4497,-350.8729 230.4075,-338.6364 240,-324 252.0701,-305.5834 257.5223,-281.1275 259.9829,-262.3575"/>
<polygon fill="#c0c0c0" stroke="#c0c0c0" stroke-width="2" points="263.4724,-262.6443 261.0894,-252.321 256.5146,-261.8772 263.4724,-262.6443"/>
</g>
<!-- 37&#45;&gt;30 -->
<g id="edge48" class="edge">
<title>37&#45;&gt;30</title>
<path fill="none" stroke="#c0c0c0" stroke-width="2" d="M404.8501,-863.8314C397.3283,-855.3694 388.2435,-845.1489 380.0196,-835.8971"/>
<polygon fill="#c0c0c0" stroke="#c0c0c0" stroke-width="2" points="382.627,-833.5621 373.3673,-828.4133 377.3951,-838.2127 382.627,-833.5621"/>
</g>
<!-- 37&#45;&gt;66 -->
<g id="edge109" class="edge">
<title>37&#45;&gt;66</title>
<path fill="none" stroke="#c0c0c0" stroke-width="2" d="M436.1405,-863.8314C443.1217,-855.454 451.5391,-845.3531 459.1876,-836.1749"/>
<polygon fill="#c0c0c0" stroke="#c0c0c0" stroke-width="2" points="461.9425,-838.3362 465.6556,-828.4133 456.5649,-833.8548 461.9425,-838.3362"/>
</g>
<!-- 38 -->
<g id="node39" class="node">
<title>38</title>
<path fill="none" stroke="#9fd856" stroke-width="2" d="M1019.5,-684C1019.5,-684 888.5,-684 888.5,-684 882.5,-684 876.5,-678 876.5,-672 876.5,-672 876.5,-660 876.5,-660 876.5,-654 882.5,-648 888.5,-648 888.5,-648 1019.5,-648 1019.5,-648 1025.5,-648 1031.5,-654 1031.5,-660 1031.5,-660 1031.5,-672 1031.5,-672 1031.5,-678 1025.5,-684 1019.5,-684"/>
<text text-anchor="middle" x="954" y="-663.5" font-family="sans" font-size="10.00" fill="#000000">picard_fix_mate_information</text>
</g>
<!-- 38&#45;&gt;19 -->
<g id="edge31" class="edge">
<title>38&#45;&gt;19</title>
<path fill="none" stroke="#c0c0c0" stroke-width="2" d="M953.4953,-647.8314C953.2814,-640.131 953.0271,-630.9743 952.7894,-622.4166"/>
<polygon fill="#c0c0c0" stroke="#c0c0c0" stroke-width="2" points="956.2879,-622.3122 952.5115,-612.4133 949.2906,-622.5066 956.2879,-622.3122"/>
</g>
<!-- 39 -->
<g id="node40" class="node">
<title>39</title>
<path fill="none" stroke="#56b1d8" stroke-width="2" d="M1004,-756C1004,-756 924,-756 924,-756 918,-756 912,-750 912,-744 912,-744 912,-732 912,-732 912,-726 918,-720 924,-720 924,-720 1004,-720 1004,-720 1010,-720 1016,-726 1016,-732 1016,-732 1016,-744 1016,-744 1016,-750 1010,-756 1004,-756"/>
<text text-anchor="middle" x="964" y="-735.5" font-family="sans" font-size="10.00" fill="#000000">picard_clean_sam</text>
</g>
<!-- 39&#45;&gt;38 -->
<g id="edge63" class="edge">
<title>39&#45;&gt;38</title>
<path fill="none" stroke="#c0c0c0" stroke-width="2" d="M961.4766,-719.8314C960.4071,-712.131 959.1353,-702.9743 957.9468,-694.4166"/>
<polygon fill="#c0c0c0" stroke="#c0c0c0" stroke-width="2" points="961.3999,-693.8367 956.5574,-684.4133 954.4664,-694.7997 961.3999,-693.8367"/>
</g>
<!-- 43 -->
<g id="node44" class="node">
<title>43</title>
<path fill="none" stroke="#9fd856" stroke-width="2" d="M339.5,-684C339.5,-684 208.5,-684 208.5,-684 202.5,-684 196.5,-678 196.5,-672 196.5,-672 196.5,-660 196.5,-660 196.5,-654 202.5,-648 208.5,-648 208.5,-648 339.5,-648 339.5,-648 345.5,-648 351.5,-654 351.5,-660 351.5,-660 351.5,-672 351.5,-672 351.5,-678 345.5,-684 339.5,-684"/>
<text text-anchor="middle" x="274" y="-663.5" font-family="sans" font-size="10.00" fill="#000000">picard_fix_mate_information</text>
</g>
<!-- 40&#45;&gt;43 -->
<g id="edge74" class="edge">
<title>40&#45;&gt;43</title>
<path fill="none" stroke="#c0c0c0" stroke-width="2" d="M306.1493,-719.8314C301.2977,-711.7079 295.4783,-701.9637 290.132,-693.0118"/>
<polygon fill="#c0c0c0" stroke="#c0c0c0" stroke-width="2" points="293.1292,-691.2041 284.9968,-684.4133 287.1194,-694.7933 293.1292,-691.2041"/>
</g>
<!-- 41 -->
<g id="node42" class="node">
<title>41</title>
<path fill="none" stroke="#d8cb56" stroke-width="2" d="M1358.5,-1116C1358.5,-1116 1223.5,-1116 1223.5,-1116 1217.5,-1116 1211.5,-1110 1211.5,-1104 1211.5,-1104 1211.5,-1092 1211.5,-1092 1211.5,-1086 1217.5,-1080 1223.5,-1080 1223.5,-1080 1358.5,-1080 1358.5,-1080 1364.5,-1080 1370.5,-1086 1370.5,-1092 1370.5,-1092 1370.5,-1104 1370.5,-1104 1370.5,-1110 1364.5,-1116 1358.5,-1116"/>
<text text-anchor="middle" x="1291" y="-1101" font-family="sans" font-size="10.00" fill="#000000">align</text>
<text text-anchor="middle" x="1291" y="-1090" font-family="sans" font-size="10.00" fill="#000000">lane: MG0318&#45;In3_S15_L003</text>
</g>
<!-- 41&#45;&gt;22 -->
<g id="edge35" class="edge">
<title>41&#45;&gt;22</title>
<path fill="none" stroke="#c0c0c0" stroke-width="2" d="M1259.4572,-1079.8314C1243.3209,-1070.5368 1223.5014,-1059.1208 1206.2728,-1049.1971"/>
<polygon fill="#c0c0c0" stroke="#c0c0c0" stroke-width="2" points="1207.945,-1046.1212 1197.5327,-1044.1628 1204.4511,-1052.187 1207.945,-1046.1212"/>
</g>
<!-- 42&#45;&gt;45 -->
<g id="edge80" class="edge">
<title>42&#45;&gt;45</title>
<path fill="none" stroke="#c0c0c0" stroke-width="2" d="M784.1375,-143.7623C812.3324,-118.2272 863.6713,-71.7316 895.4062,-42.9906"/>
<polygon fill="#c0c0c0" stroke="#c0c0c0" stroke-width="2" points="897.9635,-45.3967 903.026,-36.0896 893.2645,-40.2082 897.9635,-45.3967"/>
</g>
<!-- 53 -->
<g id="node54" class="node">
<title>53</title>
<path fill="none" stroke="#d8b456" stroke-width="2" d="M295.5,-612C295.5,-612 214.5,-612 214.5,-612 208.5,-612 202.5,-606 202.5,-600 202.5,-600 202.5,-588 202.5,-588 202.5,-582 208.5,-576 214.5,-576 214.5,-576 295.5,-576 295.5,-576 301.5,-576 307.5,-582 307.5,-588 307.5,-588 307.5,-600 307.5,-600 307.5,-606 301.5,-612 295.5,-612"/>
<text text-anchor="middle" x="255" y="-591.5" font-family="sans" font-size="10.00" fill="#000000">picard_mark_dups</text>
</g>
<!-- 43&#45;&gt;53 -->
<g id="edge89" class="edge">
<title>43&#45;&gt;53</title>
<path fill="none" stroke="#c0c0c0" stroke-width="2" d="M269.2055,-647.8314C267.1511,-640.0463 264.704,-630.7729 262.4244,-622.1347"/>
<polygon fill="#c0c0c0" stroke="#c0c0c0" stroke-width="2" points="265.7948,-621.1892 259.8591,-612.4133 259.0265,-622.9753 265.7948,-621.1892"/>
</g>
<!-- 44 -->
<g id="node45" class="node">
<title>44</title>
<path fill="none" stroke="#56b1d8" stroke-width="2" d="M521,-756C521,-756 441,-756 441,-756 435,-756 429,-750 429,-744 429,-744 429,-732 429,-732 429,-726 435,-720 441,-720 441,-720 521,-720 521,-720 527,-720 533,-726 533,-732 533,-732 533,-744 533,-744 533,-750 527,-756 521,-756"/>
<text text-anchor="middle" x="481" y="-735.5" font-family="sans" font-size="10.00" fill="#000000">picard_clean_sam</text>
</g>
<!-- 52 -->
<g id="node53" class="node">
<title>52</title>
<path fill="none" stroke="#9fd856" stroke-width="2" d="M546.5,-684C546.5,-684 415.5,-684 415.5,-684 409.5,-684 403.5,-678 403.5,-672 403.5,-672 403.5,-660 403.5,-660 403.5,-654 409.5,-648 415.5,-648 415.5,-648 546.5,-648 546.5,-648 552.5,-648 558.5,-654 558.5,-660 558.5,-660 558.5,-672 558.5,-672 558.5,-678 552.5,-684 546.5,-684"/>
<text text-anchor="middle" x="481" y="-663.5" font-family="sans" font-size="10.00" fill="#000000">picard_fix_mate_information</text>
</g>
<!-- 44&#45;&gt;52 -->
<g id="edge88" class="edge">
<title>44&#45;&gt;52</title>
<path fill="none" stroke="#c0c0c0" stroke-width="2" d="M481,-719.8314C481,-712.131 481,-702.9743 481,-694.4166"/>
<polygon fill="#c0c0c0" stroke="#c0c0c0" stroke-width="2" points="484.5001,-694.4132 481,-684.4133 477.5001,-694.4133 484.5001,-694.4132"/>
</g>
<!-- 46&#45;&gt;1 -->
<g id="edge3" class="edge">
<title>46&#45;&gt;1</title>
<path fill="none" stroke="#c0c0c0" stroke-width="2" d="M1155.9819,-575.8314C1168.2928,-566.8779 1183.3107,-555.9558 1196.5937,-546.2955"/>
<polygon fill="#c0c0c0" stroke="#c0c0c0" stroke-width="2" points="1198.9973,-548.8752 1205.0261,-540.1628 1194.8801,-543.214 1198.9973,-548.8752"/>
</g>
<!-- 46&#45;&gt;35 -->
<g id="edge57" class="edge">
<title>46&#45;&gt;35</title>
<path fill="none" stroke="#c0c0c0" stroke-width="2" d="M1126.1716,-575.7938C1118.9052,-544.496 1108.3662,-479.3003 1132,-432 1138.0123,-419.967 1148.1183,-409.8829 1158.8479,-401.8105"/>
<polygon fill="#c0c0c0" stroke="#c0c0c0" stroke-width="2" points="1160.9259,-404.6284 1167.117,-396.0307 1156.9156,-398.891 1160.9259,-404.6284"/>
</g>
<!-- 46&#45;&gt;48 -->
<g id="edge85" class="edge">
<title>46&#45;&gt;48</title>
<path fill="none" stroke="#c0c0c0" stroke-width="2" d="M1137.7975,-575.7095C1144.8657,-557.2648 1156.6125,-528.1448 1169,-504 1173.6901,-494.8584 1179.3572,-485.1897 1184.6617,-476.599"/>
<polygon fill="#c0c0c0" stroke="#c0c0c0" stroke-width="2" points="1187.6429,-478.4328 1190.0021,-468.104 1181.7167,-474.7073 1187.6429,-478.4328"/>
</g>
<!-- 47&#45;&gt;6 -->
<g id="edge11" class="edge">
<title>47&#45;&gt;6</title>
<path fill="none" stroke="#c0c0c0" stroke-width="2" d="M1048.1499,-863.8314C1055.6717,-855.3694 1064.7565,-845.1489 1072.9804,-835.8971"/>
<polygon fill="#c0c0c0" stroke="#c0c0c0" stroke-width="2" points="1075.6049,-838.2127 1079.6327,-828.4133 1070.373,-833.5621 1075.6049,-838.2127"/>
</g>
<!-- 47&#45;&gt;55 -->
<g id="edge94" class="edge">
<title>47&#45;&gt;55</title>
<path fill="none" stroke="#c0c0c0" stroke-width="2" d="M1015.8501,-863.8314C1008.3283,-855.3694 999.2435,-845.1489 991.0196,-835.8971"/>
<polygon fill="#c0c0c0" stroke="#c0c0c0" stroke-width="2" points="993.627,-833.5621 984.3673,-828.4133 988.3951,-838.2127 993.627,-833.5621"/>
</g>
<!-- 48&#45;&gt;35 -->
<g id="edge58" class="edge">
<title>48&#45;&gt;35</title>
<path fill="none" stroke="#c0c0c0" stroke-width="2" d="M1202.2523,-431.8314C1202.3593,-424.131 1202.4865,-414.9743 1202.6053,-406.4166"/>
<polygon fill="#c0c0c0" stroke="#c0c0c0" stroke-width="2" points="1206.1049,-406.4609 1202.7443,-396.4133 1199.1056,-406.3637 1206.1049,-406.4609"/>
</g>
<!-- 49 -->
<g id="node50" class="node">
<title>49</title>
<path fill="none" stroke="#56d8b1" stroke-width="2" d="M936,-324C936,-324 830,-324 830,-324 824,-324 818,-318 818,-312 818,-312 818,-300 818,-300 818,-294 824,-288 830,-288 830,-288 936,-288 936,-288 942,-288 948,-294 948,-300 948,-300 948,-312 948,-312 948,-318 942,-324 936,-324"/>
<text text-anchor="middle" x="883" y="-303.5" font-family="sans" font-size="10.00" fill="#000000">gatk_base_recalibrator</text>
</g>
<!-- 49&#45;&gt;3 -->
<g id="edge7" class="edge">
<title>49&#45;&gt;3</title>
<path fill="none" stroke="#c0c0c0" stroke-width="2" d="M852.9713,-287.8314C837.7504,-278.6221 819.0872,-267.3301 802.7917,-257.4706"/>
<polygon fill="#c0c0c0" stroke="#c0c0c0" stroke-width="2" points="804.3868,-254.345 794.0191,-252.1628 800.7631,-260.3341 804.3868,-254.345"/>
</g>
<!-- 49&#45;&gt;42 -->
<g id="edge69" class="edge">
<title>49&#45;&gt;42</title>
<path fill="none" stroke="#c0c0c0" stroke-width="2" d="M877.6665,-287.8784C871.2979,-268.5086 859.172,-237.6661 841,-216 831.196,-204.3109 818.291,-193.9608 805.8547,-185.5296"/>
<polygon fill="#c0c0c0" stroke="#c0c0c0" stroke-width="2" points="807.6547,-182.5252 797.3637,-180.0062 803.8377,-188.3929 807.6547,-182.5252"/>
</g>
<!-- 56 -->
<g id="node57" class="node">
<title>56</title>
<path fill="none" stroke="#56d882" stroke-width="2" d="M1014,-252C1014,-252 938,-252 938,-252 932,-252 926,-246 926,-240 926,-240 926,-228 926,-228 926,-222 932,-216 938,-216 938,-216 1014,-216 1014,-216 1020,-216 1026,-222 1026,-228 1026,-228 1026,-240 1026,-240 1026,-246 1020,-252 1014,-252"/>
<text text-anchor="middle" x="976" y="-231.5" font-family="sans" font-size="10.00" fill="#000000">gatk_print_reads</text>
</g>
<!-- 49&#45;&gt;56 -->
<g id="edge96" class="edge">
<title>49&#45;&gt;56</title>
<path fill="none" stroke="#c0c0c0" stroke-width="2" d="M906.4678,-287.8314C918.0327,-278.8779 932.1404,-267.9558 944.6183,-258.2955"/>
<polygon fill="#c0c0c0" stroke="#c0c0c0" stroke-width="2" points="946.775,-261.0521 952.5397,-252.1628 942.4898,-255.5171 946.775,-261.0521"/>
</g>
<!-- 59 -->
<g id="node60" class="node">
<title>59</title>
<path fill="none" stroke="#59d856" stroke-width="2" d="M1000.5,-180C1000.5,-180 899.5,-180 899.5,-180 893.5,-180 887.5,-174 887.5,-168 887.5,-168 887.5,-156 887.5,-156 887.5,-150 893.5,-144 899.5,-144 899.5,-144 1000.5,-144 1000.5,-144 1006.5,-144 1012.5,-150 1012.5,-156 1012.5,-156 1012.5,-168 1012.5,-168 1012.5,-174 1006.5,-180 1000.5,-180"/>
<text text-anchor="middle" x="950" y="-159.5" font-family="sans" font-size="10.00" fill="#000000">gatk_haplotype_caller</text>
</g>
<!-- 49&#45;&gt;59 -->
<g id="edge101" class="edge">
<title>49&#45;&gt;59</title>
<path fill="none" stroke="#c0c0c0" stroke-width="2" d="M888.6904,-287.9968C894.7834,-269.5261 905.1852,-240.157 917,-216 921.5141,-206.7702 927.1338,-197.0778 932.449,-188.4924"/>
<polygon fill="#c0c0c0" stroke="#c0c0c0" stroke-width="2" points="935.426,-190.3332 937.8186,-180.0121 929.5119,-186.5885 935.426,-190.3332"/>
</g>
<!-- 50&#45;&gt;8 -->
<g id="edge14" class="edge">
<title>50&#45;&gt;8</title>
<path fill="none" stroke="#c0c0c0" stroke-width="2" d="M532.9912,-287.8314C545.9216,-278.7927 561.7222,-267.7476 575.6383,-258.0198"/>
<polygon fill="#c0c0c0" stroke="#c0c0c0" stroke-width="2" points="577.8263,-260.7608 584.0171,-252.1628 573.8157,-255.0235 577.8263,-260.7608"/>
</g>
<!-- 50&#45;&gt;42 -->
<g id="edge70" class="edge">
<title>50&#45;&gt;42</title>
<path fill="none" stroke="#c0c0c0" stroke-width="2" d="M507.1013,-287.7119C508.2418,-267.3047 513.3055,-234.7038 533,-216 558.6194,-191.6694 653.6594,-175.6962 713.5592,-167.8068"/>
<polygon fill="#c0c0c0" stroke="#c0c0c0" stroke-width="2" points="714.1097,-171.2649 723.582,-166.5187 713.2174,-164.322 714.1097,-171.2649"/>
</g>
<!-- 61 -->
<g id="node62" class="node">
<title>61</title>
<path fill="none" stroke="#59d856" stroke-width="2" d="M490.5,-180C490.5,-180 389.5,-180 389.5,-180 383.5,-180 377.5,-174 377.5,-168 377.5,-168 377.5,-156 377.5,-156 377.5,-150 383.5,-144 389.5,-144 389.5,-144 490.5,-144 490.5,-144 496.5,-144 502.5,-150 502.5,-156 502.5,-156 502.5,-168 502.5,-168 502.5,-174 496.5,-180 490.5,-180"/>
<text text-anchor="middle" x="440" y="-159.5" font-family="sans" font-size="10.00" fill="#000000">gatk_haplotype_caller</text>
</g>
<!-- 50&#45;&gt;61 -->
<g id="edge104" class="edge">
<title>50&#45;&gt;61</title>
<path fill="none" stroke="#c0c0c0" stroke-width="2" d="M498.5144,-287.7623C486.9356,-262.8764 466.0938,-218.0822 452.6632,-189.2165"/>
<polygon fill="#c0c0c0" stroke="#c0c0c0" stroke-width="2" points="455.8086,-187.6798 448.4167,-180.0896 449.4619,-190.6328 455.8086,-187.6798"/>
</g>
<!-- 50&#45;&gt;65 -->
<g id="edge107" class="edge">
<title>50&#45;&gt;65</title>
<path fill="none" stroke="#c0c0c0" stroke-width="2" d="M479.4947,-287.8314C465.682,-278.7074 448.7744,-267.539 433.9471,-257.7449"/>
<polygon fill="#c0c0c0" stroke="#c0c0c0" stroke-width="2" points="435.7696,-254.7541 425.4965,-252.1628 431.9114,-260.5949 435.7696,-254.7541"/>
</g>
<!-- 51 -->
<g id="node52" class="node">
<title>51</title>
<path fill="none" stroke="#d8cb56" stroke-width="2" d="M1535.5,-1116C1535.5,-1116 1400.5,-1116 1400.5,-1116 1394.5,-1116 1388.5,-1110 1388.5,-1104 1388.5,-1104 1388.5,-1092 1388.5,-1092 1388.5,-1086 1394.5,-1080 1400.5,-1080 1400.5,-1080 1535.5,-1080 1535.5,-1080 1541.5,-1080 1547.5,-1086 1547.5,-1092 1547.5,-1092 1547.5,-1104 1547.5,-1104 1547.5,-1110 1541.5,-1116 1535.5,-1116"/>
<text text-anchor="middle" x="1468" y="-1101" font-family="sans" font-size="10.00" fill="#000000">align</text>
<text text-anchor="middle" x="1468" y="-1090" font-family="sans" font-size="10.00" fill="#000000">lane: MG0318&#45;In3_S15_L002</text>
</g>
<!-- 51&#45;&gt;22 -->
<g id="edge36" class="edge">
<title>51&#45;&gt;22</title>
<path fill="none" stroke="#c0c0c0" stroke-width="2" d="M1392.1825,-1079.9243C1341.452,-1067.8296 1275.5215,-1052.1111 1227.9446,-1040.7682"/>
<polygon fill="#c0c0c0" stroke="#c0c0c0" stroke-width="2" points="1228.6219,-1037.3317 1218.0828,-1038.4171 1226.9985,-1044.1409 1228.6219,-1037.3317"/>
</g>
<!-- 52&#45;&gt;14 -->
<g id="edge24" class="edge">
<title>52&#45;&gt;14</title>
<path fill="none" stroke="#c0c0c0" stroke-width="2" d="M481,-647.8314C481,-640.131 481,-630.9743 481,-622.4166"/>
<polygon fill="#c0c0c0" stroke="#c0c0c0" stroke-width="2" points="484.5001,-622.4132 481,-612.4133 477.5001,-622.4133 484.5001,-622.4132"/>
</g>
<!-- 53&#45;&gt;10 -->
<g id="edge18" class="edge">
<title>53&#45;&gt;10</title>
<path fill="none" stroke="#c0c0c0" stroke-width="2" d="M244.9063,-575.8314C240.4403,-567.7925 235.0925,-558.1666 230.1621,-549.2918"/>
<polygon fill="#c0c0c0" stroke="#c0c0c0" stroke-width="2" points="233.1456,-547.4551 225.2296,-540.4133 227.0265,-550.8546 233.1456,-547.4551"/>
</g>
<!-- 53&#45;&gt;36 -->
<g id="edge60" class="edge">
<title>53&#45;&gt;36</title>
<path fill="none" stroke="#c0c0c0" stroke-width="2" d="M202.237,-578.4925C183.6518,-570.2102 164.7323,-557.9081 154,-540 129.0234,-498.3238 144.3857,-439.5103 157.1527,-405.408"/>
<polygon fill="#c0c0c0" stroke="#c0c0c0" stroke-width="2" points="160.4216,-406.6591 160.8164,-396.0717 153.9053,-404.1021 160.4216,-406.6591"/>
</g>
<!-- 53&#45;&gt;60 -->
<g id="edge102" class="edge">
<title>53&#45;&gt;60</title>
<path fill="none" stroke="#c0c0c0" stroke-width="2" d="M264.1577,-575.5129C268.7013,-565.3118 273.7002,-552.2593 276,-540 279.8933,-519.2467 276.1699,-495.6121 271.7259,-477.7719"/>
<polygon fill="#c0c0c0" stroke="#c0c0c0" stroke-width="2" points="275.0723,-476.7391 269.0781,-468.0029 268.3161,-478.5703 275.0723,-476.7391"/>
</g>
<!-- 54&#45;&gt;3 -->
<g id="edge6" class="edge">
<title>54&#45;&gt;3</title>
<path fill="none" stroke="#c0c0c0" stroke-width="2" d="M852.2517,-359.7658C837.6762,-350.4688 821.1097,-338.1361 809,-324 793.2007,-305.557 781.2907,-280.6048 773.705,-261.6514"/>
<polygon fill="#c0c0c0" stroke="#c0c0c0" stroke-width="2" points="776.8853,-260.1697 770.0365,-252.0862 770.3495,-262.6764 776.8853,-260.1697"/>
</g>
<!-- 54&#45;&gt;49 -->
<g id="edge86" class="edge">
<title>54&#45;&gt;49</title>
<path fill="none" stroke="#c0c0c0" stroke-width="2" d="M884.4953,-359.8314C884.2814,-352.131 884.0271,-342.9743 883.7894,-334.4166"/>
<polygon fill="#c0c0c0" stroke="#c0c0c0" stroke-width="2" points="887.2879,-334.3122 883.5115,-324.4133 880.2906,-334.5066 887.2879,-334.3122"/>
</g>
<!-- 54&#45;&gt;56 -->
<g id="edge95" class="edge">
<title>54&#45;&gt;56</title>
<path fill="none" stroke="#c0c0c0" stroke-width="2" d="M918.7834,-359.9698C932.6333,-350.9355 947.5907,-338.7552 957,-324 968.7542,-305.5676 973.3705,-281.1129 975.1217,-262.3473"/>
<polygon fill="#c0c0c0" stroke="#c0c0c0" stroke-width="2" points="978.6169,-262.5382 975.8406,-252.3136 971.6348,-262.0378 978.6169,-262.5382"/>
</g>
<!-- 55&#45;&gt;39 -->
<g id="edge64" class="edge">
<title>55&#45;&gt;39</title>
<path fill="none" stroke="#c0c0c0" stroke-width="2" d="M966.9906,-791.8314C966.5628,-784.131 966.0541,-774.9743 965.5787,-766.4166"/>
<polygon fill="#c0c0c0" stroke="#c0c0c0" stroke-width="2" points="969.0724,-766.2037 965.023,-756.4133 962.0831,-766.592 969.0724,-766.2037"/>
</g>
<!-- 56&#45;&gt;9 -->
<g id="edge17" class="edge">
<title>56&#45;&gt;9</title>
<path fill="none" stroke="#c0c0c0" stroke-width="2" d="M1026.1122,-218.3203C1029.1108,-217.5039 1032.09,-216.7234 1035,-216 1113.6815,-196.4407 1137.2567,-198.8708 1219.9932,-180.1369"/>
<polygon fill="#c0c0c0" stroke="#c0c0c0" stroke-width="2" points="1220.8685,-183.527 1229.8293,-177.8741 1219.2991,-176.7052 1220.8685,-183.527"/>
</g>
<!-- 56&#45;&gt;59 -->
<g id="edge100" class="edge">
<title>56&#45;&gt;59</title>
<path fill="none" stroke="#c0c0c0" stroke-width="2" d="M969.4391,-215.8314C966.5973,-207.9617 963.2063,-198.5712 960.0581,-189.8533"/>
<polygon fill="#c0c0c0" stroke="#c0c0c0" stroke-width="2" points="963.3377,-188.63 956.6492,-180.4133 956.7538,-191.0076 963.3377,-188.63"/>
</g>
<!-- 57&#45;&gt;45 -->
<g id="edge76" class="edge">
<title>57&#45;&gt;45</title>
<path fill="none" stroke="#c0c0c0" stroke-width="2" d="M1220.6503,-874.3192C1286.5136,-860.1399 1402,-823.1387 1402,-738 1402,-738 1402,-738 1402,-162 1402,-69.8857 1073.0217,-31.5486 960.337,-21.1189"/>
<polygon fill="#c0c0c0" stroke="#c0c0c0" stroke-width="2" points="960.4001,-17.6104 950.1255,-20.1958 959.7698,-24.582 960.4001,-17.6104"/>
</g>
<!-- 58&#45;&gt;13 -->
<g id="edge23" class="edge">
<title>58&#45;&gt;13</title>
<path fill="none" stroke="#c0c0c0" stroke-width="2" d="M464.8501,-503.8314C457.3283,-495.3694 448.2435,-485.1489 440.0196,-475.8971"/>
<polygon fill="#c0c0c0" stroke="#c0c0c0" stroke-width="2" points="442.627,-473.5621 433.3673,-468.4133 437.3951,-478.2127 442.627,-473.5621"/>
</g>
<!-- 58&#45;&gt;31 -->
<g id="edge52" class="edge">
<title>58&#45;&gt;31</title>
<path fill="none" stroke="#c0c0c0" stroke-width="2" d="M484.2929,-503.7623C488.7471,-479.0928 496.7337,-434.8598 501.9493,-405.9731"/>
<polygon fill="#c0c0c0" stroke="#c0c0c0" stroke-width="2" points="505.4012,-406.5524 503.7338,-396.0896 498.5126,-405.3086 505.4012,-406.5524"/>
</g>
<!-- 59&#45;&gt;15 -->
<g id="edge25" class="edge">
<title>59&#45;&gt;15</title>
<path fill="none" stroke="#c0c0c0" stroke-width="2" d="M950,-143.8314C950,-136.131 950,-126.9743 950,-118.4166"/>
<polygon fill="#c0c0c0" stroke="#c0c0c0" stroke-width="2" points="953.5001,-118.4132 950,-108.4133 946.5001,-118.4133 953.5001,-118.4132"/>
</g>
<!-- 60&#45;&gt;36 -->
<g id="edge59" class="edge">
<title>60&#45;&gt;36</title>
<path fill="none" stroke="#c0c0c0" stroke-width="2" d="M239.2798,-431.8314C227.5906,-422.8779 213.3312,-411.9558 200.7191,-402.2955"/>
<polygon fill="#c0c0c0" stroke="#c0c0c0" stroke-width="2" points="202.7797,-399.4651 192.7126,-396.1628 198.5231,-405.0222 202.7797,-399.4651"/>
</g>
<!-- 61&#45;&gt;18 -->
<g id="edge29" class="edge">
<title>61&#45;&gt;18</title>
<path fill="none" stroke="#c0c0c0" stroke-width="2" d="M440,-143.8314C440,-136.131 440,-126.9743 440,-118.4166"/>
<polygon fill="#c0c0c0" stroke="#c0c0c0" stroke-width="2" points="443.5001,-118.4132 440,-108.4133 436.5001,-118.4133 443.5001,-118.4132"/>
</g>
<!-- 62&#45;&gt;20 -->
<g id="edge32" class="edge">
<title>62&#45;&gt;20</title>
<path fill="none" stroke="#c0c0c0" stroke-width="2" d="M874.0656,-503.8314C877.126,-495.9617 880.7779,-486.5712 884.1682,-477.8533"/>
<polygon fill="#c0c0c0" stroke="#c0c0c0" stroke-width="2" points="887.4768,-479.0019 887.8393,-468.4133 880.9527,-476.4647 887.4768,-479.0019"/>
</g>
<!-- 62&#45;&gt;54 -->
<g id="edge90" class="edge">
<title>62&#45;&gt;54</title>
<path fill="none" stroke="#c0c0c0" stroke-width="2" d="M847.95,-503.8859C839.143,-494.1885 829.6254,-481.4808 825,-468 819.8074,-452.866 818.4906,-446.616 825,-432 830.0334,-420.6983 838.7305,-410.7696 847.9659,-402.611"/>
<polygon fill="#c0c0c0" stroke="#c0c0c0" stroke-width="2" points="850.2815,-405.2382 855.7816,-396.1828 845.835,-399.8319 850.2815,-405.2382"/>
</g>
<!-- 63 -->
<g id="node64" class="node">
<title>63</title>
<path fill="none" stroke="#d8cb56" stroke-width="2" d="M618.5,-1116C618.5,-1116 489.5,-1116 489.5,-1116 483.5,-1116 477.5,-1110 477.5,-1104 477.5,-1104 477.5,-1092 477.5,-1092 477.5,-1086 483.5,-1080 489.5,-1080 489.5,-1080 618.5,-1080 618.5,-1080 624.5,-1080 630.5,-1086 630.5,-1092 630.5,-1092 630.5,-1104 630.5,-1104 630.5,-1110 624.5,-1116 618.5,-1116"/>
<text text-anchor="middle" x="554" y="-1101" font-family="sans" font-size="10.00" fill="#000000">align</text>
<text text-anchor="middle" x="554" y="-1090" font-family="sans" font-size="10.00" fill="#000000">lane: MG0402&#45;In2_S3_L001</text>
</g>
<!-- 63&#45;&gt;28 -->
<g id="edge44" class="edge">
<title>63&#45;&gt;28</title>
<path fill="none" stroke="#c0c0c0" stroke-width="2" d="M549.2055,-1079.8314C547.1511,-1072.0463 544.704,-1062.7729 542.4244,-1054.1347"/>
<polygon fill="#c0c0c0" stroke="#c0c0c0" stroke-width="2" points="545.7948,-1053.1892 539.8591,-1044.4133 539.0265,-1054.9753 545.7948,-1053.1892"/>
</g>
<!-- 64 -->
<g id="node65" class="node">
<title>64</title>
<path fill="none" stroke="#d8cb56" stroke-width="2" d="M789.5,-1116C789.5,-1116 660.5,-1116 660.5,-1116 654.5,-1116 648.5,-1110 648.5,-1104 648.5,-1104 648.5,-1092 648.5,-1092 648.5,-1086 654.5,-1080 660.5,-1080 660.5,-1080 789.5,-1080 789.5,-1080 795.5,-1080 801.5,-1086 801.5,-1092 801.5,-1092 801.5,-1104 801.5,-1104 801.5,-1110 795.5,-1116 789.5,-1116"/>
<text text-anchor="middle" x="725" y="-1101" font-family="sans" font-size="10.00" fill="#000000">align</text>
<text text-anchor="middle" x="725" y="-1090" font-family="sans" font-size="10.00" fill="#000000">lane: MG0402&#45;In2_S3_L003</text>
</g>
<!-- 64&#45;&gt;28 -->
<g id="edge45" class="edge">
<title>64&#45;&gt;28</title>
<path fill="none" stroke="#c0c0c0" stroke-width="2" d="M677.055,-1079.8314C651.1918,-1070.0306 619.1038,-1057.8709 591.972,-1047.5894"/>
<polygon fill="#c0c0c0" stroke="#c0c0c0" stroke-width="2" points="593.1916,-1044.3087 582.6003,-1044.038 590.7111,-1050.8545 593.1916,-1044.3087"/>
</g>
<!-- 65&#45;&gt;2 -->
<g id="edge5" class="edge">
<title>65&#45;&gt;2</title>
<path fill="none" stroke="#c0c0c0" stroke-width="2" d="M347.8878,-218.3203C344.8892,-217.5039 341.91,-216.7234 339,-216 260.3185,-196.4407 236.7433,-198.8708 154.0068,-180.1369"/>
<polygon fill="#c0c0c0" stroke="#c0c0c0" stroke-width="2" points="154.7009,-176.7052 144.1707,-177.8741 153.1315,-183.527 154.7009,-176.7052"/>
</g>
<!-- 65&#45;&gt;61 -->
<g id="edge105" class="edge">
<title>65&#45;&gt;61</title>
<path fill="none" stroke="#c0c0c0" stroke-width="2" d="M408.5984,-215.8314C413.2877,-207.7925 418.9028,-198.1666 424.0798,-189.2918"/>
<polygon fill="#c0c0c0" stroke="#c0c0c0" stroke-width="2" points="427.2434,-190.8146 429.2589,-180.4133 421.1969,-187.2875 427.2434,-190.8146"/>
</g>
<!-- 66&#45;&gt;44 -->
<g id="edge75" class="edge">
<title>66&#45;&gt;44</title>
<path fill="none" stroke="#c0c0c0" stroke-width="2" d="M481,-791.8314C481,-784.131 481,-774.9743 481,-766.4166"/>
<polygon fill="#c0c0c0" stroke="#c0c0c0" stroke-width="2" points="484.5001,-766.4132 481,-756.4133 477.5001,-766.4133 484.5001,-766.4132"/>
</g>
</g>
</svg>
