<?xml version="1.0" encoding="UTF-8" standalone="no"?>
<!DOCTYPE svg PUBLIC "-//W3C//DTD SVG 1.1//EN"
 "http://www.w3.org/Graphics/SVG/1.1/DTD/svg11.dtd">
<!-- Generated by graphviz version 2.40.1 (20161225.0304)
 -->
<!-- Title: snakemake_dag Pages: 1 -->
<svg width="770pt" height="553pt"
 viewBox="0.00 0.00 769.50 553.00" xmlns="http://www.w3.org/2000/svg" xmlns:xlink="http://www.w3.org/1999/xlink">
<g id="graph0" class="graph" transform="scale(1 1) rotate(0) translate(4 549)">
<title>snakemake_dag</title>
<polygon fill="#ffffff" stroke="transparent" points="-4,4 -4,-549 765.5,-549 765.5,4 -4,4"/>
<!-- 0 -->
<g id="node1" class="node">
<title>0</title>
<path fill="none" stroke="#59d856" stroke-width="2" d="M362,-108C362,-108 242,-108 242,-108 236,-108 230,-102 230,-96 230,-96 230,-84 230,-84 230,-78 236,-72 242,-72 242,-72 362,-72 362,-72 368,-72 374,-78 374,-84 374,-84 374,-96 374,-96 374,-102 368,-108 362,-108"/>
<text text-anchor="middle" x="302" y="-93" font-family="sans" font-size="10.00" fill="#000000">create_single_sample_vcf</text>
<text text-anchor="middle" x="302" y="-82" font-family="sans" font-size="10.00" fill="#000000">sample: IG034</text>
</g>
<!-- 6 -->
<g id="node7" class="node">
<title>6</title>
<path fill="none" stroke="#d89556" stroke-width="2" d="M398,-36C398,-36 368,-36 368,-36 362,-36 356,-30 356,-24 356,-24 356,-12 356,-12 356,-6 362,0 368,0 368,0 398,0 398,0 404,0 410,-6 410,-12 410,-12 410,-24 410,-24 410,-30 404,-36 398,-36"/>
<text text-anchor="middle" x="383" y="-15.5" font-family="sans" font-size="10.00" fill="#000000">all</text>
</g>
<!-- 0&#45;&gt;6 -->
<g id="edge8" class="edge">
<title>0&#45;&gt;6</title>
<path fill="none" stroke="#c0c0c0" stroke-width="2" d="M322.4397,-71.8314C332.3205,-63.0485 344.3324,-52.3712 355.045,-42.8489"/>
<polygon fill="#c0c0c0" stroke="#c0c0c0" stroke-width="2" points="357.418,-45.4224 362.5668,-36.1628 352.7674,-40.1906 357.418,-45.4224"/>
</g>
<!-- 1 -->
<g id="node2" class="node">
<title>1</title>
<path fill="none" stroke="#d6d856" stroke-width="2" stroke-dasharray="5,2" d="M613.5,-324C613.5,-324 542.5,-324 542.5,-324 536.5,-324 530.5,-318 530.5,-312 530.5,-312 530.5,-300 530.5,-300 530.5,-294 536.5,-288 542.5,-288 542.5,-288 613.5,-288 613.5,-288 619.5,-288 625.5,-294 625.5,-300 625.5,-300 625.5,-312 625.5,-312 625.5,-318 619.5,-324 613.5,-324"/>
<text text-anchor="middle" x="578" y="-303.5" font-family="sans" font-size="10.00" fill="#000000">VariantFiltration</text>
</g>
<!-- 18 -->
<g id="node19" class="node">
<title>18</title>
<path fill="none" stroke="#d85656" stroke-width="2" stroke-dasharray="5,2" d="M615,-252C615,-252 541,-252 541,-252 535,-252 529,-246 529,-240 529,-240 529,-228 529,-228 529,-222 535,-216 541,-216 541,-216 615,-216 615,-216 621,-216 627,-222 627,-228 627,-228 627,-240 627,-240 627,-246 621,-252 615,-252"/>
<text text-anchor="middle" x="578" y="-231.5" font-family="sans" font-size="10.00" fill="#000000">CombineVariants</text>
</g>
<!-- 1&#45;&gt;18 -->
<g id="edge23" class="edge">
<title>1&#45;&gt;18</title>
<path fill="none" stroke="#c0c0c0" stroke-width="2" d="M578,-287.8314C578,-280.131 578,-270.9743 578,-262.4166"/>
<polygon fill="#c0c0c0" stroke="#c0c0c0" stroke-width="2" points="581.5001,-262.4132 578,-252.4133 574.5001,-262.4133 581.5001,-262.4132"/>
</g>
<!-- 2 -->
<g id="node3" class="node">
<title>2</title>
<path fill="none" stroke="#56d8d8" stroke-width="2" stroke-dasharray="5,2" d="M364,-396C364,-396 272,-396 272,-396 266,-396 260,-390 260,-384 260,-384 260,-372 260,-372 260,-366 266,-360 272,-360 272,-360 364,-360 364,-360 370,-360 376,-366 376,-372 376,-372 376,-384 376,-384 376,-390 370,-396 364,-396"/>
<text text-anchor="middle" x="318" y="-381" font-family="sans" font-size="10.00" fill="#000000">SelectVariants</text>
<text text-anchor="middle" x="318" y="-370" font-family="sans" font-size="10.00" fill="#000000">variant_type: INDEL</text>
</g>
<!-- 4 -->
<g id="node5" class="node">
<title>4</title>
<path fill="none" stroke="#d6d856" stroke-width="2" stroke-dasharray="5,2" d="M357.5,-324C357.5,-324 286.5,-324 286.5,-324 280.5,-324 274.5,-318 274.5,-312 274.5,-312 274.5,-300 274.5,-300 274.5,-294 280.5,-288 286.5,-288 286.5,-288 357.5,-288 357.5,-288 363.5,-288 369.5,-294 369.5,-300 369.5,-300 369.5,-312 369.5,-312 369.5,-318 363.5,-324 357.5,-324"/>
<text text-anchor="middle" x="322" y="-303.5" font-family="sans" font-size="10.00" fill="#000000">VariantFiltration</text>
</g>
<!-- 2&#45;&gt;4 -->
<g id="edge6" class="edge">
<title>2&#45;&gt;4</title>
<path fill="none" stroke="#c0c0c0" stroke-width="2" d="M319.0094,-359.8314C319.4372,-352.131 319.9459,-342.9743 320.4213,-334.4166"/>
<polygon fill="#c0c0c0" stroke="#c0c0c0" stroke-width="2" points="323.9169,-334.592 320.977,-324.4133 316.9276,-334.2037 323.9169,-334.592"/>
</g>
<!-- 3 -->
<g id="node4" class="node">
<title>3</title>
<path fill="none" stroke="#d85656" stroke-width="2" stroke-dasharray="5,2" d="M225,-252C225,-252 151,-252 151,-252 145,-252 139,-246 139,-240 139,-240 139,-228 139,-228 139,-222 145,-216 151,-216 151,-216 225,-216 225,-216 231,-216 237,-222 237,-228 237,-228 237,-240 237,-240 237,-246 231,-252 225,-252"/>
<text text-anchor="middle" x="188" y="-231.5" font-family="sans" font-size="10.00" fill="#000000">CombineVariants</text>
</g>
<!-- 10 -->
<g id="node11" class="node">
<title>10</title>
<path fill="none" stroke="#97d856" stroke-width="2" stroke-dasharray="5,2" d="M440.5,-180C440.5,-180 325.5,-180 325.5,-180 319.5,-180 313.5,-174 313.5,-168 313.5,-168 313.5,-156 313.5,-156 313.5,-150 319.5,-144 325.5,-144 325.5,-144 440.5,-144 440.5,-144 446.5,-144 452.5,-150 452.5,-156 452.5,-156 452.5,-168 452.5,-168 452.5,-174 446.5,-180 440.5,-180"/>
<text text-anchor="middle" x="383" y="-159.5" font-family="sans" font-size="10.00" fill="#000000">merge_chr_vcf_together</text>
</g>
<!-- 3&#45;&gt;10 -->
<g id="edge14" class="edge">
<title>3&#45;&gt;10</title>
<path fill="none" stroke="#c0c0c0" stroke-width="2" d="M236.955,-215.9243C263.4968,-206.1243 296.4823,-193.945 324.3858,-183.6422"/>
<polygon fill="#c0c0c0" stroke="#c0c0c0" stroke-width="2" points="325.8562,-186.8303 334.0248,-180.0831 323.4315,-180.2636 325.8562,-186.8303"/>
</g>
<!-- 15 -->
<g id="node16" class="node">
<title>15</title>
<path fill="none" stroke="#d85656" stroke-width="2" stroke-dasharray="5,2" d="M420,-252C420,-252 346,-252 346,-252 340,-252 334,-246 334,-240 334,-240 334,-228 334,-228 334,-222 340,-216 346,-216 346,-216 420,-216 420,-216 426,-216 432,-222 432,-228 432,-228 432,-240 432,-240 432,-246 426,-252 420,-252"/>
<text text-anchor="middle" x="383" y="-231.5" font-family="sans" font-size="10.00" fill="#000000">CombineVariants</text>
</g>
<!-- 4&#45;&gt;15 -->
<g id="edge20" class="edge">
<title>4&#45;&gt;15</title>
<path fill="none" stroke="#c0c0c0" stroke-width="2" d="M337.3929,-287.8314C344.4904,-279.454 353.048,-269.3531 360.824,-260.1749"/>
<polygon fill="#c0c0c0" stroke="#c0c0c0" stroke-width="2" points="363.6061,-262.3056 367.3999,-252.4133 358.2652,-257.7807 363.6061,-262.3056"/>
</g>
<!-- 5 -->
<g id="node6" class="node">
<title>5</title>
<path fill="none" stroke="#56d8d8" stroke-width="2" stroke-dasharray="5,2" d="M624,-396C624,-396 532,-396 532,-396 526,-396 520,-390 520,-384 520,-384 520,-372 520,-372 520,-366 526,-360 532,-360 532,-360 624,-360 624,-360 630,-360 636,-366 636,-372 636,-372 636,-384 636,-384 636,-390 630,-396 624,-396"/>
<text text-anchor="middle" x="578" y="-381" font-family="sans" font-size="10.00" fill="#000000">SelectVariants</text>
<text text-anchor="middle" x="578" y="-370" font-family="sans" font-size="10.00" fill="#000000">variant_type: INDEL</text>
</g>
<!-- 5&#45;&gt;1 -->
<g id="edge2" class="edge">
<title>5&#45;&gt;1</title>
<path fill="none" stroke="#c0c0c0" stroke-width="2" d="M578,-359.8314C578,-352.131 578,-342.9743 578,-334.4166"/>
<polygon fill="#c0c0c0" stroke="#c0c0c0" stroke-width="2" points="581.5001,-334.4132 578,-324.4133 574.5001,-334.4133 581.5001,-334.4132"/>
</g>
<!-- 7 -->
<g id="node8" class="node">
<title>7</title>
<path fill="none" stroke="#56d8d8" stroke-width="2" stroke-dasharray="5,2" d="M749.5,-396C749.5,-396 666.5,-396 666.5,-396 660.5,-396 654.5,-390 654.5,-384 654.5,-384 654.5,-372 654.5,-372 654.5,-366 660.5,-360 666.5,-360 666.5,-360 749.5,-360 749.5,-360 755.5,-360 761.5,-366 761.5,-372 761.5,-372 761.5,-384 761.5,-384 761.5,-390 755.5,-396 749.5,-396"/>
<text text-anchor="middle" x="708" y="-381" font-family="sans" font-size="10.00" fill="#000000">SelectVariants</text>
<text text-anchor="middle" x="708" y="-370" font-family="sans" font-size="10.00" fill="#000000">variant_type: SNP</text>
</g>
<!-- 14 -->
<g id="node15" class="node">
<title>14</title>
<path fill="none" stroke="#d6d856" stroke-width="2" stroke-dasharray="5,2" d="M734.5,-324C734.5,-324 663.5,-324 663.5,-324 657.5,-324 651.5,-318 651.5,-312 651.5,-312 651.5,-300 651.5,-300 651.5,-294 657.5,-288 663.5,-288 663.5,-288 734.5,-288 734.5,-288 740.5,-288 746.5,-294 746.5,-300 746.5,-300 746.5,-312 746.5,-312 746.5,-318 740.5,-324 734.5,-324"/>
<text text-anchor="middle" x="699" y="-303.5" font-family="sans" font-size="10.00" fill="#000000">VariantFiltration</text>
</g>
<!-- 7&#45;&gt;14 -->
<g id="edge18" class="edge">
<title>7&#45;&gt;14</title>
<path fill="none" stroke="#c0c0c0" stroke-width="2" d="M705.7289,-359.8314C704.7664,-352.131 703.6218,-342.9743 702.5521,-334.4166"/>
<polygon fill="#c0c0c0" stroke="#c0c0c0" stroke-width="2" points="706.0151,-333.9019 701.3017,-324.4133 699.0691,-334.7702 706.0151,-333.9019"/>
</g>
<!-- 8 -->
<g id="node9" class="node">
<title>8</title>
<path fill="none" stroke="#d6d856" stroke-width="2" stroke-dasharray="5,2" d="M475.5,-324C475.5,-324 404.5,-324 404.5,-324 398.5,-324 392.5,-318 392.5,-312 392.5,-312 392.5,-300 392.5,-300 392.5,-294 398.5,-288 404.5,-288 404.5,-288 475.5,-288 475.5,-288 481.5,-288 487.5,-294 487.5,-300 487.5,-300 487.5,-312 487.5,-312 487.5,-318 481.5,-324 475.5,-324"/>
<text text-anchor="middle" x="440" y="-303.5" font-family="sans" font-size="10.00" fill="#000000">VariantFiltration</text>
</g>
<!-- 8&#45;&gt;15 -->
<g id="edge19" class="edge">
<title>8&#45;&gt;15</title>
<path fill="none" stroke="#c0c0c0" stroke-width="2" d="M425.6165,-287.8314C419.0514,-279.5386 411.1493,-269.557 403.9422,-260.4533"/>
<polygon fill="#c0c0c0" stroke="#c0c0c0" stroke-width="2" points="406.5284,-258.0813 397.5772,-252.4133 401.0401,-262.4262 406.5284,-258.0813"/>
</g>
<!-- 9 -->
<g id="node10" class="node">
<title>9</title>
<path fill="none" stroke="#56d89a" stroke-width="2" stroke-dasharray="5,2" d="M658.5,-468C658.5,-468 561.5,-468 561.5,-468 555.5,-468 549.5,-462 549.5,-456 549.5,-456 549.5,-444 549.5,-444 549.5,-438 555.5,-432 561.5,-432 561.5,-432 658.5,-432 658.5,-432 664.5,-432 670.5,-438 670.5,-444 670.5,-444 670.5,-456 670.5,-456 670.5,-462 664.5,-468 658.5,-468"/>
<text text-anchor="middle" x="610" y="-447.5" font-family="sans" font-size="10.00" fill="#000000">PhaseByTransmission</text>
</g>
<!-- 9&#45;&gt;5 -->
<g id="edge7" class="edge">
<title>9&#45;&gt;5</title>
<path fill="none" stroke="#c0c0c0" stroke-width="2" d="M601.925,-431.8314C598.3898,-423.8771 594.164,-414.369 590.2544,-405.5723"/>
<polygon fill="#c0c0c0" stroke="#c0c0c0" stroke-width="2" points="593.4435,-404.1299 586.1837,-396.4133 587.0468,-406.9729 593.4435,-404.1299"/>
</g>
<!-- 9&#45;&gt;7 -->
<g id="edge10" class="edge">
<title>9&#45;&gt;7</title>
<path fill="none" stroke="#c0c0c0" stroke-width="2" d="M634.7295,-431.8314C646.9162,-422.8779 661.7823,-411.9558 674.9312,-402.2955"/>
<polygon fill="#c0c0c0" stroke="#c0c0c0" stroke-width="2" points="677.2918,-404.9042 683.2784,-396.1628 673.1473,-399.263 677.2918,-404.9042"/>
</g>
<!-- 10&#45;&gt;0 -->
<g id="edge1" class="edge">
<title>10&#45;&gt;0</title>
<path fill="none" stroke="#c0c0c0" stroke-width="2" d="M362.5603,-143.8314C352.6795,-135.0485 340.6676,-124.3712 329.955,-114.8489"/>
<polygon fill="#c0c0c0" stroke="#c0c0c0" stroke-width="2" points="332.2326,-112.1906 322.4332,-108.1628 327.582,-117.4224 332.2326,-112.1906"/>
</g>
<!-- 19 -->
<g id="node20" class="node">
<title>19</title>
<path fill="none" stroke="#59d856" stroke-width="2" d="M524,-108C524,-108 404,-108 404,-108 398,-108 392,-102 392,-96 392,-96 392,-84 392,-84 392,-78 398,-72 404,-72 404,-72 524,-72 524,-72 530,-72 536,-78 536,-84 536,-84 536,-96 536,-96 536,-102 530,-108 524,-108"/>
<text text-anchor="middle" x="464" y="-93" font-family="sans" font-size="10.00" fill="#000000">create_single_sample_vcf</text>
<text text-anchor="middle" x="464" y="-82" font-family="sans" font-size="10.00" fill="#000000">sample: IG025&#45;P1</text>
</g>
<!-- 10&#45;&gt;19 -->
<g id="edge25" class="edge">
<title>10&#45;&gt;19</title>
<path fill="none" stroke="#c0c0c0" stroke-width="2" d="M403.4397,-143.8314C413.3205,-135.0485 425.3324,-124.3712 436.045,-114.8489"/>
<polygon fill="#c0c0c0" stroke="#c0c0c0" stroke-width="2" points="438.418,-117.4224 443.5668,-108.1628 433.7674,-112.1906 438.418,-117.4224"/>
</g>
<!-- 11 -->
<g id="node12" class="node">
<title>11</title>
<path fill="none" stroke="#56d89a" stroke-width="2" stroke-dasharray="5,2" d="M463.5,-468C463.5,-468 366.5,-468 366.5,-468 360.5,-468 354.5,-462 354.5,-456 354.5,-456 354.5,-444 354.5,-444 354.5,-438 360.5,-432 366.5,-432 366.5,-432 463.5,-432 463.5,-432 469.5,-432 475.5,-438 475.5,-444 475.5,-444 475.5,-456 475.5,-456 475.5,-462 469.5,-468 463.5,-468"/>
<text text-anchor="middle" x="415" y="-447.5" font-family="sans" font-size="10.00" fill="#000000">PhaseByTransmission</text>
</g>
<!-- 11&#45;&gt;2 -->
<g id="edge3" class="edge">
<title>11&#45;&gt;2</title>
<path fill="none" stroke="#c0c0c0" stroke-width="2" d="M390.5228,-431.8314C378.4605,-422.8779 363.746,-411.9558 350.7314,-402.2955"/>
<polygon fill="#c0c0c0" stroke="#c0c0c0" stroke-width="2" points="352.5852,-399.3127 342.4694,-396.1628 348.413,-404.9335 352.5852,-399.3127"/>
</g>
<!-- 13 -->
<g id="node14" class="node">
<title>13</title>
<path fill="none" stroke="#56d8d8" stroke-width="2" stroke-dasharray="5,2" d="M489.5,-396C489.5,-396 406.5,-396 406.5,-396 400.5,-396 394.5,-390 394.5,-384 394.5,-384 394.5,-372 394.5,-372 394.5,-366 400.5,-360 406.5,-360 406.5,-360 489.5,-360 489.5,-360 495.5,-360 501.5,-366 501.5,-372 501.5,-372 501.5,-384 501.5,-384 501.5,-390 495.5,-396 489.5,-396"/>
<text text-anchor="middle" x="448" y="-381" font-family="sans" font-size="10.00" fill="#000000">SelectVariants</text>
<text text-anchor="middle" x="448" y="-370" font-family="sans" font-size="10.00" fill="#000000">variant_type: SNP</text>
</g>
<!-- 11&#45;&gt;13 -->
<g id="edge17" class="edge">
<title>11&#45;&gt;13</title>
<path fill="none" stroke="#c0c0c0" stroke-width="2" d="M423.3273,-431.8314C426.973,-423.8771 431.3309,-414.369 435.3627,-405.5723"/>
<polygon fill="#c0c0c0" stroke="#c0c0c0" stroke-width="2" points="438.5757,-406.9622 439.5606,-396.4133 432.2123,-404.0456 438.5757,-406.9622"/>
</g>
<!-- 12 -->
<g id="node13" class="node">
<title>12</title>
<path fill="none" stroke="#569ad8" stroke-width="2" stroke-dasharray="5,2" d="M166.5,-545C166.5,-545 79.5,-545 79.5,-545 73.5,-545 67.5,-539 67.5,-533 67.5,-533 67.5,-516 67.5,-516 67.5,-510 73.5,-504 79.5,-504 79.5,-504 166.5,-504 166.5,-504 172.5,-504 178.5,-510 178.5,-516 178.5,-516 178.5,-533 178.5,-533 178.5,-539 172.5,-545 166.5,-545"/>
<text text-anchor="middle" x="123" y="-533" font-family="sans" font-size="10.00" fill="#000000">GenotypeGVCFs</text>
<text text-anchor="middle" x="123" y="-522" font-family="sans" font-size="10.00" fill="#000000">chr: 2</text>
<text text-anchor="middle" x="123" y="-511" font-family="sans" font-size="10.00" fill="#000000">output_name: vcfs</text>
</g>
<!-- 23 -->
<g id="node24" class="node">
<title>23</title>
<path fill="none" stroke="#56d89a" stroke-width="2" stroke-dasharray="5,2" d="M171.5,-468C171.5,-468 74.5,-468 74.5,-468 68.5,-468 62.5,-462 62.5,-456 62.5,-456 62.5,-444 62.5,-444 62.5,-438 68.5,-432 74.5,-432 74.5,-432 171.5,-432 171.5,-432 177.5,-432 183.5,-438 183.5,-444 183.5,-444 183.5,-456 183.5,-456 183.5,-462 177.5,-468 171.5,-468"/>
<text text-anchor="middle" x="123" y="-447.5" font-family="sans" font-size="10.00" fill="#000000">PhaseByTransmission</text>
</g>
<!-- 12&#45;&gt;23 -->
<g id="edge28" class="edge">
<title>12&#45;&gt;23</title>
<path fill="none" stroke="#c0c0c0" stroke-width="2" d="M123,-503.7476C123,-495.8767 123,-486.7743 123,-478.3232"/>
<polygon fill="#c0c0c0" stroke="#c0c0c0" stroke-width="2" points="126.5001,-478.1086 123,-468.1087 119.5001,-478.1087 126.5001,-478.1086"/>
</g>
<!-- 13&#45;&gt;8 -->
<g id="edge11" class="edge">
<title>13&#45;&gt;8</title>
<path fill="none" stroke="#c0c0c0" stroke-width="2" d="M445.9813,-359.8314C445.1257,-352.131 444.1083,-342.9743 443.1574,-334.4166"/>
<polygon fill="#c0c0c0" stroke="#c0c0c0" stroke-width="2" points="446.6289,-333.9656 442.0459,-324.4133 439.6717,-334.7386 446.6289,-333.9656"/>
</g>
<!-- 14&#45;&gt;18 -->
<g id="edge24" class="edge">
<title>14&#45;&gt;18</title>
<path fill="none" stroke="#c0c0c0" stroke-width="2" d="M668.4666,-287.8314C652.9899,-278.6221 634.0131,-267.3301 617.4437,-257.4706"/>
<polygon fill="#c0c0c0" stroke="#c0c0c0" stroke-width="2" points="618.9071,-254.2687 608.5236,-252.1628 615.3276,-260.2843 618.9071,-254.2687"/>
</g>
<!-- 15&#45;&gt;10 -->
<g id="edge13" class="edge">
<title>15&#45;&gt;10</title>
<path fill="none" stroke="#c0c0c0" stroke-width="2" d="M383,-215.8314C383,-208.131 383,-198.9743 383,-190.4166"/>
<polygon fill="#c0c0c0" stroke="#c0c0c0" stroke-width="2" points="386.5001,-190.4132 383,-180.4133 379.5001,-190.4133 386.5001,-190.4132"/>
</g>
<!-- 16 -->
<g id="node17" class="node">
<title>16</title>
<path fill="none" stroke="#56d8d8" stroke-width="2" stroke-dasharray="5,2" d="M104,-396C104,-396 12,-396 12,-396 6,-396 0,-390 0,-384 0,-384 0,-372 0,-372 0,-366 6,-360 12,-360 12,-360 104,-360 104,-360 110,-360 116,-366 116,-372 116,-372 116,-384 116,-384 116,-390 110,-396 104,-396"/>
<text text-anchor="middle" x="58" y="-381" font-family="sans" font-size="10.00" fill="#000000">SelectVariants</text>
<text text-anchor="middle" x="58" y="-370" font-family="sans" font-size="10.00" fill="#000000">variant_type: INDEL</text>
</g>
<!-- 17 -->
<g id="node18" class="node">
<title>17</title>
<path fill="none" stroke="#d6d856" stroke-width="2" stroke-dasharray="5,2" d="M102.5,-324C102.5,-324 31.5,-324 31.5,-324 25.5,-324 19.5,-318 19.5,-312 19.5,-312 19.5,-300 19.5,-300 19.5,-294 25.5,-288 31.5,-288 31.5,-288 102.5,-288 102.5,-288 108.5,-288 114.5,-294 114.5,-300 114.5,-300 114.5,-312 114.5,-312 114.5,-318 108.5,-324 102.5,-324"/>
<text text-anchor="middle" x="67" y="-303.5" font-family="sans" font-size="10.00" fill="#000000">VariantFiltration</text>
</g>
<!-- 16&#45;&gt;17 -->
<g id="edge22" class="edge">
<title>16&#45;&gt;17</title>
<path fill="none" stroke="#c0c0c0" stroke-width="2" d="M60.2711,-359.8314C61.2336,-352.131 62.3782,-342.9743 63.4479,-334.4166"/>
<polygon fill="#c0c0c0" stroke="#c0c0c0" stroke-width="2" points="66.9309,-334.7702 64.6983,-324.4133 59.9849,-333.9019 66.9309,-334.7702"/>
</g>
<!-- 17&#45;&gt;3 -->
<g id="edge4" class="edge">
<title>17&#45;&gt;3</title>
<path fill="none" stroke="#c0c0c0" stroke-width="2" d="M97.5334,-287.8314C113.0101,-278.6221 131.9869,-267.3301 148.5563,-257.4706"/>
<polygon fill="#c0c0c0" stroke="#c0c0c0" stroke-width="2" points="150.6724,-260.2843 157.4764,-252.1628 147.0929,-254.2687 150.6724,-260.2843"/>
</g>
<!-- 18&#45;&gt;10 -->
<g id="edge15" class="edge">
<title>18&#45;&gt;10</title>
<path fill="none" stroke="#c0c0c0" stroke-width="2" d="M529.045,-215.9243C502.5032,-206.1243 469.5177,-193.945 441.6142,-183.6422"/>
<polygon fill="#c0c0c0" stroke="#c0c0c0" stroke-width="2" points="442.5685,-180.2636 431.9752,-180.0831 440.1438,-186.8303 442.5685,-180.2636"/>
</g>
<!-- 19&#45;&gt;6 -->
<g id="edge9" class="edge">
<title>19&#45;&gt;6</title>
<path fill="none" stroke="#c0c0c0" stroke-width="2" d="M443.5603,-71.8314C433.6795,-63.0485 421.6676,-52.3712 410.955,-42.8489"/>
<polygon fill="#c0c0c0" stroke="#c0c0c0" stroke-width="2" points="413.2326,-40.1906 403.4332,-36.1628 408.582,-45.4224 413.2326,-40.1906"/>
</g>
<!-- 20 -->
<g id="node21" class="node">
<title>20</title>
<path fill="none" stroke="#569ad8" stroke-width="2" stroke-dasharray="5,2" d="M653.5,-545C653.5,-545 566.5,-545 566.5,-545 560.5,-545 554.5,-539 554.5,-533 554.5,-533 554.5,-516 554.5,-516 554.5,-510 560.5,-504 566.5,-504 566.5,-504 653.5,-504 653.5,-504 659.5,-504 665.5,-510 665.5,-516 665.5,-516 665.5,-533 665.5,-533 665.5,-539 659.5,-545 653.5,-545"/>
<text text-anchor="middle" x="610" y="-533" font-family="sans" font-size="10.00" fill="#000000">GenotypeGVCFs</text>
<text text-anchor="middle" x="610" y="-522" font-family="sans" font-size="10.00" fill="#000000">chr: 3</text>
<text text-anchor="middle" x="610" y="-511" font-family="sans" font-size="10.00" fill="#000000">output_name: vcfs</text>
</g>
<!-- 20&#45;&gt;9 -->
<g id="edge12" class="edge">
<title>20&#45;&gt;9</title>
<path fill="none" stroke="#c0c0c0" stroke-width="2" d="M610,-503.7476C610,-495.8767 610,-486.7743 610,-478.3232"/>
<polygon fill="#c0c0c0" stroke="#c0c0c0" stroke-width="2" points="613.5001,-478.1086 610,-468.1087 606.5001,-478.1087 613.5001,-478.1086"/>
</g>
<!-- 21 -->
<g id="node22" class="node">
<title>21</title>
<path fill="none" stroke="#d6d856" stroke-width="2" stroke-dasharray="5,2" d="M223.5,-324C223.5,-324 152.5,-324 152.5,-324 146.5,-324 140.5,-318 140.5,-312 140.5,-312 140.5,-300 140.5,-300 140.5,-294 146.5,-288 152.5,-288 152.5,-288 223.5,-288 223.5,-288 229.5,-288 235.5,-294 235.5,-300 235.5,-300 235.5,-312 235.5,-312 235.5,-318 229.5,-324 223.5,-324"/>
<text text-anchor="middle" x="188" y="-303.5" font-family="sans" font-size="10.00" fill="#000000">VariantFiltration</text>
</g>
<!-- 21&#45;&gt;3 -->
<g id="edge5" class="edge">
<title>21&#45;&gt;3</title>
<path fill="none" stroke="#c0c0c0" stroke-width="2" d="M188,-287.8314C188,-280.131 188,-270.9743 188,-262.4166"/>
<polygon fill="#c0c0c0" stroke="#c0c0c0" stroke-width="2" points="191.5001,-262.4132 188,-252.4133 184.5001,-262.4133 191.5001,-262.4132"/>
</g>
<!-- 22 -->
<g id="node23" class="node">
<title>22</title>
<path fill="none" stroke="#56d8d8" stroke-width="2" stroke-dasharray="5,2" d="M229.5,-396C229.5,-396 146.5,-396 146.5,-396 140.5,-396 134.5,-390 134.5,-384 134.5,-384 134.5,-372 134.5,-372 134.5,-366 140.5,-360 146.5,-360 146.5,-360 229.5,-360 229.5,-360 235.5,-360 241.5,-366 241.5,-372 241.5,-372 241.5,-384 241.5,-384 241.5,-390 235.5,-396 229.5,-396"/>
<text text-anchor="middle" x="188" y="-381" font-family="sans" font-size="10.00" fill="#000000">SelectVariants</text>
<text text-anchor="middle" x="188" y="-370" font-family="sans" font-size="10.00" fill="#000000">variant_type: SNP</text>
</g>
<!-- 22&#45;&gt;21 -->
<g id="edge26" class="edge">
<title>22&#45;&gt;21</title>
<path fill="none" stroke="#c0c0c0" stroke-width="2" d="M188,-359.8314C188,-352.131 188,-342.9743 188,-334.4166"/>
<polygon fill="#c0c0c0" stroke="#c0c0c0" stroke-width="2" points="191.5001,-334.4132 188,-324.4133 184.5001,-334.4133 191.5001,-334.4132"/>
</g>
<!-- 23&#45;&gt;16 -->
<g id="edge21" class="edge">
<title>23&#45;&gt;16</title>
<path fill="none" stroke="#c0c0c0" stroke-width="2" d="M106.5978,-431.8314C98.9585,-423.3694 89.7317,-413.1489 81.3793,-403.8971"/>
<polygon fill="#c0c0c0" stroke="#c0c0c0" stroke-width="2" points="83.9221,-401.4906 74.6231,-396.4133 78.7262,-406.1813 83.9221,-401.4906"/>
</g>
<!-- 23&#45;&gt;22 -->
<g id="edge27" class="edge">
<title>23&#45;&gt;22</title>
<path fill="none" stroke="#c0c0c0" stroke-width="2" d="M139.4022,-431.8314C147.0415,-423.3694 156.2683,-413.1489 164.6207,-403.8971"/>
<polygon fill="#c0c0c0" stroke="#c0c0c0" stroke-width="2" points="167.2738,-406.1813 171.3769,-396.4133 162.0779,-401.4906 167.2738,-406.1813"/>
</g>
<!-- 24 -->
<g id="node25" class="node">
<title>24</title>
<path fill="none" stroke="#569ad8" stroke-width="2" stroke-dasharray="5,2" d="M458.5,-545C458.5,-545 371.5,-545 371.5,-545 365.5,-545 359.5,-539 359.5,-533 359.5,-533 359.5,-516 359.5,-516 359.5,-510 365.5,-504 371.5,-504 371.5,-504 458.5,-504 458.5,-504 464.5,-504 470.5,-510 470.5,-516 470.5,-516 470.5,-533 470.5,-533 470.5,-539 464.5,-545 458.5,-545"/>
<text text-anchor="middle" x="415" y="-533" font-family="sans" font-size="10.00" fill="#000000">GenotypeGVCFs</text>
<text text-anchor="middle" x="415" y="-522" font-family="sans" font-size="10.00" fill="#000000">chr: 1</text>
<text text-anchor="middle" x="415" y="-511" font-family="sans" font-size="10.00" fill="#000000">output_name: vcfs</text>
</g>
<!-- 24&#45;&gt;11 -->
<g id="edge16" class="edge">
<title>24&#45;&gt;11</title>
<path fill="none" stroke="#c0c0c0" stroke-width="2" d="M415,-503.7476C415,-495.8767 415,-486.7743 415,-478.3232"/>
<polygon fill="#c0c0c0" stroke="#c0c0c0" stroke-width="2" points="418.5001,-478.1086 415,-468.1087 411.5001,-478.1087 418.5001,-478.1086"/>
</g>
</g>
</svg>
